<?xml version="1.0" encoding="utf-8"?>
<!-- Generator: Adobe Illustrator 27.3.1, SVG Export Plug-In . SVG Version: 6.00 Build 0)  -->
<svg version="1.1" id="Layer_1" xmlns="http://www.w3.org/2000/svg" xmlns:xlink="http://www.w3.org/1999/xlink" x="0px" y="0px"
	 viewBox="0 0 500 334.25" style="enable-background:new 0 0 500 334.25;" xml:space="preserve">
<style type="text/css">
	.st0{fill:none;}
	.st1{fill:#006A4D;}
	.st2{fill:#ED2A41;}
	.st3{fill:#FFFFFF;}
</style>
<rect class="st0" width="500" height="334.25"/>
<rect class="st0" width="500" height="334.25"/>
<g>
	<rect x="21.09" y="48.28" class="st1" width="457.82" height="82.36"/>
	<rect x="21.09" y="130.64" class="st2" width="457.82" height="82.36"/>
	<rect x="21.09" y="213.01" class="st1" width="457.82" height="82.36"/>
	<polygon class="st3" points="311.4,71.98 315.93,81.93 326.05,83.52 318.73,91.27 320.46,102.2 311.4,97.04 302.35,102.2 
		304.08,91.27 296.75,83.52 306.88,81.93 	"/>
	<polygon class="st3" points="351.2,71.98 355.72,81.93 365.85,83.52 358.52,91.27 360.25,102.2 351.2,97.04 342.14,102.2 
		343.87,91.27 336.55,83.52 346.67,81.93 	"/>
	<polygon class="st3" points="390.99,71.98 395.52,81.93 405.64,83.52 398.32,91.27 400.05,102.2 390.99,97.04 381.94,102.2 
		383.67,91.27 376.34,83.52 386.47,81.93 	"/>
	<polygon class="st3" points="430.79,71.98 435.31,81.93 445.44,83.52 438.11,91.27 439.84,102.2 430.79,97.04 421.73,102.2 
		423.46,91.27 416.14,83.52 426.26,81.93 	"/>
</g>
</svg>
