<?xml version="1.0" encoding="utf-8"?>
<!-- Generator: Adobe Illustrator 27.3.1, SVG Export Plug-In . SVG Version: 6.00 Build 0)  -->
<svg version="1.1" id="Layer_1" xmlns="http://www.w3.org/2000/svg" xmlns:xlink="http://www.w3.org/1999/xlink" x="0px" y="0px"
	 viewBox="0 0 500 334.25" style="enable-background:new 0 0 500 334.25;" xml:space="preserve">
<style type="text/css">
	.st0{fill:none;}
	.st1{fill:#ED2A41;}
	.st2{fill:#006A4D;}
</style>
<rect class="st0" width="500" height="334.25"/>
<rect class="st0" width="500" height="334.25"/>
<g>
	<g>
		<path class="st1" d="M247.19,236.99c-2.75-3.08-5.35-5.96-7.91-8.86c-8.03-9.09-16.06-18.18-24.09-27.27
			c-3.9-4.42-7.79-8.84-11.72-13.23c-1.11-1.24-1.37-2.24-0.13-3.68c6.78-7.9,13.46-15.89,20.18-23.84
			c7.61-8.99,15.22-17.99,22.86-26.95c2.46-2.88,3.87-6.04,3.2-9.9c-0.03-0.19,0.09-0.41,0.2-0.82c2.36,2.54,4.64,4.9,6.81,7.36
			c5.98,6.78,11.91,13.6,17.84,20.42c3.49,4.01,7.07,7.96,10.42,12.09c3.91,4.81,6.47,10.25,6.4,16.62
			c-0.04,3.84-1.33,7.35-3.77,10.27c-8.36,10.01-16.84,19.92-25.25,29.89c-4.61,5.47-9.17,10.98-13.75,16.46
			C248.12,235.96,247.74,236.37,247.19,236.99z"/>
		<path class="st2" d="M199.81,182.66c-1.46-1.56-2.77-2.91-4.03-4.31c-5.88-6.56-11.93-12.98-17.56-19.75
			c-4.89-5.88-9.56-11.97-13.88-18.28c-5.29-7.72-4.06-16.08,2.05-23.59c9.97-12.24,20.18-24.29,30.3-36.41
			c2.49-2.98,5.04-5.92,7.74-9.07c1.25,1.32,2.49,2.6,3.7,3.92c7.41,8.11,14.89,16.16,22.19,24.37c4.33,4.87,8.43,9.95,12.53,15.02
			c2.61,3.22,3.7,7.01,2.98,11.09c-0.27,1.54-1.08,3.16-2.09,4.38c-7.24,8.78-14.61,17.45-21.91,26.19
			c-6.78,8.12-13.53,16.27-20.29,24.4C201.04,181.23,200.52,181.83,199.81,182.66z"/>
		<path class="st2" d="M295.44,177.49c-0.25-1.91-0.41-3.83-0.77-5.72c-0.76-4-2.88-7.29-5.53-10.3
			c-6.06-6.87-12.11-13.74-18.14-20.62c-4.22-4.81-8.06-9.88-9.25-16.37c-0.95-5.19,0.34-9.76,3.98-13.77
			c3.88-4.27,7.48-8.81,11.2-13.23c7.58-9.03,15.15-18.06,22.92-27.32c0.61,0.56,1.29,1.11,1.88,1.74
			c7.09,7.56,14.19,15.09,21.22,22.7c3.42,3.7,6.74,7.49,10,11.32c3.47,4.08,5.37,8.98,5.95,14.2c0.44,3.95-0.87,7.67-3.51,10.79
			c-6.42,7.61-12.83,15.23-19.25,22.83c-6.38,7.56-12.78,15.12-19.15,22.69c-0.4,0.48-0.61,1.12-0.91,1.68
			C295.86,177.91,295.65,177.7,295.44,177.49z"/>
		<path class="st1" d="M224.35,67.21c0.66-0.52,1.32-1.04,1.98-1.55c5.23-3.98,9.28-9.06,12.56-14.64
			c4.13-7.04,7.81-14.35,11.69-21.53c0.29-0.55,0.66-1.05,1.27-2.01c0.16,0.92,0.28,1.28,0.29,1.64
			c0.01,11.22,0.02,22.44-0.04,33.66c0,0.73-0.34,1.76-0.88,2.15c-2.62,1.88-3.25,2.91-2.5,4.78c0.87,2.14,3.56,3.55,5.96,2.96
			c1.7-0.42,3.25-1.19,3.66-3.18c0.32-1.58-0.4-3.13-2.16-4.08c-1.13-0.61-1.25-1.48-1.25-2.56c0.01-8.19-0.01-16.37-0.01-24.56
			c0-3.36,0-6.72,0-10.08c0.16-0.08,0.32-0.17,0.48-0.25c0.4,0.58,0.9,1.12,1.2,1.76c4.57,9.88,9.39,19.63,16.3,28.12
			c2.51,3.08,5.59,5.72,8.58,8.35c1.12,0.98,1.24,1.33,0.18,2.42c-4.06,4.17-8.17,8.32-11.92,12.77c-1.72,2.04-2.58,4.78-3.96,7.13
			c-0.32,0.55-1.17,1.1-1.78,1.11c-6.98,0.08-13.96,0.08-20.94,0.02c-0.6,0-1.58-0.41-1.72-0.85c-1.89-5.72-5.68-10.11-9.72-14.37
			c-2.29-2.41-4.41-4.96-6.61-7.45C224.79,67.05,224.57,67.13,224.35,67.21z"/>
		<path class="st1" d="M253.21,99.36c-4.23,0-8.46,0.04-12.69-0.02c-2.32-0.03-2.88-1.02-2.17-3.22c0.18-0.57,0.05-1.39-0.25-1.94
			c-0.77-1.43-0.16-2.17,1.11-2.6c0.64-0.22,1.34-0.32,2.01-0.32c8.23-0.02,16.47-0.02,24.7,0c0.56,0,1.14,0.08,1.68,0.24
			c1.28,0.38,1.81,1.15,1.49,2.59c-0.2,0.92,0.21,1.96,0.04,2.9c-0.13,0.78-0.54,1.7-1.13,2.15c-0.56,0.43-1.52,0.43-2.3,0.44
			c-4.17,0.04-8.35,0.02-12.52,0.02C253.21,99.52,253.21,99.44,253.21,99.36z"/>
	</g>
	<g>
		<g>
			<g>
				<path class="st2" d="M85.42,269.03v34.21l-0.39-0.42c0.06,0.19,0.05,0.32-0.03,0.39c-0.08,0.06-0.18,0.1-0.3,0.1
					c-0.06-0.09-0.17-0.24-0.33-0.45c-0.14-0.17-0.3-0.37-0.49-0.6c-0.19-0.23-0.38-0.46-0.58-0.7c-0.22-0.24-0.43-0.49-0.64-0.75
					c-0.21-0.26-0.4-0.49-0.58-0.68c-0.22-0.24-0.42-0.46-0.59-0.68l0.12-18.08c0-0.73-0.1-1.53-0.31-2.38
					c-0.21-0.85-0.49-1.7-0.86-2.54c-0.37-0.84-0.81-1.65-1.32-2.43c-0.51-0.78-1.08-1.46-1.69-2.04c-0.61-0.58-1.27-1.05-1.96-1.41
					c-0.69-0.36-1.39-0.53-2.1-0.53c-2.85,0-4.91,1.29-6.2,3.86c0.42-0.11,0.84-0.18,1.27-0.23c0.43-0.04,0.86-0.06,1.27-0.06
					c0.87,0,1.69,0.13,2.48,0.39c0.78,0.26,1.46,0.65,2.05,1.17c0.58,0.52,1.04,1.17,1.38,1.96c0.34,0.79,0.5,1.71,0.5,2.77
					c0,0.93-0.2,1.9-0.61,2.92c-0.41,1.02-0.91,2.01-1.51,2.98c-0.6,0.97-1.26,1.9-1.96,2.77c-0.7,0.87-1.34,1.65-1.91,2.32
					l-4.03-4.96c0.26-0.24,0.59-0.57,1.01-1c0.42-0.43,0.86-0.9,1.33-1.41c0.47-0.51,0.96-1.05,1.45-1.62
					c0.49-0.57,0.94-1.11,1.33-1.62c0.4-0.51,0.72-0.98,0.96-1.41c0.25-0.43,0.37-0.77,0.37-1c0-0.69-0.43-1.04-1.27-1.04
					c-0.22,0-0.57,0.13-1.07,0.39c-0.26,0.13-0.52,0.28-0.8,0.44c-0.28,0.16-0.55,0.33-0.83,0.5c-0.55,0.35-1.13,0.68-1.72,0.99
					c-0.59,0.31-1.1,0.47-1.51,0.47c-0.55,0-1.06-0.17-1.53-0.52c-0.46-0.35-0.86-0.78-1.2-1.3c-0.34-0.52-0.6-1.07-0.79-1.67
					c-0.19-0.59-0.28-1.14-0.28-1.64c0-1.38,0.26-2.63,0.79-3.76c0.52-1.12,1.22-2.08,2.08-2.88c0.86-0.8,1.84-1.42,2.95-1.86
					c1.11-0.44,2.23-0.66,3.38-0.66c2,0,3.66,0.21,4.98,0.63c1.32,0.42,2.43,1.04,3.32,1.86c0.89,0.82,1.62,1.84,2.19,3.06
					c0.57,1.22,1.11,2.63,1.6,4.23c-0.08-1.3-0.16-2.58-0.24-3.86c-0.08-1.27-0.15-2.58-0.22-3.9c-0.07-1.33-0.12-2.7-0.16-4.11
					c-0.04-1.41-0.06-2.91-0.06-4.49l2.64,2.79c-0.12,0.26-0.19,0.46-0.22,0.62c-0.03,0.15-0.04,0.3-0.04,0.45
					c0,0.82,0.08,1.37,0.24,1.65c0.16,0.28,0.35,0.45,0.56,0.52c0.16,0.04,0.33,0.07,0.52,0.08c0.19,0.01,0.41,0.02,0.67,0.02
					c0.24,0,0.5-0.01,0.79-0.02c0.29-0.01,0.59,0.01,0.9,0.05l0.56,0.03l3.77,4.11H85.42z"/>
				<path class="st2" d="M85.93,304.56l-0.77-0.84c-0.14,0.07-0.29,0.1-0.45,0.1h-0.27l-0.15-0.22c-0.06-0.08-0.16-0.23-0.32-0.44
					c-0.12-0.15-0.28-0.35-0.47-0.58l-0.58-0.7c-0.2-0.22-0.43-0.48-0.64-0.75c-0.2-0.25-0.39-0.47-0.56-0.65
					c-0.22-0.24-0.43-0.48-0.61-0.7l-0.12-0.14l0.12-18.26c0-0.69-0.1-1.45-0.3-2.26c-0.2-0.82-0.48-1.65-0.83-2.46
					c-0.35-0.81-0.78-1.6-1.28-2.35c-0.49-0.74-1.03-1.4-1.62-1.95c-0.57-0.55-1.19-0.99-1.84-1.32c-0.62-0.32-1.25-0.48-1.87-0.48
					c-2.29,0-3.99,0.86-5.19,2.63c0.07-0.01,0.15-0.02,0.22-0.02c1.41-0.14,2.75-0.06,3.96,0.35c0.84,0.28,1.59,0.71,2.22,1.27
					c0.64,0.57,1.14,1.29,1.51,2.14c0.36,0.85,0.55,1.85,0.55,2.97c0,0.99-0.22,2.03-0.64,3.11c-0.41,1.04-0.94,2.07-1.55,3.06
					c-0.61,0.99-1.28,1.93-1.99,2.82c-0.71,0.88-1.35,1.66-1.92,2.33l-0.4,0.47l-4.72-5.8l0.35-0.33c0.25-0.23,0.58-0.56,0.99-0.98
					c0.41-0.43,0.86-0.9,1.33-1.4c0.47-0.5,0.95-1.04,1.44-1.61c0.48-0.56,0.93-1.1,1.32-1.6c0.38-0.49,0.69-0.94,0.92-1.35
					c0.28-0.49,0.3-0.7,0.3-0.75c0-0.22,0-0.53-0.76-0.53c-0.02,0-0.22,0.01-0.83,0.33c-0.25,0.13-0.51,0.27-0.78,0.43
					c-0.27,0.16-0.55,0.32-0.82,0.49c-0.56,0.35-1.15,0.69-1.75,1.01c-0.67,0.36-1.25,0.53-1.75,0.53c-0.66,0-1.28-0.21-1.83-0.62
					c-0.51-0.38-0.96-0.86-1.32-1.43c-0.36-0.55-0.64-1.16-0.84-1.79c-0.2-0.64-0.31-1.24-0.31-1.79c0-1.45,0.28-2.79,0.83-3.97
					c0.55-1.18,1.29-2.2,2.19-3.04c0.9-0.84,1.95-1.5,3.11-1.96c1.16-0.46,2.36-0.7,3.57-0.7c2.04,0,3.77,0.22,5.14,0.66
					c1.39,0.44,2.57,1.11,3.51,1.97c0.93,0.86,1.71,1.95,2.31,3.22c0.14,0.29,0.27,0.6,0.41,0.92l-0.02-0.3
					c-0.08-1.28-0.15-2.58-0.22-3.91c-0.07-1.32-0.12-2.71-0.16-4.13c-0.04-1.4-0.06-2.91-0.06-4.5v-1.28l3.76,3.97l-0.14,0.31
					c-0.13,0.29-0.17,0.44-0.19,0.5c-0.02,0.12-0.03,0.24-0.03,0.35c0,0.99,0.12,1.31,0.17,1.4c0.09,0.16,0.18,0.26,0.26,0.28
					c0.11,0.03,0.25,0.05,0.4,0.06c0.35,0.02,0.83,0.02,1.4,0c0.31-0.01,0.64,0.01,0.97,0.05l0.75,0.04l4.69,5.12h-7.79V304.56z
					 M83.88,300.81l1.02,1.12v-33.41h6.5l-2.84-3.1l-0.4-0.02c-0.29-0.04-0.56-0.05-0.82-0.04c-0.62,0.02-1.13,0.02-1.5,0
					c-0.22-0.01-0.43-0.05-0.62-0.1c-0.36-0.11-0.65-0.36-0.87-0.76c-0.21-0.37-0.3-0.97-0.3-1.9c0-0.18,0.02-0.37,0.05-0.55
					c0.02-0.12,0.06-0.25,0.12-0.41l-1.52-1.61c0.01,1.11,0.03,2.18,0.05,3.18c0.04,1.41,0.09,2.79,0.16,4.1
					c0.07,1.33,0.14,2.63,0.22,3.9l0.5,8.11l-1.26-4.07c-0.48-1.57-1.02-2.97-1.58-4.16c-0.54-1.15-1.24-2.13-2.08-2.9
					c-0.83-0.77-1.88-1.35-3.13-1.75c-1.27-0.4-2.89-0.61-4.83-0.61c-1.07,0-2.15,0.21-3.19,0.63c-1.04,0.42-1.98,1.01-2.79,1.76
					c-0.81,0.75-1.47,1.67-1.96,2.72c-0.49,1.05-0.74,2.24-0.74,3.54c0,0.44,0.09,0.94,0.26,1.48c0.17,0.55,0.42,1.07,0.73,1.54
					c0.3,0.47,0.66,0.86,1.08,1.16c0.38,0.28,0.78,0.42,1.22,0.42c0.33,0,0.76-0.14,1.27-0.41c0.58-0.3,1.14-0.63,1.69-0.97
					c0.28-0.18,0.56-0.35,0.84-0.51c0.28-0.17,0.56-0.32,0.83-0.45c0.58-0.31,0.98-0.44,1.3-0.44c1.61,0,1.79,1.08,1.79,1.55
					c0,0.34-0.14,0.74-0.44,1.26c-0.26,0.45-0.6,0.95-1,1.47c-0.4,0.51-0.85,1.07-1.35,1.64c-0.5,0.58-0.99,1.13-1.47,1.64
					c-0.48,0.51-0.92,0.98-1.34,1.41c-0.25,0.26-0.48,0.5-0.68,0.69l3.35,4.11c0.46-0.55,0.97-1.16,1.51-1.84
					c0.69-0.85,1.33-1.77,1.92-2.72c0.58-0.94,1.08-1.92,1.47-2.9c0.38-0.95,0.57-1.87,0.57-2.73c0-0.98-0.16-1.85-0.46-2.57
					c-0.31-0.71-0.72-1.31-1.25-1.78c-0.53-0.47-1.16-0.83-1.87-1.06c-1.08-0.36-2.27-0.43-3.54-0.3c-0.41,0.04-0.81,0.11-1.2,0.21
					l-1.09,0.28l0.5-1.01c1.37-2.75,3.61-4.14,6.65-4.14c0.79,0,1.58,0.2,2.34,0.59c0.73,0.38,1.43,0.88,2.08,1.49
					c0.64,0.61,1.23,1.32,1.76,2.13c0.53,0.8,0.99,1.64,1.36,2.51c0.38,0.87,0.67,1.75,0.89,2.63c0.22,0.89,0.33,1.73,0.33,2.5
					l-0.12,17.89c0.14,0.17,0.29,0.34,0.46,0.52c0.19,0.2,0.39,0.44,0.6,0.71c0.2,0.25,0.41,0.49,0.62,0.72l0.5,0.6L83.88,300.81z"
					/>
			</g>
			<g>
				<path class="st2" d="M114.48,269.03v33.24l-0.36-0.42c0.08,0.22,0.07,0.36-0.03,0.42c-0.1,0.06-0.21,0.1-0.33,0.1
					c0-0.02-0.01-0.03-0.03-0.03c-0.08-0.13-0.18-0.26-0.3-0.39c-0.14-0.17-0.3-0.37-0.47-0.58c-0.18-0.22-0.38-0.44-0.59-0.68
					c-0.22-0.24-0.43-0.47-0.62-0.7c-0.2-0.23-0.38-0.44-0.53-0.63c-0.2-0.24-0.39-0.45-0.56-0.65l0.06-18.53
					c0-1.12-0.2-2.27-0.59-3.45c-0.4-1.18-0.93-2.24-1.62-3.19c-0.68-0.95-1.49-1.73-2.43-2.33c-0.94-0.6-1.95-0.91-3.04-0.91
					c-0.69,0-1.35,0.17-1.99,0.52c-0.63,0.35-1.2,0.79-1.69,1.34c-0.49,0.55-0.88,1.19-1.17,1.91c-0.29,0.72-0.43,1.45-0.43,2.19
					c0,0.39,0.03,0.86,0.1,1.41c0.07,0.55,0.19,1.09,0.36,1.62c0.17,0.53,0.39,1,0.67,1.41c0.28,0.41,0.62,0.66,1.04,0.75
					c0.02-0.3,0.02-0.58,0-0.83c-0.02-0.25-0.03-0.52-0.03-0.83c0-0.58,0.09-1.06,0.27-1.44c0.18-0.38,0.42-0.69,0.71-0.92
					c0.3-0.24,0.64-0.41,1.04-0.5c0.4-0.1,0.8-0.15,1.22-0.15c0.55,0,1.07,0.12,1.56,0.37c0.48,0.25,0.91,0.58,1.27,1
					c0.37,0.42,0.65,0.9,0.86,1.44c0.21,0.54,0.31,1.11,0.31,1.72c0,0.82-0.18,1.54-0.55,2.15c-0.37,0.62-0.83,1.13-1.38,1.55
					c-0.55,0.42-1.16,0.73-1.82,0.94c-0.66,0.21-1.3,0.31-1.91,0.31c-1.28,0-2.46-0.27-3.51-0.81c-1.06-0.54-1.96-1.26-2.71-2.17
					c-0.75-0.91-1.33-1.96-1.75-3.16c-0.42-1.2-0.62-2.47-0.62-3.81c0-1.62,0.22-3.13,0.67-4.54c0.44-1.4,1.09-2.62,1.94-3.66
					c0.85-1.04,1.89-1.85,3.11-2.45c1.23-0.59,2.62-0.89,4.18-0.89c0.71,0,1.37,0.11,1.97,0.32c0.6,0.22,1.17,0.52,1.7,0.91
					c0.53,0.39,1.02,0.84,1.47,1.34c0.44,0.51,0.86,1.05,1.26,1.64c0.4,0.6,0.76,1.23,1.1,1.86c0.34,0.64,0.64,1.27,0.92,1.9
					c0.1,0.17,0.18,0.35,0.25,0.52c0.07,0.17,0.14,0.35,0.22,0.52c0-0.06,0-0.15,0-0.26c0-0.11-0.01-0.28-0.01-0.5
					c-0.01-0.23-0.02-0.53-0.04-0.92c-0.02-0.39-0.06-0.9-0.12-1.52c-0.02-0.26-0.04-0.67-0.07-1.25c-0.03-0.57-0.06-1.24-0.1-1.99
					c-0.04-0.76-0.08-1.56-0.13-2.41c-0.05-0.85-0.09-1.68-0.12-2.49s-0.05-1.56-0.07-2.25c-0.02-0.69-0.03-1.25-0.03-1.68
					c0.63,0.76,1.08,1.32,1.35,1.68c0.27,0.37,0.48,0.68,0.64,0.94c0.16,0.24,0.29,0.47,0.4,0.7c0.11,0.23,0.21,0.44,0.31,0.63
					c0.2,0.37,0.44,0.73,0.74,1.1c0.3,0.37,0.79,0.82,1.48,1.36h2.22l3.77,4.11H114.48z"/>
				<path class="st2" d="M114.99,303.67l-0.75-0.89c-0.15,0.07-0.3,0.1-0.47,0.1h-0.51v-0.35c-0.05-0.08-0.12-0.16-0.19-0.24
					c-0.16-0.2-0.32-0.39-0.49-0.6c-0.17-0.21-0.36-0.43-0.58-0.66c-0.22-0.24-0.43-0.48-0.63-0.71c-0.2-0.23-0.38-0.45-0.54-0.65
					c-0.19-0.23-0.37-0.44-0.54-0.63l-0.13-0.15l0.06-18.73c0-1.06-0.19-2.17-0.57-3.29c-0.38-1.12-0.9-2.15-1.55-3.06
					c-0.64-0.89-1.41-1.63-2.29-2.2c-0.85-0.55-1.78-0.83-2.76-0.83c-0.6,0-1.19,0.15-1.74,0.46c-0.58,0.32-1.1,0.73-1.55,1.24
					c-0.45,0.5-0.81,1.09-1.08,1.76c-0.26,0.66-0.39,1.33-0.39,2c0,0.37,0.03,0.82,0.1,1.35c0.06,0.52,0.18,1.03,0.34,1.53
					c0.15,0.48,0.36,0.91,0.6,1.28c0.03,0.05,0.06,0.09,0.1,0.13c-0.02-0.23-0.02-0.48-0.02-0.75c0-0.66,0.11-1.21,0.32-1.66
					c0.21-0.45,0.5-0.82,0.85-1.1c0.35-0.28,0.77-0.49,1.24-0.6c0.43-0.11,0.88-0.16,1.34-0.16c0.63,0,1.23,0.14,1.79,0.43
					c0.54,0.28,1.02,0.66,1.43,1.12c0.4,0.46,0.72,1,0.95,1.59c0.23,0.6,0.35,1.24,0.35,1.9c0,0.91-0.21,1.72-0.62,2.42
					c-0.4,0.67-0.91,1.24-1.51,1.7c-0.6,0.46-1.27,0.8-1.98,1.02c-0.71,0.22-1.4,0.33-2.06,0.33c-1.36,0-2.62-0.29-3.75-0.87
					c-1.11-0.57-2.08-1.34-2.87-2.3c-0.79-0.95-1.41-2.07-1.84-3.32c-0.43-1.25-0.65-2.58-0.65-3.97c0-1.66,0.23-3.24,0.69-4.69
					c0.46-1.46,1.15-2.75,2.03-3.83c0.89-1.09,2-1.96,3.29-2.58c1.29-0.63,2.77-0.94,4.4-0.94c0.77,0,1.49,0.12,2.14,0.35
					c0.65,0.23,1.26,0.56,1.83,0.98c0.56,0.41,1.08,0.89,1.55,1.42c0.46,0.52,0.89,1.09,1.3,1.69c0.41,0.62,0.78,1.26,1.13,1.91
					c0.1,0.2,0.21,0.4,0.31,0.6c-0.02-0.18-0.03-0.38-0.05-0.59c-0.02-0.27-0.05-0.69-0.08-1.27l-0.1-1.99
					c-0.04-0.75-0.08-1.56-0.13-2.41c-0.05-0.85-0.09-1.69-0.12-2.51c-0.03-0.81-0.05-1.56-0.07-2.26c-0.02-0.68-0.03-1.26-0.03-1.7
					v-1.41l0.9,1.08c0.65,0.78,1.1,1.34,1.37,1.71c0.27,0.38,0.5,0.7,0.66,0.97c0.16,0.24,0.31,0.5,0.43,0.74
					c0.11,0.22,0.21,0.43,0.31,0.62c0.18,0.33,0.41,0.67,0.68,1.01c0.25,0.31,0.68,0.71,1.26,1.17h2.27l4.7,5.14h-8.03V303.67z
					 M113.66,302.1L113.66,302.1L113.66,302.1z M111.16,298.51c0.14,0.16,0.29,0.33,0.44,0.52c0.16,0.2,0.33,0.4,0.53,0.62
					c0.19,0.22,0.4,0.45,0.61,0.69c0.17,0.18,0.33,0.36,0.47,0.54l-0.56-1.55l1.31,1.55v-32.35h6.73l-2.83-3.09h-2.17l-0.14-0.11
					c-0.73-0.57-1.24-1.04-1.57-1.44c-0.32-0.39-0.58-0.79-0.79-1.18c-0.11-0.21-0.21-0.42-0.32-0.65c-0.1-0.2-0.22-0.42-0.36-0.63
					c-0.16-0.26-0.37-0.57-0.63-0.92c-0.1-0.14-0.24-0.32-0.4-0.52c0,0.07,0,0.14,0.01,0.21c0.02,0.69,0.04,1.44,0.07,2.25
					c0.03,0.81,0.07,1.64,0.12,2.48c0.05,0.85,0.09,1.66,0.13,2.42l0.1,1.99c0.03,0.57,0.05,0.98,0.07,1.23
					c0.06,0.62,0.1,1.14,0.12,1.54c0.02,0.39,0.03,0.7,0.04,0.93c0.01,0.24,0.02,0.41,0.02,0.52v2.6l-0.98-2.13
					c-0.08-0.18-0.16-0.36-0.23-0.54c-0.06-0.15-0.13-0.3-0.22-0.45l-0.02-0.05c-0.27-0.62-0.58-1.24-0.9-1.86
					c-0.33-0.62-0.69-1.23-1.07-1.82c-0.38-0.56-0.79-1.09-1.22-1.58c-0.42-0.48-0.88-0.9-1.38-1.27c-0.49-0.36-1.02-0.64-1.58-0.84
					c-0.55-0.2-1.15-0.29-1.8-0.29c-1.48,0-2.81,0.28-3.96,0.84c-1.15,0.56-2.14,1.34-2.94,2.31c-0.8,0.98-1.43,2.16-1.85,3.49
					c-0.43,1.35-0.64,2.82-0.64,4.38c0,1.28,0.2,2.5,0.59,3.64c0.39,1.14,0.95,2.14,1.66,3c0.7,0.85,1.56,1.54,2.55,2.04
					c0.98,0.5,2.08,0.75,3.28,0.75c0.56,0,1.15-0.1,1.76-0.28c0.6-0.19,1.16-0.47,1.67-0.86c0.5-0.38,0.92-0.85,1.25-1.41
					c0.32-0.53,0.48-1.17,0.48-1.89c0-0.54-0.09-1.05-0.28-1.53c-0.19-0.48-0.44-0.92-0.77-1.29c-0.32-0.37-0.7-0.67-1.12-0.88
					c-0.73-0.38-1.62-0.38-2.42-0.19c-0.32,0.08-0.6,0.21-0.84,0.4c-0.24,0.19-0.42,0.43-0.57,0.74c-0.14,0.31-0.22,0.72-0.22,1.22
					c0,0.29,0.01,0.55,0.03,0.79c0.02,0.27,0.02,0.58,0,0.9l-0.04,0.59l-0.58-0.12c-0.55-0.11-1.01-0.44-1.36-0.96
					c-0.3-0.45-0.55-0.97-0.73-1.54c-0.18-0.55-0.3-1.13-0.38-1.71c-0.07-0.57-0.11-1.06-0.11-1.47c0-0.8,0.16-1.59,0.47-2.38
					c0.31-0.78,0.73-1.47,1.27-2.06c0.53-0.59,1.14-1.08,1.83-1.45c0.71-0.39,1.46-0.58,2.23-0.58c1.18,0,2.3,0.33,3.32,0.99
					c0.99,0.64,1.85,1.47,2.57,2.46c0.71,0.99,1.27,2.11,1.68,3.33c0.41,1.23,0.62,2.44,0.62,3.61L111.16,298.51z"/>
			</g>
			<g>
				<path class="st2" d="M151.26,269.03v34.37l-1.87-1.56c-0.51-2.38-1.32-4.6-2.42-6.67c-1.1-2.07-2.34-4.04-3.72-5.9
					c-0.85,1.36-1.89,2.47-3.11,3.34c-1.23,0.86-2.65,1.3-4.27,1.3c-1.6,0-3.09-0.39-4.46-1.17c-1.37-0.78-2.64-1.81-3.79-3.11
					c-1.16-1.3-2.2-2.79-3.13-4.47c-0.93-1.68-1.75-3.42-2.46-5.22c-0.71-1.79-1.31-3.58-1.79-5.36c-0.48-1.78-0.86-3.42-1.11-4.91
					l2.67,1.23c0.4,1.23,0.82,2.49,1.29,3.79c0.46,1.3,0.97,2.55,1.53,3.77c0.55,1.22,1.17,2.37,1.85,3.45
					c0.68,1.08,1.46,2.02,2.33,2.83c0.87,0.81,1.84,1.45,2.92,1.93c1.08,0.48,2.29,0.71,3.63,0.71c0.73,0,1.43-0.12,2.09-0.36
					c0.66-0.24,1.24-0.58,1.72-1.04c0.48-0.45,0.87-1,1.16-1.65c0.29-0.65,0.43-1.38,0.43-2.2c0-0.39-0.05-0.89-0.15-1.51
					c-0.1-0.62-0.25-1.23-0.44-1.83c-0.2-0.6-0.45-1.14-0.76-1.6c-0.31-0.46-0.68-0.73-1.11-0.79c-0.36,1.08-0.89,1.92-1.62,2.53
					c-0.72,0.6-1.65,0.91-2.77,0.91c-0.63,0-1.26-0.11-1.87-0.34c-0.61-0.23-1.17-0.56-1.68-0.99c-0.5-0.43-0.91-0.96-1.22-1.57
					c-0.31-0.62-0.46-1.31-0.46-2.09c0-0.91,0.2-1.68,0.59-2.32c0.4-0.64,0.9-1.16,1.51-1.55c0.61-0.4,1.28-0.69,2-0.86
					c0.72-0.17,1.4-0.26,2.03-0.26c1.03,0,2.03,0.19,3.01,0.58c0.98,0.39,1.89,0.91,2.73,1.57c0.84,0.66,1.59,1.44,2.25,2.35
					c0.66,0.91,1.21,1.88,1.63,2.92c0.42,1.04,0.71,2.12,0.84,3.26c0.14,1.13,0.1,2.25-0.12,3.35l2.31,4.89v-19.76h-28.7l-3.79-4.11
					h39.52l3.85,4.11H151.26z"/>
				<path class="st2" d="M151.77,304.49l-2.84-2.37l-0.04-0.17c-0.5-2.32-1.3-4.52-2.37-6.54c-0.96-1.82-2.05-3.58-3.25-5.24
					c-0.8,1.14-1.76,2.1-2.84,2.86c-1.31,0.92-2.84,1.39-4.56,1.39c-1.68,0-3.27-0.41-4.71-1.23c-1.42-0.8-2.74-1.88-3.92-3.21
					c-1.18-1.32-2.25-2.85-3.19-4.56c-0.93-1.69-1.77-3.47-2.49-5.27c-0.72-1.8-1.32-3.62-1.81-5.42c-0.49-1.79-0.86-3.46-1.12-4.96
					l-0.04-0.22h-0.04l-4.74-5.14h40.91l4.81,5.14h-7.75V304.49z M149.85,301.57l0.89,0.74v-33.79h6.42l-2.9-3.09h-38.13l2.85,3.09
					h28.99v22.55l-3.36-7.1l0.03-0.17c0.21-1.04,0.24-2.12,0.11-3.19c-0.13-1.08-0.41-2.13-0.81-3.12
					c-0.41-0.99-0.94-1.94-1.57-2.81c-0.63-0.86-1.36-1.62-2.16-2.25c-0.8-0.63-1.67-1.13-2.6-1.5c-0.91-0.36-1.86-0.55-2.82-0.55
					c-0.59,0-1.23,0.08-1.91,0.25c-0.66,0.16-1.28,0.42-1.84,0.79c-0.55,0.36-1,0.83-1.36,1.4c-0.34,0.55-0.52,1.24-0.52,2.05
					c0,0.69,0.14,1.32,0.41,1.86c0.27,0.55,0.64,1.03,1.09,1.41c0.46,0.39,0.97,0.69,1.52,0.9c0.55,0.2,1.12,0.31,1.69,0.31
					c1.01,0,1.81-0.26,2.44-0.79c0.64-0.54,1.13-1.31,1.46-2.3l0.13-0.41l0.43,0.06c0.58,0.09,1.07,0.43,1.46,1.02
					c0.33,0.5,0.6,1.08,0.82,1.73c0.2,0.63,0.36,1.27,0.46,1.91c0.1,0.65,0.15,1.17,0.15,1.59c0,0.89-0.16,1.7-0.47,2.41
					c-0.31,0.71-0.74,1.32-1.27,1.82c-0.53,0.5-1.17,0.89-1.9,1.14c-0.71,0.26-1.47,0.39-2.26,0.39c-1.41,0-2.7-0.25-3.84-0.76
					c-1.12-0.5-2.15-1.18-3.06-2.02c-0.9-0.84-1.71-1.82-2.41-2.94c-0.69-1.1-1.33-2.28-1.89-3.51c-0.56-1.23-1.08-2.51-1.54-3.81
					c-0.44-1.22-0.85-2.43-1.23-3.59l-1.57-0.72c0.24,1.21,0.55,2.51,0.92,3.9c0.48,1.76,1.07,3.54,1.78,5.31
					c0.7,1.77,1.52,3.5,2.43,5.16c0.91,1.64,1.94,3.12,3.06,4.38c1.11,1.25,2.35,2.26,3.67,3.01c1.29,0.73,2.71,1.1,4.21,1.1
					c1.51,0,2.84-0.4,3.97-1.2c1.16-0.82,2.16-1.89,2.97-3.19l0.4-0.63l0.45,0.6c1.39,1.87,2.66,3.88,3.76,5.96
					C148.51,296.99,149.33,299.22,149.85,301.57z M120.05,269.54l2.16,1l0.07,0.21c0.39,1.22,0.82,2.49,1.28,3.77
					c0.46,1.28,0.97,2.53,1.51,3.74c0.54,1.19,1.15,2.33,1.82,3.39c0.66,1.04,1.41,1.96,2.24,2.73c0.82,0.77,1.76,1.38,2.78,1.83
					c1.01,0.44,2.16,0.67,3.43,0.67c0.67,0,1.31-0.11,1.92-0.33c0.59-0.21,1.11-0.52,1.54-0.93c0.43-0.4,0.78-0.9,1.04-1.49
					c0.26-0.58,0.39-1.25,0.39-2c0-0.36-0.05-0.84-0.14-1.43c-0.09-0.59-0.24-1.18-0.43-1.75c-0.18-0.56-0.42-1.06-0.7-1.48
					c-0.12-0.18-0.25-0.32-0.38-0.41c-0.38,0.93-0.91,1.69-1.59,2.26c-0.81,0.68-1.86,1.03-3.1,1.03c-0.69,0-1.38-0.13-2.05-0.37
					c-0.67-0.25-1.28-0.61-1.83-1.08c-0.55-0.48-1.01-1.06-1.34-1.73c-0.34-0.68-0.51-1.46-0.51-2.32c0-1,0.23-1.87,0.67-2.59
					c0.43-0.7,0.99-1.27,1.67-1.71c0.66-0.43,1.39-0.74,2.16-0.93c0.14-0.03,0.28-0.07,0.42-0.09H120.05z M145.69,283.83l1.27,2.68
					v-16.97h-10.41c0.49,0.1,0.98,0.25,1.46,0.44c1.02,0.4,1.98,0.96,2.85,1.64c0.87,0.69,1.66,1.51,2.35,2.45
					c0.68,0.94,1.25,1.95,1.69,3.02c0.44,1.07,0.74,2.21,0.88,3.39C145.92,281.61,145.88,282.74,145.69,283.83z"/>
			</g>
			<g>
				<path class="st2" d="M162.12,262.29c0,0.06,0.05,0.22,0.15,0.47c0.1,0.25,0.22,0.52,0.36,0.83c0.1,0.24,0.2,0.48,0.3,0.71
					c0.1,0.24,0.18,0.44,0.24,0.62h5.57l3.77,4.11h-8.18v34.15c-0.28-0.28-0.54-0.55-0.8-0.81c-0.22-0.24-0.45-0.48-0.7-0.73
					c-0.25-0.25-0.47-0.48-0.67-0.7c-0.2-0.22-0.39-0.42-0.56-0.6c-0.18-0.18-0.34-0.36-0.47-0.53c-0.18-0.19-0.3-0.31-0.36-0.36
					c-0.02-0.04-0.04-0.08-0.06-0.1c-0.02-0.02-0.04-0.05-0.06-0.1c-0.04-0.04-0.06-0.08-0.06-0.1c-0.06-0.15-0.07-0.27-0.03-0.36
					v-29.77h-4.24l-3.79-4.11h7.8c-0.22-0.24-0.44-0.47-0.65-0.71c-0.22-0.24-0.44-0.47-0.65-0.71c-0.34-0.41-0.63-0.85-0.87-1.31
					c-0.25-0.46-0.37-0.97-0.37-1.51c0-0.97,0.18-1.93,0.55-2.87c0.37-0.94,0.86-1.82,1.48-2.64c0.62-0.82,1.34-1.57,2.15-2.25
					c0.81-0.68,1.66-1.27,2.55-1.77c0.89-0.5,1.79-0.88,2.7-1.15c0.91-0.27,1.76-0.41,2.55-0.41c1.78,0,3.5,0.26,5.17,0.78
					c1.67,0.52,3.27,1.22,4.8,2.11c1.53,0.89,2.98,1.92,4.36,3.11c1.37,1.19,2.67,2.45,3.9,3.79l1.1,3.56
					c-2.63-2.35-5.03-4.17-7.19-5.46c-2.16-1.28-4.12-2.18-5.87-2.69c-1.75-0.51-3.31-0.69-4.68-0.53c-1.37,0.15-2.57,0.49-3.6,1
					c-1.03,0.52-1.9,1.16-2.61,1.93c-0.71,0.77-1.29,1.51-1.73,2.22s-0.77,1.34-0.96,1.9C162.22,261.86,162.12,262.19,162.12,262.29
					z"/>
				<path class="st2" d="M164.82,304.42l-1.68-1.7c-0.23-0.25-0.45-0.48-0.7-0.73c-0.25-0.25-0.48-0.49-0.68-0.71
					c-0.19-0.21-0.38-0.41-0.55-0.59c-0.18-0.19-0.35-0.38-0.5-0.56c-0.21-0.22-0.27-0.27-0.27-0.28l-0.09-0.08l-0.06-0.11
					c-0.03-0.04-0.06-0.08-0.09-0.13c-0.04-0.06-0.1-0.14-0.12-0.24c-0.08-0.21-0.09-0.41-0.05-0.58v-29.18h-3.95l-4.74-5.14h7.8
					l-0.52-0.57c-0.37-0.45-0.69-0.92-0.95-1.42c-0.29-0.54-0.43-1.12-0.43-1.75c0-1.03,0.2-2.06,0.58-3.05
					c0.38-0.98,0.9-1.91,1.55-2.76c0.64-0.85,1.39-1.63,2.23-2.33c0.83-0.7,1.71-1.31,2.63-1.82c0.92-0.51,1.86-0.91,2.8-1.19
					c0.95-0.28,1.86-0.43,2.7-0.43c1.82,0,3.61,0.27,5.32,0.8c1.7,0.53,3.35,1.25,4.91,2.15c1.55,0.9,3.04,1.96,4.44,3.17
					c1.38,1.19,2.71,2.48,3.94,3.83l0.08,0.08l1.67,5.43l-1.37-1.23c-2.59-2.32-4.98-4.14-7.11-5.4c-2.12-1.26-4.05-2.14-5.75-2.64
					c-1.68-0.49-3.19-0.66-4.49-0.52c-1.31,0.14-2.46,0.46-3.43,0.95c-0.97,0.49-1.8,1.1-2.46,1.82c-0.69,0.74-1.25,1.46-1.68,2.14
					c-0.42,0.68-0.73,1.28-0.92,1.8c-0.19,0.52-0.24,0.73-0.26,0.8c0.01,0.04,0.04,0.13,0.11,0.29c0.09,0.24,0.21,0.51,0.35,0.8
					l0.3,0.73c0.04,0.11,0.08,0.21,0.12,0.3h5.44l4.7,5.14h-8.83V304.42z M161.16,299.12c0.07,0.06,0.17,0.16,0.33,0.34l0.02,0.03
					c0.13,0.16,0.27,0.33,0.44,0.5c0.18,0.19,0.37,0.39,0.57,0.61c0.19,0.21,0.41,0.44,0.65,0.68c0.22,0.22,0.43,0.44,0.62,0.65
					v-33.41h7.53l-2.83-3.09h-5.71l-0.12-0.34c-0.06-0.16-0.13-0.36-0.23-0.59l-0.3-0.71c-0.13-0.29-0.26-0.58-0.36-0.83
					c-0.15-0.38-0.18-0.54-0.18-0.66c0-0.13,0.03-0.32,0.33-1.16c0.21-0.58,0.55-1.25,1.01-1.99c0.46-0.74,1.06-1.51,1.79-2.3
					c0.75-0.81,1.68-1.49,2.75-2.04c1.08-0.54,2.35-0.9,3.78-1.06c1.43-0.16,3.08,0.03,4.88,0.55c1.78,0.52,3.8,1.44,5.99,2.74
					c1.8,1.07,3.79,2.52,5.91,4.33l-0.53-1.74c-1.19-1.29-2.46-2.52-3.78-3.66c-1.34-1.16-2.78-2.19-4.28-3.05
					c-1.49-0.86-3.07-1.56-4.7-2.06c-1.61-0.5-3.3-0.75-5.02-0.75c-0.74,0-1.55,0.13-2.4,0.38c-0.87,0.26-1.74,0.63-2.59,1.11
					c-0.86,0.48-1.69,1.06-2.47,1.71c-0.78,0.65-1.47,1.38-2.07,2.17c-0.59,0.78-1.07,1.63-1.41,2.52
					c-0.34,0.88-0.51,1.78-0.51,2.68c0,0.46,0.1,0.87,0.31,1.27c0.23,0.43,0.51,0.85,0.82,1.23l2.07,2.26h-7.79l2.85,3.09h4.53
					l0,30.44l0.04,0.07C161.12,299.07,161.14,299.09,161.16,299.12z M161.07,299.01c0,0,0.01,0.01,0.01,0.01
					C161.08,299.02,161.07,299.01,161.07,299.01z M161.01,298.91L161.01,298.91L161.01,298.91z"/>
			</g>
			<g>
				<path class="st2" d="M195.51,269.03v35.86c-0.18-0.3-0.32-0.54-0.42-0.71c-0.1-0.17-0.17-0.3-0.21-0.37
					c-0.04-0.08-0.08-0.14-0.12-0.18l-0.06,0.03c-0.14,0.02-0.28,0-0.43-0.05c-0.15-0.05-0.28-0.21-0.4-0.47
					c-0.1-0.3-0.2-0.65-0.31-1.04c-0.11-0.39-0.21-0.8-0.31-1.23c-0.04-0.22-0.08-0.43-0.13-0.63c-0.05-0.21-0.09-0.4-0.13-0.6
					c-0.1-0.39-0.19-0.7-0.27-0.94c-0.53-1.43-1.33-2.75-2.4-3.98c-1.07-1.23-2.27-2.32-3.62-3.27c-1.34-0.95-2.77-1.72-4.27-2.32
					c-1.5-0.59-2.96-0.98-4.39-1.15l-3.91-5.7c0.18-0.15,0.42-0.35,0.74-0.6c0.32-0.25,0.67-0.53,1.07-0.84
					c0.4-0.31,0.81-0.64,1.25-0.99c0.43-0.35,0.88-0.7,1.33-1.07c0.57-0.45,1.11-0.89,1.62-1.3c0.5-0.41,0.91-0.75,1.23-1
					c-0.77-0.09-1.5-0.28-2.19-0.57c-0.69-0.29-1.3-0.7-1.82-1.21c-0.52-0.52-0.94-1.15-1.26-1.9c-0.32-0.75-0.47-1.6-0.47-2.58
					c0-0.86,0.14-1.65,0.43-2.35c0.29-0.7,0.68-1.3,1.17-1.8c0.49-0.5,1.07-0.89,1.73-1.17c0.66-0.28,1.38-0.42,2.15-0.42
					c0.38,0,0.8,0.04,1.26,0.13c0.46,0.09,0.9,0.24,1.3,0.47c0.4,0.23,0.75,0.54,1.02,0.94c0.28,0.4,0.42,0.91,0.42,1.54
					c0,0.91-0.23,1.64-0.7,2.19c-0.46,0.55-1.13,0.83-2,0.83c-0.42,0-0.81-0.06-1.19-0.19c-0.38-0.13-0.73-0.3-1.07-0.52
					c-0.1,0.17-0.16,0.39-0.18,0.66c-0.02,0.27-0.03,0.49-0.03,0.66c0,0.45,0.11,0.86,0.33,1.23c0.22,0.37,0.5,0.69,0.84,0.96
					c0.35,0.27,0.73,0.48,1.16,0.63c0.42,0.15,0.84,0.23,1.26,0.23c0.32,0,0.84-0.19,1.59-0.58c0.74-0.39,1.57-0.87,2.48-1.46
					c0.83-0.52,1.62-1.03,2.37-1.54c0.75-0.51,1.33-0.91,1.75-1.21v-4.54h6.97l3.77,4.11H195.51z M191.71,276.32
					c-1.8,0.82-3.51,1.83-5.14,3.03c-1.63,1.2-3.19,2.5-4.67,3.9c1.98,1.06,3.79,2.35,5.46,3.87c1.66,1.52,3.11,3.28,4.36,5.26
					V276.32z"/>
				<path class="st2" d="M196.02,306.77l-0.95-1.62c-0.18-0.3-0.32-0.54-0.42-0.72c-0.06-0.1-0.11-0.19-0.14-0.25
					c-0.13-0.01-0.27-0.04-0.4-0.09c-0.29-0.1-0.51-0.35-0.69-0.74l-0.02-0.05c-0.1-0.31-0.21-0.67-0.32-1.06
					c-0.11-0.4-0.22-0.82-0.32-1.25c-0.04-0.23-0.09-0.43-0.13-0.63c-0.05-0.21-0.1-0.42-0.14-0.62c-0.09-0.35-0.18-0.65-0.25-0.88
					c-0.5-1.34-1.28-2.63-2.3-3.81c-1.03-1.19-2.22-2.27-3.53-3.19c-1.3-0.92-2.7-1.68-4.16-2.26c-1.45-0.57-2.89-0.95-4.26-1.12
					l-0.23-0.03l-4.31-6.27l0.35-0.3c0.18-0.15,0.43-0.36,0.76-0.61c0.32-0.25,0.67-0.53,1.07-0.84l1.24-0.99
					c0.43-0.34,0.88-0.7,1.33-1.07c0.58-0.46,1.11-0.89,1.61-1.29c0.13-0.11,0.25-0.21,0.37-0.3c-0.42-0.1-0.82-0.24-1.21-0.4
					c-0.75-0.32-1.42-0.76-1.98-1.32c-0.57-0.56-1.03-1.26-1.37-2.06c-0.34-0.8-0.51-1.74-0.51-2.78c0-0.93,0.16-1.78,0.47-2.54
					c0.31-0.76,0.74-1.42,1.28-1.97c0.54-0.54,1.18-0.97,1.9-1.28c0.72-0.31,1.51-0.46,2.35-0.46c0.4,0,0.86,0.05,1.35,0.14
					c0.52,0.1,1.01,0.27,1.46,0.53c0.47,0.26,0.87,0.63,1.19,1.09c0.34,0.49,0.51,1.1,0.51,1.83c0,1.03-0.27,1.87-0.82,2.52
					c-0.56,0.67-1.37,1.01-2.39,1.01c-0.47,0-0.93-0.07-1.35-0.22c-0.2-0.07-0.39-0.15-0.57-0.23c-0.02,0.23-0.02,0.41-0.02,0.56
					c0,0.36,0.08,0.68,0.25,0.97c0.18,0.31,0.43,0.58,0.72,0.81c0.3,0.24,0.64,0.42,1.01,0.55c0.37,0.13,0.73,0.2,1.09,0.2
					c0.1,0,0.45-0.05,1.35-0.52c0.72-0.38,1.54-0.86,2.44-1.44c0.83-0.52,1.62-1.03,2.36-1.53c0.63-0.42,1.14-0.78,1.52-1.05v-4.79
					h7.7l4.7,5.14h-7.59V306.77z M194.35,302.96c0.07,0.15,0.12,0.19,0.12,0.19c0.02,0.01,0.05,0.01,0.09,0.02l0.31-0.17l0.12,0.14
					v-34.6h6.29l-2.83-3.09h-6.23v4.28l-0.21,0.15c-0.42,0.31-1,0.71-1.76,1.23c-0.75,0.51-1.55,1.03-2.39,1.55
					c-0.91,0.59-1.76,1.08-2.51,1.48c-0.83,0.44-1.41,0.64-1.82,0.64c-0.47,0-0.95-0.09-1.43-0.26c-0.47-0.17-0.91-0.41-1.3-0.71
					c-0.39-0.31-0.72-0.68-0.97-1.1c-0.26-0.44-0.4-0.95-0.4-1.49c0-0.19,0.01-0.42,0.03-0.7c0.02-0.34,0.11-0.64,0.24-0.88
					l0.27-0.47l0.45,0.29c0.3,0.19,0.62,0.35,0.96,0.46c0.32,0.11,0.66,0.17,1.02,0.17c0.72,0,1.24-0.21,1.61-0.64
					c0.39-0.46,0.58-1.07,0.58-1.86c0-0.52-0.11-0.94-0.32-1.25c-0.23-0.33-0.52-0.6-0.85-0.78c-0.35-0.2-0.74-0.34-1.15-0.41
					c-0.43-0.08-0.83-0.12-1.17-0.12c-0.7,0-1.35,0.13-1.95,0.38c-0.6,0.25-1.13,0.61-1.57,1.06c-0.44,0.45-0.8,1-1.06,1.63
					c-0.26,0.64-0.39,1.36-0.39,2.16c0,0.9,0.15,1.7,0.43,2.38c0.29,0.68,0.67,1.26,1.15,1.73c0.47,0.47,1.03,0.84,1.66,1.11
					c0.64,0.27,1.33,0.45,2.05,0.53l1.21,0.13l-0.94,0.77c-0.32,0.26-0.73,0.59-1.23,1.01c-0.51,0.41-1.05,0.85-1.62,1.3
					c-0.45,0.37-0.9,0.72-1.33,1.07l-1.25,0.99c-0.4,0.31-0.75,0.6-1.07,0.84c-0.14,0.11-0.26,0.21-0.37,0.29l3.52,5.13
					c1.39,0.19,2.83,0.58,4.28,1.15c1.53,0.61,3.01,1.41,4.38,2.37c1.37,0.97,2.62,2.1,3.71,3.35c1.1,1.27,1.94,2.66,2.49,4.14
					c0.09,0.27,0.18,0.6,0.28,0.99c0.04,0.21,0.09,0.41,0.13,0.61c0.05,0.22,0.1,0.43,0.14,0.66c0.09,0.4,0.19,0.8,0.3,1.19
					C194.16,302.33,194.26,302.67,194.35,302.96z M192.22,294.17l-0.94-1.51c-1.21-1.94-2.65-3.67-4.27-5.16
					c-1.62-1.49-3.42-2.76-5.35-3.8l-0.62-0.33l0.51-0.49c1.49-1.41,3.08-2.74,4.72-3.94c1.65-1.21,3.41-2.25,5.23-3.08l0.72-0.33
					V294.17z M182.76,283.15c1.77,1.01,3.43,2.22,4.94,3.6c1.28,1.18,2.46,2.51,3.5,3.96v-13.58c-1.5,0.74-2.96,1.62-4.33,2.63
					C185.45,280.81,184.07,281.94,182.76,283.15z"/>
			</g>
			<g>
				<path class="st2" d="M231.19,283.87c-0.04-1.06-0.3-2.08-0.77-3.06c-0.47-0.98-1.08-1.84-1.82-2.56
					c-0.74-0.72-1.58-1.29-2.51-1.7c-0.93-0.41-1.87-0.58-2.82-0.52c-0.04,0-0.08,0-0.13,0c-0.05,0-0.11,0.01-0.19,0.03v26.43
					c-0.16,0-0.35-0.06-0.56-0.19c-0.22-0.13-0.44-0.28-0.65-0.45c-0.24-0.19-0.49-0.42-0.77-0.68c-0.59-1.92-1.32-3.69-2.19-5.3
					c-0.87-1.61-1.9-3.02-3.1-4.23c-1.2-1.21-2.56-2.19-4.09-2.95c-1.53-0.76-3.26-1.25-5.17-1.49l-4.51-6.09
					c1.21-1.08,2.51-2.13,3.93-3.14c1.41-1.01,2.88-1.97,4.39-2.85c1.51-0.89,3.03-1.68,4.55-2.4c1.52-0.71,2.98-1.32,4.39-1.81
					v-1.88h-18.32l-3.85-4.11h38.87l3.71,4.11h-16.6v1.59h0.09c1.54,0,2.98,0.42,4.33,1.26c1.34,0.84,2.52,1.93,3.53,3.26
					c1.01,1.33,1.8,2.8,2.39,4.41c0.58,1.61,0.87,3.19,0.87,4.75c0,0.82-0.11,1.64-0.34,2.45c-0.23,0.81-0.56,1.54-1.01,2.19
					c-0.44,0.65-1,1.18-1.66,1.59c-0.66,0.41-1.42,0.62-2.27,0.62c-0.53,0-1.06-0.11-1.59-0.34c-0.52-0.23-0.99-0.54-1.39-0.94
					c-0.41-0.4-0.73-0.87-0.98-1.41c-0.25-0.54-0.37-1.12-0.37-1.75c0-0.78,0.19-1.48,0.56-2.11c0.38-0.63,0.82-1.18,1.33-1.65
					c0.34-0.11,0.66-0.2,0.98-0.28c0.32-0.08,0.64-0.11,0.98-0.11c0.51,0,1.01,0.14,1.48,0.4
					C230.36,283.22,230.8,283.52,231.19,283.87z M220.86,276.32c-0.95,0.39-1.84,0.8-2.68,1.25c-0.84,0.44-1.66,0.91-2.46,1.41
					c-0.8,0.5-1.59,1.02-2.36,1.57c-0.77,0.55-1.56,1.13-2.37,1.73c2.04,1.04,3.89,2.33,5.56,3.89c1.67,1.55,3.11,3.38,4.31,5.47
					V276.32z"/>
				<path class="st2" d="M223.46,303.01h-0.51c-0.25,0-0.52-0.09-0.83-0.27c-0.24-0.14-0.47-0.31-0.71-0.49
					c-0.25-0.21-0.52-0.44-0.8-0.71l-0.1-0.09l-0.04-0.13c-0.58-1.88-1.31-3.63-2.16-5.2c-0.84-1.56-1.86-2.94-3.01-4.11
					c-1.15-1.16-2.48-2.12-3.95-2.85c-1.47-0.73-3.16-1.21-5.01-1.44l-0.22-0.03l-4.91-6.64l0.35-0.31
					c1.21-1.09,2.55-2.15,3.97-3.18c1.42-1.02,2.91-1.99,4.43-2.88c1.52-0.89,3.07-1.7,4.59-2.42c1.41-0.66,2.78-1.23,4.09-1.71
					v-1.01h-18.03l-4.81-5.14h40.27l4.63,5.14h-17.24v0.58c1.48,0.07,2.88,0.52,4.18,1.33c1.39,0.87,2.62,2.01,3.66,3.38
					c1.03,1.36,1.86,2.89,2.46,4.54c0.6,1.66,0.91,3.31,0.91,4.92c0,0.86-0.12,1.73-0.36,2.58c-0.24,0.86-0.6,1.65-1.08,2.34
					c-0.48,0.7-1.09,1.29-1.81,1.73c-0.74,0.46-1.59,0.69-2.54,0.69c-0.6,0-1.2-0.13-1.79-0.38c-0.58-0.25-1.1-0.6-1.55-1.04
					c-0.45-0.44-0.81-0.97-1.08-1.56c-0.28-0.6-0.42-1.26-0.42-1.96c0-0.87,0.21-1.66,0.64-2.37c0.4-0.66,0.88-1.26,1.43-1.76
					l0.08-0.08l0.11-0.03c0.35-0.11,0.69-0.21,1.02-0.29c0.35-0.08,0.72-0.13,1.1-0.13c0.6,0,1.18,0.16,1.74,0.47
					c0.14,0.08,0.27,0.16,0.4,0.24c-0.12-0.59-0.31-1.16-0.58-1.72c-0.45-0.92-1.02-1.74-1.72-2.42c-0.69-0.68-1.49-1.21-2.35-1.6
					c-0.8-0.35-1.61-0.51-2.42-0.48V303.01z M221.41,300.89c0.23,0.21,0.45,0.4,0.65,0.57c0.12,0.1,0.25,0.19,0.38,0.28v-26.06
					l0.38-0.1c0.12-0.03,0.23-0.05,0.33-0.05h0.12c1.02-0.07,2.04,0.12,3.04,0.56c0.98,0.43,1.87,1.04,2.66,1.8
					c0.78,0.76,1.43,1.67,1.93,2.7c0.5,1.04,0.78,2.14,0.82,3.26l0.04,1.18l-0.89-0.78c-0.37-0.32-0.78-0.61-1.22-0.86
					c-0.4-0.23-0.8-0.34-1.23-0.34c-0.29,0-0.58,0.03-0.86,0.1c-0.27,0.06-0.55,0.14-0.83,0.23c-0.44,0.42-0.83,0.91-1.16,1.46
					c-0.33,0.55-0.49,1.15-0.49,1.84c0,0.55,0.11,1.07,0.32,1.54c0.22,0.48,0.51,0.9,0.87,1.26c0.36,0.35,0.77,0.63,1.24,0.83
					c0.46,0.2,0.92,0.3,1.38,0.3c0.76,0,1.41-0.18,2-0.54c0.6-0.37,1.11-0.86,1.51-1.44c0.41-0.6,0.73-1.28,0.94-2.04
					c0.21-0.76,0.32-1.54,0.32-2.31c0-1.49-0.28-3.03-0.84-4.57c-0.56-1.55-1.34-2.99-2.31-4.27c-0.97-1.27-2.11-2.33-3.39-3.13
					c-1.26-0.79-2.62-1.19-4.06-1.19h-0.6v-2.61h15.96l-2.78-3.09h-37.46l2.9,3.09h18.61v2.75l-0.34,0.12
					c-1.38,0.49-2.84,1.09-4.34,1.8c-1.5,0.7-3.01,1.5-4.51,2.38c-1.49,0.88-2.96,1.83-4.35,2.82c-1.26,0.9-2.45,1.84-3.54,2.8
					l4.1,5.54c1.88,0.25,3.6,0.76,5.12,1.51c1.58,0.78,3,1.8,4.23,3.05c1.22,1.24,2.3,2.7,3.18,4.34
					C220.08,297.22,220.82,298.99,221.41,300.89z M221.37,293.56l-0.95-1.66c-1.17-2.04-2.59-3.84-4.22-5.36
					c-1.63-1.52-3.46-2.8-5.44-3.81l-0.73-0.37l0.66-0.49c0.82-0.61,1.62-1.19,2.38-1.74c0.77-0.55,1.57-1.09,2.38-1.59
					c0.81-0.5,1.65-0.98,2.49-1.43c0.85-0.45,1.77-0.88,2.73-1.27l0.71-0.29V293.56z M211.94,282.21c1.79,0.99,3.45,2.19,4.95,3.59
					c1.28,1.19,2.44,2.55,3.45,4.06v-12.77c-0.67,0.29-1.32,0.61-1.93,0.93c-0.82,0.43-1.64,0.9-2.43,1.39
					c-0.79,0.49-1.58,1.02-2.33,1.55C213.1,281.36,212.53,281.78,211.94,282.21z"/>
			</g>
			<g>
				<path class="st2" d="M246.13,269.03v34.79c-0.14,0-0.41-0.19-0.8-0.57c-0.4-0.38-0.82-0.79-1.27-1.25
					c-0.51-0.54-1.09-1.16-1.72-1.85v-25.04c0-0.97-0.07-1.86-0.21-2.66c-0.14-0.8-0.38-1.47-0.73-2.01
					c-0.35-0.54-0.8-0.93-1.36-1.18c-0.56-0.25-1.27-0.32-2.12-0.21l-3.17-4.21c0.45,0.04,0.83,0.07,1.11,0.08
					c0.29,0.01,0.53,0.02,0.73,0.02c0.2,0,0.37-0.01,0.52-0.02c0.15-0.01,0.31-0.02,0.49-0.02c0.75,0,1.41,0.09,1.99,0.28
					c0.57,0.18,1.08,0.46,1.53,0.83c0.44,0.37,0.84,0.84,1.19,1.43c0.35,0.58,0.68,1.27,0.99,2.07c-0.06-0.43-0.13-0.93-0.21-1.49
					c-0.08-0.56-0.17-1.23-0.27-1.99c-0.1-0.77-0.2-1.66-0.31-2.69c-0.11-1.03-0.23-2.23-0.37-3.61l2.02,1.78
					c0.08,0.56,0.15,0.98,0.22,1.26c0.07,0.28,0.16,0.52,0.28,0.71c0.1,0.15,0.26,0.37,0.47,0.65c0.1,0.11,0.2,0.22,0.31,0.34
					c0.11,0.12,0.22,0.26,0.34,0.44h4.57l3.77,4.11H246.13z"/>
				<path class="st2" d="M246.64,304.34h-0.51c-0.3,0-0.61-0.19-1.15-0.71c-0.4-0.38-0.83-0.8-1.28-1.26
					c-0.52-0.55-1.1-1.17-1.74-1.86l-0.13-0.15v-25.24c0-0.94-0.07-1.8-0.2-2.57c-0.13-0.73-0.35-1.34-0.65-1.82
					c-0.29-0.46-0.67-0.78-1.14-0.99c-0.47-0.21-1.1-0.27-1.85-0.17l-0.29,0.04l-4.05-5.38l1.16,0.11c0.44,0.04,0.8,0.07,1.08,0.08
					c0.55,0.02,0.91,0.02,1.19,0c0.16-0.01,0.34-0.02,0.53-0.02c0.8,0,1.52,0.1,2.14,0.3c0.63,0.2,1.2,0.51,1.7,0.92
					c0.34,0.28,0.66,0.62,0.94,1.01c-0.02-0.17-0.05-0.35-0.07-0.54c-0.1-0.76-0.2-1.67-0.31-2.7c-0.11-1.03-0.23-2.23-0.37-3.61
					l-0.13-1.3l3.13,2.77l0.03,0.19c0.08,0.54,0.15,0.95,0.21,1.21c0.06,0.23,0.13,0.42,0.22,0.57c0.08,0.12,0.23,0.33,0.43,0.58
					l0.3,0.32c0.07,0.08,0.15,0.17,0.23,0.27h4.53l4.7,5.14h-8.62V304.34z M242.84,299.97c0.58,0.63,1.11,1.2,1.58,1.69
					c0.42,0.42,0.82,0.81,1.19,1.17v-34.31h7.33l-2.83-3.09h-4.61l-0.15-0.22c-0.1-0.15-0.2-0.28-0.3-0.38l-0.34-0.37
					c-0.23-0.29-0.39-0.52-0.5-0.68c-0.15-0.25-0.27-0.54-0.35-0.87c-0.07-0.27-0.13-0.64-0.21-1.13l-0.9-0.79
					c0.09,0.85,0.17,1.62,0.24,2.31c0.11,1.02,0.21,1.92,0.31,2.68c0.1,0.76,0.19,1.43,0.27,1.99c0.08,0.57,0.15,1.06,0.21,1.49
					l0.57,4.19l-1.56-3.93c-0.31-0.77-0.63-1.44-0.96-2c-0.31-0.53-0.67-0.96-1.07-1.29c-0.39-0.32-0.85-0.57-1.36-0.73
					c-0.52-0.17-1.14-0.25-1.83-0.25c-0.16,0-0.32,0.01-0.45,0.01c-0.31,0.02-0.7,0.02-1.3,0c0,0,0,0-0.01,0l2.32,3.08
					c0.81-0.07,1.51,0.03,2.09,0.28c0.65,0.29,1.19,0.75,1.59,1.37c0.38,0.6,0.65,1.33,0.8,2.2c0.14,0.83,0.22,1.75,0.22,2.74
					V299.97z"/>
			</g>
			<g>
				<path class="st2" d="M274.89,269.03v33.89c-0.46-0.26-0.76-0.45-0.9-0.57c-0.15-0.12-0.28-0.24-0.4-0.37
					c-0.1-0.13-0.22-0.29-0.37-0.47c-0.15-0.18-0.34-0.43-0.58-0.73c-0.3-0.54-0.6-1.13-0.9-1.78c-0.31-0.65-0.65-1.34-1.02-2.07
					c-0.38-0.71-0.78-1.44-1.22-2.17c-0.44-0.73-0.94-1.45-1.51-2.14c-0.55-0.69-1.18-1.35-1.87-1.98
					c-0.69-0.63-1.47-1.18-2.34-1.67c-0.87-0.49-1.85-0.89-2.94-1.21c-1.09-0.32-2.3-0.53-3.65-0.62l-4.27-6.38
					c2.91-2.25,5.85-4.24,8.83-5.98c2.98-1.74,6.1-3.16,9.34-4.26v-1.49h-18.32l-3.85-4.11h29.2l3.85,4.11H274.89z M262.97,299.94
					c-0.47,0-0.93-0.11-1.38-0.32c-0.44-0.22-0.84-0.51-1.19-0.87c-0.35-0.37-0.62-0.79-0.82-1.26c-0.2-0.47-0.3-0.98-0.3-1.52
					c0-0.47,0.09-0.93,0.27-1.38c0.18-0.44,0.42-0.83,0.71-1.17c0.3-0.33,0.65-0.6,1.05-0.79c0.4-0.19,0.83-0.29,1.29-0.29
					c0.47,0,0.93,0.1,1.36,0.31c0.43,0.21,0.82,0.49,1.14,0.84c0.33,0.36,0.59,0.77,0.79,1.25c0.2,0.48,0.3,0.97,0.3,1.49
					c0,0.48-0.08,0.93-0.25,1.38c-0.17,0.44-0.4,0.84-0.68,1.18c-0.29,0.35-0.63,0.63-1.02,0.84
					C263.85,299.83,263.43,299.94,262.97,299.94z M271.1,276.29c-1.98,0.76-3.81,1.64-5.51,2.64c-1.7,1-3.41,2.17-5.13,3.48
					c2.23,1.08,4.26,2.45,6.08,4.1c1.82,1.65,3.34,3.64,4.57,5.98V276.29z"/>
				<path class="st2" d="M275.4,303.8l-0.76-0.43c-0.48-0.27-0.8-0.47-0.97-0.61c-0.17-0.13-0.32-0.28-0.46-0.43l-0.03-0.03
					c-0.1-0.13-0.22-0.28-0.36-0.46c-0.15-0.18-0.34-0.43-0.58-0.73l-0.05-0.07c-0.3-0.55-0.61-1.16-0.92-1.81
					c-0.3-0.64-0.64-1.33-1.02-2.06c-0.36-0.69-0.77-1.41-1.2-2.14c-0.42-0.71-0.91-1.4-1.47-2.07c-0.54-0.67-1.15-1.32-1.82-1.92
					c-0.66-0.6-1.42-1.14-2.25-1.6c-0.83-0.47-1.79-0.86-2.83-1.17c-1.04-0.31-2.23-0.51-3.53-0.6l-0.25-0.02l-4.68-6.99l0.38-0.29
					c2.91-2.25,5.9-4.27,8.89-6.01c2.89-1.69,5.95-3.09,9.08-4.18v-0.61h-18.03l-4.81-5.14h30.6l4.81,5.14h-7.75V303.8z
					 M273.98,301.65c0.1,0.1,0.21,0.21,0.33,0.3c0.02,0.01,0.04,0.03,0.07,0.06v-33.49h6.42l-2.9-3.09h-27.8l2.9,3.09h18.61v2.37
					l-0.35,0.12c-3.19,1.08-6.3,2.5-9.25,4.22c-2.82,1.64-5.65,3.54-8.4,5.65l3.86,5.78c1.28,0.1,2.46,0.31,3.51,0.62
					c1.12,0.33,2.14,0.76,3.04,1.26c0.9,0.5,1.72,1.09,2.44,1.74c0.71,0.64,1.36,1.33,1.92,2.04c0.58,0.7,1.11,1.44,1.55,2.2
					c0.44,0.74,0.85,1.48,1.23,2.19c0.38,0.74,0.73,1.45,1.03,2.09c0.29,0.62,0.59,1.2,0.87,1.72c0.22,0.28,0.41,0.51,0.55,0.69
					C273.76,301.37,273.88,301.52,273.98,301.65z M262.97,300.45c-0.55,0-1.09-0.13-1.6-0.38c-0.5-0.24-0.95-0.57-1.33-0.98
					c-0.39-0.41-0.7-0.89-0.91-1.42c-0.22-0.53-0.34-1.11-0.34-1.72c0-0.54,0.1-1.07,0.3-1.57c0.2-0.5,0.47-0.94,0.8-1.31
					c0.34-0.38,0.75-0.69,1.21-0.92c0.96-0.46,2.11-0.45,3.09,0.01c0.49,0.23,0.93,0.56,1.3,0.96c0.36,0.4,0.66,0.87,0.88,1.4
					c0.22,0.54,0.34,1.1,0.34,1.69c0,0.53-0.1,1.06-0.29,1.56c-0.19,0.49-0.45,0.94-0.77,1.33c-0.33,0.39-0.72,0.72-1.17,0.96
					C264.02,300.32,263.51,300.45,262.97,300.45z M262.62,292.84c-0.38,0-0.73,0.08-1.07,0.24c-0.34,0.16-0.64,0.39-0.89,0.67
					c-0.26,0.29-0.46,0.63-0.62,1.02c-0.15,0.38-0.23,0.78-0.23,1.19c0,0.47,0.09,0.92,0.26,1.33c0.17,0.42,0.41,0.79,0.72,1.11
					c0.3,0.32,0.65,0.58,1.04,0.77c0.73,0.35,1.52,0.38,2.19,0.01c0.34-0.18,0.63-0.43,0.87-0.72c0.25-0.3,0.45-0.65,0.6-1.04
					c0.15-0.38,0.22-0.79,0.22-1.2c0-0.45-0.09-0.88-0.26-1.29c-0.17-0.42-0.41-0.79-0.69-1.1c-0.28-0.3-0.61-0.55-0.98-0.73
					C263.39,292.92,263.02,292.84,262.62,292.84z M271.61,294.56l-0.96-1.83c-1.19-2.27-2.69-4.23-4.46-5.84
					c-1.77-1.61-3.78-2.96-5.96-4.02l-0.75-0.36l0.66-0.5c1.73-1.33,3.47-2.51,5.18-3.52c1.71-1.01,3.6-1.91,5.59-2.68l0.69-0.27
					V294.56z M261.42,282.32c1.98,1.04,3.81,2.31,5.46,3.81c1.4,1.28,2.65,2.77,3.71,4.45v-13.54c-1.68,0.68-3.28,1.46-4.74,2.33
					C264.38,280.23,262.9,281.22,261.42,282.32z"/>
			</g>
			<g>
				<path class="st2" d="M326.8,275.35c-0.26-2.51-0.4-5.04-0.42-7.6c-0.02-2.56-0.02-5.3,0-8.21l2.28,1.85l0.27,0.49
					c0.02,0.45,0.06,0.83,0.12,1.12c0.06,0.29,0.15,0.55,0.28,0.76c0.13,0.22,0.29,0.42,0.49,0.6c0.2,0.18,0.46,0.37,0.8,0.57h1.78
					h1.3l3.71,4.11h-7.2v33.95c-0.61-0.43-1.1-0.81-1.45-1.13c-0.36-0.32-0.67-0.64-0.95-0.94c-0.28-0.3-0.55-0.61-0.82-0.92
					c-0.27-0.31-0.55-0.65-0.85-1.02c0.06-3.15,0.12-5.98,0.18-8.49c0.02-1.06,0.04-2.1,0.06-3.13c0.02-1.03,0.03-1.94,0.04-2.75
					c0.01-0.81,0.01-1.47,0.01-1.98c0-0.51,0-0.78,0-0.83c0-0.37-0.09-0.83-0.28-1.39c-0.19-0.56-0.43-1.13-0.73-1.72
					c-0.3-0.58-0.62-1.13-0.96-1.65c-0.35-0.52-0.67-0.91-0.96-1.17l-10.2,11.27l-5.19-2.07c0.34-0.41,0.6-0.72,0.8-0.92
					c0.2-0.21,0.39-0.4,0.56-0.6c0.18-0.17,0.35-0.35,0.52-0.53c0.17-0.18,0.33-0.36,0.49-0.53c0.34-0.39,0.6-0.78,0.79-1.17
					c0.19-0.39,0.28-0.8,0.28-1.23c0-0.37-0.03-0.73-0.09-1.09c-0.06-0.36-0.15-0.68-0.28-0.97c-0.13-0.29-0.3-0.52-0.5-0.7
					c-0.21-0.17-0.46-0.26-0.76-0.26c-0.28,0-0.57,0.06-0.87,0.18c-0.31,0.12-0.65,0.26-1.02,0.44c-0.18,0.09-0.36,0.17-0.53,0.24
					c-0.18,0.08-0.35,0.15-0.5,0.21c-0.18,0.06-0.36,0.12-0.53,0.16c-0.18,0.04-0.36,0.06-0.53,0.06c-0.34,0-0.66-0.1-0.98-0.29
					c-0.32-0.19-0.6-0.44-0.86-0.75c-0.26-0.3-0.46-0.64-0.61-1c-0.15-0.37-0.22-0.72-0.22-1.07c0-0.37,0.06-0.72,0.18-1.05
					c0.12-0.33,0.26-0.64,0.42-0.92c0.65-1.19,1.38-2.27,2.18-3.24c0.8-0.97,1.68-1.8,2.65-2.48c0.97-0.68,2.03-1.2,3.17-1.57
					c1.15-0.37,2.37-0.55,3.68-0.55c1.26,0,2.45,0.23,3.54,0.68c1.1,0.45,2.09,1.07,2.99,1.85c0.9,0.78,1.69,1.68,2.39,2.72
					c0.69,1.04,1.28,2.15,1.78,3.34c0.08,0.19,0.17,0.4,0.27,0.63C326.6,274.88,326.7,275.11,326.8,275.35z M310.14,273.28
					c0.53,0.04,1.05,0.22,1.56,0.53c0.5,0.31,0.94,0.71,1.32,1.2c0.38,0.49,0.68,1.03,0.92,1.62c0.24,0.59,0.36,1.19,0.36,1.8
					l6.14-6.64c-0.53-0.63-1.15-1.11-1.85-1.44c-0.7-0.33-1.44-0.5-2.21-0.5c-1.34,0-2.55,0.26-3.62,0.79
					C311.68,271.16,310.81,272.04,310.14,273.28z"/>
				<path class="st2" d="M330.72,303.97l-0.81-0.57c-0.63-0.44-1.13-0.84-1.5-1.17c-0.37-0.33-0.7-0.66-0.98-0.97
					c-0.28-0.3-0.55-0.62-0.83-0.94c-0.27-0.32-0.55-0.66-0.85-1.03l-0.12-0.14l0-0.19c0.06-3.15,0.12-5.98,0.18-8.49
					c0.02-1.06,0.04-2.1,0.06-3.12c0.02-1.02,0.03-1.94,0.04-2.75c0.01-0.81,0.01-1.46,0.01-1.97v-0.83c0-0.31-0.09-0.72-0.26-1.23
					c-0.18-0.54-0.41-1.09-0.7-1.65c-0.29-0.56-0.6-1.1-0.93-1.6c-0.18-0.27-0.36-0.51-0.52-0.7l-10.07,11.13l-6.17-2.46l0.44-0.54
					c0.34-0.42,0.62-0.74,0.83-0.95c0.19-0.2,0.38-0.4,0.55-0.59c0.19-0.19,0.36-0.36,0.52-0.53l0.49-0.53
					c0.29-0.34,0.53-0.7,0.7-1.04c0.16-0.32,0.23-0.65,0.23-1.01c0-0.34-0.03-0.67-0.08-1c-0.05-0.31-0.13-0.6-0.25-0.85
					c-0.1-0.22-0.22-0.39-0.36-0.51c-0.25-0.21-0.67-0.17-1.12,0c-0.3,0.11-0.63,0.26-0.99,0.43c-0.18,0.09-0.36,0.17-0.55,0.25
					c-0.18,0.08-0.35,0.15-0.51,0.21c-0.22,0.08-0.41,0.14-0.61,0.19c-0.64,0.16-1.3,0.08-1.9-0.29c-0.36-0.22-0.69-0.51-0.98-0.85
					c-0.29-0.34-0.52-0.73-0.69-1.14c-0.17-0.43-0.26-0.85-0.26-1.26c0-0.42,0.07-0.84,0.21-1.22c0.13-0.36,0.28-0.7,0.45-1
					c0.66-1.21,1.41-2.32,2.23-3.31c0.83-1,1.75-1.87,2.75-2.57c1-0.71,2.12-1.26,3.31-1.64c1.19-0.38,2.48-0.58,3.83-0.58
					c1.33,0,2.58,0.24,3.74,0.72c1.14,0.47,2.2,1.12,3.13,1.93c0.93,0.8,1.76,1.75,2.48,2.82c0.42,0.63,0.81,1.29,1.16,1.98
					c-0.1-1.53-0.15-3.08-0.17-4.62c-0.02-2.55-0.02-5.32,0-8.22l0.01-1.06l3.19,2.58l0.37,0.68l0.01,0.12
					c0.02,0.42,0.05,0.77,0.11,1.04c0.05,0.24,0.12,0.44,0.22,0.6c0.1,0.18,0.24,0.34,0.4,0.49c0.15,0.14,0.35,0.28,0.59,0.43h3.17
					l4.63,5.14h-7.84V303.97z M326.66,298.79c0.25,0.31,0.49,0.6,0.72,0.87c0.26,0.31,0.53,0.61,0.8,0.91
					c0.26,0.29,0.57,0.59,0.92,0.91c0.17,0.15,0.37,0.32,0.6,0.5v-33.45h6.57l-2.78-3.09h-2.99l-0.12-0.07
					c-0.37-0.22-0.67-0.42-0.89-0.64c-0.23-0.21-0.43-0.45-0.58-0.71c-0.16-0.26-0.27-0.57-0.34-0.92c-0.06-0.29-0.1-0.65-0.12-1.08
					l-0.16-0.29l-1.38-1.11c-0.01,2.51-0.01,4.91,0.01,7.14c0.02,2.53,0.16,5.07,0.41,7.55l0.35,3.44l-1.33-3.19
					c-0.1-0.24-0.2-0.46-0.29-0.69c-0.1-0.23-0.19-0.45-0.27-0.64c-0.48-1.15-1.06-2.24-1.73-3.24c-0.66-0.99-1.44-1.87-2.3-2.62
					c-0.85-0.74-1.82-1.33-2.86-1.76c-1.03-0.43-2.16-0.64-3.35-0.64c-1.25,0-2.43,0.18-3.52,0.53c-1.09,0.35-2.11,0.86-3.03,1.5
					c-0.93,0.65-1.79,1.45-2.55,2.39c-0.78,0.94-1.49,2.01-2.13,3.16c-0.15,0.26-0.27,0.54-0.38,0.85c-0.1,0.28-0.15,0.58-0.15,0.88
					c0,0.28,0.06,0.57,0.19,0.88c0.13,0.31,0.3,0.61,0.52,0.86c0.22,0.26,0.47,0.47,0.74,0.64c0.37,0.23,0.75,0.26,1.12,0.17
					c0.16-0.04,0.32-0.09,0.48-0.15c0.14-0.06,0.3-0.13,0.48-0.2c0.17-0.07,0.34-0.15,0.51-0.23c0.39-0.18,0.75-0.33,1.06-0.45
					c0.82-0.32,1.6-0.29,2.14,0.16c0.27,0.22,0.48,0.52,0.64,0.88c0.15,0.33,0.25,0.7,0.32,1.09c0.06,0.38,0.1,0.78,0.1,1.17
					c0,0.51-0.11,1-0.33,1.45c-0.21,0.43-0.5,0.86-0.86,1.28l-0.5,0.55c-0.18,0.19-0.36,0.38-0.54,0.56
					c-0.16,0.18-0.35,0.38-0.55,0.59c-0.09,0.09-0.2,0.21-0.32,0.36l4.2,1.68l10.3-11.38l0.38,0.33c0.33,0.29,0.68,0.71,1.05,1.27
					c0.36,0.53,0.69,1.11,0.99,1.7c0.31,0.6,0.56,1.2,0.76,1.79c0.21,0.62,0.31,1.13,0.31,1.56v0.83c0,0.51-0.01,1.17-0.01,1.98
					c-0.01,0.81-0.02,1.73-0.04,2.76c-0.02,1.03-0.04,2.07-0.06,3.13C326.78,292.95,326.72,295.71,326.66,298.79z M313.78,279.73
					v-1.31c0-0.54-0.11-1.08-0.32-1.61c-0.22-0.55-0.5-1.05-0.85-1.5c-0.34-0.43-0.73-0.8-1.18-1.08c-0.43-0.27-0.88-0.42-1.33-0.46
					l-0.78-0.06l0.38-0.69c0.72-1.32,1.67-2.28,2.83-2.85c1.13-0.56,2.43-0.85,3.84-0.85c0.84,0,1.66,0.19,2.43,0.55
					c0.76,0.37,1.44,0.89,2.02,1.57l0.29,0.35L313.78,279.73z M310.96,272.91c0.34,0.1,0.68,0.26,1.01,0.46
					c0.55,0.34,1.04,0.79,1.45,1.32c0.4,0.52,0.74,1.11,0.99,1.74c0.11,0.27,0.2,0.55,0.26,0.83l5.06-5.48
					c-0.41-0.41-0.87-0.74-1.38-0.98c-0.63-0.3-1.3-0.45-1.99-0.45c-1.26,0-2.4,0.25-3.39,0.74
					C312.19,271.48,311.51,272.09,310.96,272.91z"/>
			</g>
			<g>
				<path class="st2" d="M340.8,262.29c0,0.06,0.05,0.22,0.15,0.47c0.1,0.25,0.22,0.52,0.36,0.83c0.1,0.24,0.2,0.48,0.3,0.71
					c0.1,0.24,0.18,0.44,0.24,0.62h5.57l3.77,4.11h-8.18v34.15c-0.28-0.28-0.54-0.55-0.8-0.81c-0.22-0.24-0.45-0.48-0.7-0.73
					c-0.25-0.25-0.47-0.48-0.67-0.7c-0.2-0.22-0.39-0.42-0.56-0.6c-0.18-0.18-0.34-0.36-0.47-0.53c-0.18-0.19-0.3-0.31-0.36-0.36
					c-0.02-0.04-0.04-0.08-0.06-0.1c-0.02-0.02-0.04-0.05-0.06-0.1c-0.04-0.04-0.06-0.08-0.06-0.1c-0.06-0.15-0.07-0.27-0.03-0.36
					v-29.77h-4.24l-3.79-4.11h7.8c-0.22-0.24-0.43-0.47-0.65-0.71c-0.22-0.24-0.44-0.47-0.65-0.71c-0.34-0.41-0.63-0.85-0.87-1.31
					c-0.25-0.46-0.37-0.97-0.37-1.51c0-0.97,0.18-1.93,0.55-2.87c0.37-0.94,0.86-1.82,1.48-2.64c0.62-0.82,1.34-1.57,2.15-2.25
					c0.81-0.68,1.66-1.27,2.55-1.77c0.89-0.5,1.79-0.88,2.7-1.15c0.91-0.27,1.76-0.41,2.55-0.41c1.78,0,3.5,0.26,5.17,0.78
					c1.67,0.52,3.27,1.22,4.8,2.11c1.53,0.89,2.98,1.92,4.36,3.11c1.37,1.19,2.67,2.45,3.9,3.79l1.1,3.56
					c-2.63-2.35-5.03-4.17-7.19-5.46c-2.16-1.28-4.12-2.18-5.87-2.69c-1.75-0.51-3.31-0.69-4.68-0.53c-1.37,0.15-2.57,0.49-3.6,1
					c-1.03,0.52-1.9,1.16-2.61,1.93c-0.71,0.77-1.29,1.51-1.73,2.22c-0.44,0.71-0.77,1.34-0.96,1.9
					C340.9,261.86,340.8,262.19,340.8,262.29z"/>
				<path class="st2" d="M343.51,304.42l-1.67-1.7c-0.23-0.25-0.45-0.48-0.7-0.73c-0.25-0.25-0.48-0.49-0.68-0.71
					c-0.19-0.21-0.38-0.41-0.55-0.59c-0.19-0.19-0.35-0.38-0.5-0.56c-0.2-0.22-0.27-0.27-0.27-0.28l-0.09-0.08l-0.06-0.11
					c-0.03-0.04-0.06-0.08-0.09-0.13c-0.04-0.06-0.1-0.14-0.12-0.24c-0.08-0.21-0.09-0.4-0.05-0.58v-29.18h-3.95l-4.74-5.14h7.8
					l-0.52-0.57c-0.37-0.45-0.69-0.92-0.95-1.42c-0.29-0.54-0.43-1.12-0.43-1.75c0-1.03,0.2-2.06,0.58-3.05
					c0.38-0.98,0.9-1.91,1.55-2.76c0.64-0.85,1.39-1.63,2.23-2.33c0.83-0.7,1.71-1.31,2.63-1.82c0.92-0.51,1.86-0.91,2.8-1.19
					c0.95-0.28,1.86-0.43,2.7-0.43c1.82,0,3.61,0.27,5.32,0.8c1.7,0.53,3.35,1.25,4.91,2.15c1.55,0.9,3.04,1.96,4.44,3.17
					c1.38,1.19,2.71,2.48,3.94,3.83l0.08,0.08l1.67,5.43l-1.37-1.23c-2.59-2.32-4.98-4.14-7.11-5.4c-2.12-1.26-4.05-2.14-5.75-2.64
					c-1.68-0.49-3.19-0.66-4.49-0.52c-1.31,0.14-2.46,0.46-3.43,0.95c-0.97,0.49-1.8,1.1-2.46,1.82c-0.69,0.74-1.25,1.46-1.67,2.14
					c-0.42,0.68-0.73,1.28-0.92,1.8c-0.19,0.52-0.24,0.73-0.26,0.8c0.01,0.04,0.04,0.13,0.11,0.29c0.1,0.24,0.21,0.51,0.35,0.8
					l0.3,0.73c0.04,0.11,0.08,0.21,0.12,0.3h5.44l4.7,5.14h-8.83V304.42z M339.84,299.12c0.07,0.06,0.17,0.16,0.33,0.34l0.02,0.03
					c0.13,0.16,0.27,0.33,0.44,0.5c0.18,0.19,0.37,0.39,0.57,0.61c0.19,0.21,0.41,0.44,0.65,0.68c0.22,0.22,0.43,0.44,0.62,0.65
					v-33.41h7.53l-2.83-3.09h-5.71l-0.12-0.35c-0.06-0.16-0.13-0.36-0.23-0.59l-0.3-0.71c-0.13-0.29-0.26-0.58-0.36-0.83
					c-0.15-0.38-0.18-0.54-0.18-0.66c0-0.13,0.03-0.32,0.33-1.16c0.21-0.58,0.55-1.25,1.01-1.99c0.46-0.74,1.06-1.51,1.79-2.3
					c0.75-0.81,1.68-1.49,2.75-2.04c1.08-0.54,2.35-0.9,3.78-1.06c1.43-0.16,3.08,0.03,4.88,0.55c1.78,0.52,3.8,1.44,5.99,2.74
					c1.8,1.07,3.79,2.52,5.91,4.33l-0.53-1.74c-1.18-1.29-2.46-2.52-3.78-3.66c-1.34-1.16-2.78-2.19-4.28-3.05
					c-1.49-0.86-3.07-1.56-4.7-2.06c-1.61-0.5-3.3-0.75-5.02-0.75c-0.74,0-1.55,0.13-2.4,0.38c-0.87,0.26-1.74,0.63-2.59,1.11
					c-0.86,0.48-1.69,1.06-2.47,1.71c-0.78,0.65-1.47,1.38-2.07,2.17c-0.59,0.78-1.07,1.63-1.41,2.52
					c-0.34,0.88-0.51,1.78-0.51,2.68c0,0.46,0.1,0.87,0.31,1.27c0.23,0.43,0.51,0.85,0.82,1.23l2.07,2.26h-7.79l2.85,3.09h4.53
					l0,30.45l0.04,0.07C339.8,299.07,339.82,299.09,339.84,299.12z M339.75,299c0,0,0.01,0.01,0.01,0.02
					C339.76,299.02,339.76,299.01,339.75,299z M339.69,298.91L339.69,298.91C339.69,298.91,339.69,298.91,339.69,298.91z"/>
			</g>
			<g>
				<path class="st2" d="M370.93,269.03v33.89c-0.46-0.26-0.76-0.45-0.9-0.57c-0.15-0.12-0.28-0.24-0.4-0.37
					c-0.1-0.13-0.22-0.29-0.37-0.47c-0.15-0.18-0.34-0.43-0.58-0.73c-0.3-0.54-0.6-1.13-0.9-1.78c-0.31-0.65-0.65-1.34-1.02-2.07
					c-0.38-0.71-0.78-1.44-1.22-2.17c-0.44-0.73-0.94-1.45-1.51-2.14c-0.55-0.69-1.18-1.35-1.87-1.98
					c-0.69-0.63-1.47-1.18-2.34-1.67c-0.87-0.49-1.85-0.89-2.94-1.21c-1.09-0.32-2.3-0.53-3.65-0.62l-4.27-6.38
					c2.91-2.25,5.85-4.24,8.83-5.98c2.98-1.74,6.1-3.16,9.34-4.26v-1.49h-18.32l-3.85-4.11h29.2l3.85,4.11H370.93z M359.01,299.94
					c-0.47,0-0.93-0.11-1.38-0.32c-0.44-0.22-0.84-0.51-1.19-0.87c-0.35-0.37-0.62-0.79-0.82-1.26c-0.2-0.47-0.3-0.98-0.3-1.52
					c0-0.47,0.09-0.93,0.27-1.38c0.18-0.44,0.42-0.83,0.71-1.17c0.3-0.33,0.65-0.6,1.05-0.79c0.4-0.19,0.83-0.29,1.29-0.29
					c0.47,0,0.93,0.1,1.36,0.31c0.43,0.21,0.82,0.49,1.14,0.84c0.33,0.36,0.59,0.77,0.79,1.25c0.2,0.48,0.3,0.97,0.3,1.49
					c0,0.48-0.08,0.93-0.25,1.38c-0.17,0.44-0.4,0.84-0.68,1.18c-0.29,0.35-0.63,0.63-1.02,0.84
					C359.89,299.83,359.47,299.94,359.01,299.94z M367.13,276.29c-1.98,0.76-3.81,1.64-5.51,2.64c-1.7,1-3.41,2.17-5.13,3.48
					c2.23,1.08,4.26,2.45,6.08,4.1c1.82,1.65,3.34,3.64,4.57,5.98V276.29z"/>
				<path class="st2" d="M371.44,303.8l-0.76-0.44c-0.48-0.27-0.8-0.47-0.97-0.61c-0.17-0.13-0.32-0.28-0.46-0.43l-0.03-0.03
					c-0.1-0.13-0.22-0.28-0.36-0.46c-0.15-0.18-0.34-0.43-0.58-0.73l-0.05-0.07c-0.3-0.55-0.61-1.15-0.92-1.81
					c-0.3-0.64-0.64-1.33-1.02-2.06c-0.36-0.69-0.77-1.41-1.2-2.14c-0.42-0.71-0.91-1.4-1.47-2.07c-0.54-0.67-1.15-1.32-1.82-1.92
					c-0.66-0.6-1.42-1.14-2.25-1.6c-0.83-0.47-1.79-0.86-2.83-1.17c-1.04-0.31-2.23-0.51-3.53-0.6l-0.25-0.02l-4.67-6.99l0.38-0.29
					c2.91-2.25,5.9-4.27,8.89-6.01c2.89-1.69,5.95-3.09,9.08-4.18v-0.61h-18.03l-4.81-5.14h30.6l4.81,5.14h-7.75V303.8z
					 M370.02,301.65c0.1,0.11,0.21,0.21,0.33,0.3c0.02,0.01,0.04,0.03,0.07,0.06v-33.49h6.42l-2.9-3.09h-27.8l2.9,3.09h18.61v2.37
					l-0.35,0.12c-3.19,1.08-6.3,2.5-9.25,4.22c-2.82,1.64-5.65,3.54-8.4,5.65l3.86,5.78c1.28,0.1,2.46,0.31,3.51,0.62
					c1.12,0.33,2.14,0.76,3.04,1.26c0.9,0.5,1.72,1.09,2.44,1.74c0.71,0.64,1.36,1.33,1.92,2.04c0.58,0.7,1.11,1.44,1.55,2.2
					c0.44,0.74,0.85,1.48,1.23,2.19c0.38,0.74,0.73,1.45,1.03,2.09c0.29,0.62,0.59,1.2,0.87,1.72c0.22,0.28,0.41,0.51,0.55,0.69
					C369.8,301.37,369.92,301.52,370.02,301.65z M359.01,300.45c-0.55,0-1.09-0.13-1.6-0.38c-0.5-0.24-0.95-0.57-1.33-0.98
					c-0.39-0.41-0.7-0.89-0.92-1.42c-0.22-0.53-0.34-1.11-0.34-1.72c0-0.54,0.1-1.07,0.3-1.57c0.2-0.5,0.47-0.94,0.8-1.31
					c0.34-0.38,0.75-0.69,1.21-0.92c0.96-0.46,2.1-0.45,3.09,0.01c0.49,0.23,0.93,0.56,1.3,0.96c0.36,0.4,0.66,0.87,0.88,1.4
					c0.22,0.54,0.34,1.1,0.34,1.69c0,0.53-0.1,1.06-0.29,1.56c-0.19,0.49-0.45,0.94-0.77,1.33c-0.33,0.39-0.72,0.72-1.17,0.96
					C360.06,300.32,359.55,300.45,359.01,300.45z M358.66,292.84c-0.38,0-0.73,0.08-1.07,0.24c-0.34,0.16-0.64,0.39-0.89,0.67
					c-0.26,0.29-0.46,0.63-0.62,1.02c-0.15,0.38-0.23,0.78-0.23,1.19c0,0.47,0.09,0.92,0.26,1.33c0.17,0.42,0.41,0.79,0.72,1.11
					c0.3,0.32,0.65,0.58,1.04,0.77c0.72,0.35,1.52,0.37,2.19,0.01c0.34-0.18,0.63-0.43,0.87-0.72c0.25-0.3,0.45-0.65,0.6-1.04
					c0.15-0.38,0.22-0.78,0.22-1.2c0-0.45-0.09-0.88-0.26-1.29c-0.17-0.42-0.41-0.79-0.69-1.1c-0.28-0.3-0.61-0.55-0.98-0.73
					C359.43,292.92,359.06,292.84,358.66,292.84z M367.65,294.56l-0.96-1.83c-1.19-2.27-2.69-4.23-4.46-5.84
					c-1.77-1.61-3.78-2.96-5.96-4.02l-0.75-0.36l0.66-0.5c1.73-1.33,3.47-2.51,5.18-3.52c1.71-1.01,3.6-1.91,5.59-2.68l0.69-0.27
					V294.56z M357.46,282.32c1.98,1.04,3.81,2.31,5.46,3.81c1.4,1.28,2.65,2.77,3.71,4.45v-13.54c-1.68,0.68-3.28,1.46-4.74,2.33
					C360.42,280.23,358.94,281.22,357.46,282.32z"/>
			</g>
			<g>
				<path class="st2" d="M399.59,269.03v34.15c-0.55-0.56-0.96-0.99-1.23-1.28c-0.27-0.29-0.51-0.57-0.73-0.83
					c-0.12-0.17-0.23-0.36-0.33-0.57c-0.1-0.21-0.2-0.42-0.3-0.63c-0.08-0.19-0.16-0.39-0.24-0.58c-0.08-0.19-0.17-0.38-0.27-0.55
					c-0.63-1.17-1.35-2.27-2.15-3.32c-0.8-1.05-1.69-2-2.68-2.87c-1.29-1.12-2.68-2.02-4.18-2.69c-1.5-0.67-3.12-1.03-4.86-1.07
					l-4.39-6.22c1.54-1.55,3.05-3.01,4.52-4.37c1.47-1.36,2.97-2.69,4.49-3.98c-0.46-0.26-0.88-0.44-1.29-0.55
					c-0.41-0.11-0.81-0.18-1.2-0.23c-0.49-0.04-1-0.05-1.51-0.03c-0.51,0.02-1.09,0.03-1.72,0.03c-1.05,0-1.83-0.11-2.36-0.34
					c-0.52-0.23-0.94-0.58-1.26-1.05c-0.08-0.11-0.15-0.22-0.21-0.32c-0.06-0.11-0.13-0.23-0.21-0.36
					c-0.06-0.11-0.11-0.23-0.16-0.36c-0.05-0.13-0.11-0.26-0.19-0.39c-0.12-0.26-0.26-0.52-0.42-0.79
					c-0.16-0.27-0.35-0.56-0.56-0.86c-0.22-0.3-0.45-0.59-0.7-0.86c-0.25-0.27-0.5-0.55-0.76-0.83c-0.28-0.3-0.57-0.62-0.87-0.94
					c-0.31-0.32-0.74-0.8-1.29-1.43h30.39l3.71,4.11H399.59z M395.79,269.03h-10.26c0.59,0.5,1.14,0.96,1.63,1.38
					c0.49,0.42,0.97,0.85,1.44,1.3c0.46,0.44,0.94,0.91,1.42,1.41c0.48,0.5,1.02,1.05,1.62,1.65c0.34,0.37,0.7,0.72,1.08,1.05
					c0.39,0.34,0.8,0.66,1.23,0.99c0.32,0.26,0.63,0.51,0.93,0.76c0.31,0.25,0.61,0.5,0.9,0.76V269.03z M395.79,282.86
					c-0.75-0.73-1.5-1.46-2.25-2.19c-0.75-0.72-1.52-1.41-2.31-2.06c-0.49,0.35-0.98,0.73-1.47,1.17c-0.48,0.43-0.95,0.9-1.41,1.39
					c-0.42,0.45-0.83,0.91-1.23,1.38c-0.41,0.46-0.8,0.92-1.17,1.38c0.83,0.39,1.69,0.91,2.59,1.55c0.9,0.65,1.79,1.36,2.67,2.12
					c0.88,0.77,1.71,1.58,2.51,2.43c0.79,0.85,1.48,1.68,2.08,2.48V282.86z"/>
				<path class="st2" d="M400.1,304.42l-0.88-0.89c-0.57-0.58-0.97-1-1.24-1.29c-0.27-0.3-0.52-0.58-0.74-0.84l-0.03-0.04
					c-0.13-0.2-0.26-0.41-0.37-0.64c-0.1-0.21-0.2-0.42-0.3-0.64l-0.25-0.6c-0.07-0.17-0.15-0.34-0.24-0.49
					c-0.62-1.15-1.33-2.24-2.11-3.26c-0.77-1.01-1.65-1.95-2.61-2.79c-1.24-1.08-2.6-1.96-4.05-2.61c-1.43-0.64-3-0.98-4.67-1.03
					l-0.26-0.01l-4.78-6.78l0.3-0.3c1.54-1.55,3.07-3.03,4.54-4.39c1.28-1.18,2.6-2.36,3.92-3.49c-0.17-0.07-0.34-0.13-0.5-0.17
					c-0.38-0.1-0.75-0.17-1.12-0.21c-0.46-0.04-0.94-0.05-1.43-0.03c-0.51,0.02-1.1,0.03-1.74,0.03c-1.13,0-1.97-0.12-2.56-0.38
					c-0.61-0.27-1.11-0.68-1.48-1.24c-0.08-0.11-0.16-0.23-0.23-0.36c-0.06-0.1-0.12-0.21-0.2-0.34c-0.08-0.15-0.15-0.29-0.2-0.44
					c-0.04-0.1-0.09-0.2-0.15-0.3l-0.03-0.05c-0.11-0.24-0.24-0.49-0.39-0.75c-0.15-0.25-0.33-0.53-0.54-0.82
					c-0.21-0.29-0.43-0.56-0.66-0.81l-0.76-0.83c-0.27-0.3-0.56-0.61-0.87-0.93c-0.31-0.33-0.75-0.82-1.3-1.44l-0.75-0.85h31.75
					l4.63,5.14h-7.69V304.42z M398.04,300.76c0.21,0.24,0.44,0.51,0.7,0.79c0.1,0.1,0.21,0.23,0.34,0.37v-33.4h6.42l-2.79-3.09
					h-29.02c0.2,0.22,0.37,0.41,0.52,0.56c0.31,0.33,0.6,0.64,0.88,0.95l0.76,0.83c0.26,0.28,0.51,0.59,0.73,0.9
					c0.23,0.32,0.42,0.62,0.59,0.9c0.16,0.28,0.31,0.55,0.43,0.81c0.09,0.15,0.16,0.3,0.22,0.45c0.04,0.11,0.08,0.21,0.13,0.29
					c0.07,0.12,0.15,0.24,0.21,0.36c0.05,0.09,0.11,0.18,0.17,0.27c0.28,0.41,0.62,0.7,1.05,0.89c0.46,0.2,1.18,0.3,2.15,0.3
					c0.63,0,1.2-0.01,1.7-0.03c0.53-0.02,1.06-0.01,1.58,0.03c0.43,0.05,0.86,0.13,1.29,0.24c0.45,0.12,0.92,0.32,1.41,0.6
					l0.63,0.36l-0.56,0.47c-1.51,1.28-3.02,2.62-4.48,3.97c-1.36,1.26-2.77,2.62-4.2,4.05l3.99,5.66c1.7,0.07,3.32,0.44,4.8,1.1
					c1.54,0.69,2.99,1.62,4.31,2.77c1.01,0.88,1.94,1.87,2.75,2.94c0.81,1.06,1.55,2.2,2.19,3.39c0.1,0.18,0.2,0.39,0.29,0.6
					l0.24,0.58c0.09,0.19,0.19,0.4,0.28,0.6C397.85,300.45,397.94,300.62,398.04,300.76z M396.31,294.07l-0.92-1.24
					c-0.58-0.78-1.26-1.6-2.04-2.44c-0.77-0.84-1.6-1.64-2.47-2.39c-0.87-0.75-1.75-1.46-2.63-2.09c-0.87-0.63-1.72-1.13-2.51-1.51
					l-0.6-0.28l0.42-0.51c0.37-0.45,0.77-0.91,1.18-1.39c0.41-0.47,0.82-0.93,1.24-1.39c0.47-0.51,0.95-0.99,1.44-1.43
					c0.5-0.44,1.01-0.85,1.52-1.2l0.32-0.22l0.3,0.25c0.8,0.65,1.58,1.35,2.34,2.08c0.75,0.72,1.5,1.45,2.26,2.19l0.15,0.15V294.07z
					 M386.76,283.77c0.67,0.36,1.37,0.8,2.09,1.31c0.91,0.65,1.82,1.38,2.71,2.15c0.89,0.78,1.75,1.61,2.54,2.47
					c0.42,0.46,0.82,0.91,1.19,1.35v-7.96c-0.7-0.68-1.4-1.36-2.1-2.03c-0.64-0.62-1.31-1.22-1.98-1.78
					c-0.37,0.28-0.74,0.58-1.11,0.9c-0.47,0.42-0.93,0.87-1.37,1.36c-0.41,0.45-0.82,0.91-1.22,1.37
					C387.25,283.19,387,283.48,386.76,283.77z M396.31,279.46l-0.85-0.74c-0.29-0.25-0.59-0.5-0.89-0.75
					c-0.31-0.25-0.62-0.5-0.94-0.76c-0.42-0.32-0.85-0.66-1.24-1c-0.4-0.35-0.78-0.71-1.12-1.09c-0.58-0.59-1.12-1.14-1.6-1.64
					c-0.48-0.49-0.95-0.96-1.41-1.4c-0.46-0.44-0.93-0.86-1.42-1.28c-0.49-0.42-1.04-0.88-1.63-1.37l-1.08-0.9h12.17V279.46z
					 M386.94,269.54c0.19,0.16,0.38,0.32,0.56,0.48c0.5,0.42,0.99,0.87,1.46,1.31c0.47,0.44,0.95,0.92,1.44,1.42
					c0.48,0.5,1.02,1.05,1.61,1.65c0.33,0.36,0.68,0.7,1.05,1.02c0.37,0.32,0.78,0.65,1.2,0.96c0.33,0.27,0.64,0.53,0.95,0.77
					c0.02,0.02,0.05,0.04,0.07,0.06v-7.69H386.94z"/>
			</g>
			<g>
				<path class="st2" d="M412.31,269.03v12.8c1.23-0.97,2.3-1.87,3.22-2.7c0.92-0.83,1.83-1.62,2.74-2.38c0.49-0.41,1-0.8,1.53-1.18
					c0.52-0.38,1.09-0.76,1.7-1.13c0.61-0.38,1.27-0.75,1.99-1.12c0.71-0.37,1.5-0.73,2.37-1.1l5.69,4.67
					c-1.21,2.55-2.2,5.13-2.99,7.76c-0.79,2.62-1.19,5.3-1.19,8.02c0,1.68,0.12,3.39,0.37,5.12c0.25,1.73,0.53,3.61,0.84,5.64
					l-2.88-1.52c-0.47-2.38-0.89-4.69-1.26-6.93c-0.37-2.25-0.55-4.56-0.55-6.93c0-1.36,0.06-2.71,0.18-4.05
					c0.12-1.34,0.32-2.68,0.59-4.02c-1.27,0.56-2.48,1.26-3.63,2.11c-1.16,0.84-2.23,1.81-3.22,2.92c-0.99,1.1-1.88,2.32-2.68,3.66
					c-0.8,1.34-1.48,2.76-2.03,4.28l-4.57-5.15v-18.72h-3.94l-3.85-4.11h33.15l3.85,4.11H412.31z"/>
				<path class="st2" d="M429.25,304.33l-3.99-2.11l-0.05-0.24c-0.47-2.37-0.9-4.71-1.26-6.95c-0.37-2.26-0.56-4.62-0.56-7.01
					c0-1.37,0.06-2.75,0.18-4.09c0.09-1.02,0.23-2.05,0.41-3.08c-0.91,0.46-1.79,1.01-2.64,1.62c-1.12,0.82-2.18,1.77-3.14,2.84
					c-0.96,1.07-1.84,2.28-2.63,3.58c-0.78,1.31-1.45,2.72-1.99,4.19l-0.29,0.8l-5.26-5.94v-18.41h-3.65l-4.81-5.14h34.55l4.81,5.14
					h-26.11v11.22c0.88-0.71,1.67-1.39,2.36-2.02c0.92-0.83,1.85-1.64,2.76-2.4c0.5-0.42,1.02-0.82,1.55-1.2
					c0.53-0.38,1.12-0.77,1.74-1.15c0.62-0.38,1.3-0.76,2.02-1.14c0.72-0.37,1.53-0.75,2.41-1.12l0.28-0.12l6.24,5.11l-0.17,0.36
					c-1.19,2.51-2.19,5.1-2.97,7.69c-0.77,2.56-1.16,5.21-1.16,7.87c0,1.66,0.12,3.35,0.37,5.05c0.25,1.72,0.53,3.61,0.84,5.63
					L429.25,304.33z M426.17,301.54l1.76,0.93c-0.25-1.65-0.49-3.2-0.69-4.64c-0.25-1.74-0.38-3.49-0.38-5.19
					c0-2.76,0.41-5.51,1.21-8.17c0.76-2.51,1.72-5.02,2.85-7.47l-5.14-4.22c-0.75,0.32-1.44,0.65-2.05,0.96
					c-0.7,0.36-1.36,0.73-1.95,1.1c-0.6,0.37-1.16,0.74-1.67,1.11c-0.51,0.37-1.02,0.76-1.5,1.16c-0.9,0.75-1.82,1.54-2.73,2.37
					c-0.92,0.83-2.01,1.75-3.24,2.73l-0.83,0.66v-14.37h24.77l-2.9-3.09h-31.74l2.9,3.09h4.23v19.04l3.88,4.38
					c0.5-1.25,1.09-2.44,1.77-3.57c0.81-1.36,1.74-2.62,2.74-3.74c1.01-1.12,2.12-2.13,3.3-2.99c1.18-0.86,2.43-1.59,3.73-2.16
					l0.91-0.4l-0.2,0.98c-0.27,1.31-0.47,2.64-0.58,3.96c-0.12,1.32-0.18,2.67-0.18,4c0,2.34,0.18,4.64,0.54,6.85
					C425.31,297.02,425.72,299.26,426.17,301.54z"/>
			</g>
		</g>
	</g>
</g>
</svg>
