<?xml version="1.0" encoding="utf-8"?>
<!-- Generator: Adobe Illustrator 27.3.1, SVG Export Plug-In . SVG Version: 6.00 Build 0)  -->
<svg version="1.1" id="Layer_1" xmlns="http://www.w3.org/2000/svg" xmlns:xlink="http://www.w3.org/1999/xlink" x="0px" y="0px"
	 viewBox="0 0 500 334.25" style="enable-background:new 0 0 500 334.25;" xml:space="preserve">
<style type="text/css">
	.st0{fill:none;}
	.st1{fill:#1B365D;}
	.st2{fill:#D72638;}
	.st3{fill:none;stroke:#1B365D;stroke-width:1.5;stroke-miterlimit:10;}
</style>
<rect class="st0" width="500" height="334.25"/>
<rect class="st0" width="500" height="334.25"/>
<g>
	<g>
		<g>
			<path class="st1" d="M66.6,95.44h28.4l51.46,85.33V95.44h25.24v122.37h-27.08l-52.77-86.83v86.83H66.6V95.44z"/>
			<path class="st1" d="M199.44,95.44h27.53v75.16c0,8.41,1.05,14.55,3.16,18.42c3.27,6.86,10.4,10.29,21.38,10.29
				c10.92,0,18.02-3.43,21.29-10.29c2.1-3.87,3.15-10.01,3.15-18.42V95.44h27.52v75.22c0,13-2.14,23.13-6.41,30.38
				c-7.96,13.28-23.15,19.93-45.57,19.93c-22.42,0-37.64-6.64-45.65-19.93c-4.27-7.25-6.41-17.38-6.41-30.38V95.44z"/>
			<path class="st1" d="M411.76,98.6c4.78,1.94,8.82,4.79,12.14,8.55c2.74,3.1,4.92,6.53,6.52,10.3c1.6,3.76,2.4,8.05,2.4,12.87
				c0,5.81-1.55,11.53-4.66,17.14c-3.11,5.62-8.24,9.59-15.39,11.91c5.98,2.27,10.21,5.49,12.71,9.67
				c2.49,4.18,3.74,10.56,3.74,19.14v8.22c0,5.59,0.24,9.38,0.71,11.37c0.71,3.16,2.38,5.48,5,6.97v3.07h-29.9
				c-0.82-2.71-1.41-4.9-1.76-6.56c-0.7-3.43-1.08-6.95-1.14-10.54l-0.18-11.37c-0.11-7.8-1.54-13.01-4.29-15.61
				c-2.74-2.6-7.89-3.9-15.43-3.9h-26.45v47.98h-26.47V95.44h62C400.17,95.61,406.99,96.66,411.76,98.6z M355.78,116.69v32.88h29.15
				c5.79,0,10.13-0.66,13.03-1.99c5.13-2.33,7.69-6.92,7.69-13.78c0-7.42-2.48-12.4-7.43-14.94c-2.78-1.44-6.96-2.16-12.53-2.16
				H355.78z"/>
		</g>
		<g>
			<path class="st2" d="M65.19,273.23l4.68-0.64V238l-4.37-0.71v-3.41h6.88c0.87,0,1.65,0,2.33,0c0.68,0,1.37,0,2.09,0
				s1.49,0,2.34,0c0.84,0,1.87,0,3.08,0c3.03,0,5.55,0.27,7.58,0.81c2.02,0.54,3.65,1.32,4.87,2.34c1.22,1.02,2.09,2.28,2.6,3.77
				c0.51,1.49,0.77,3.18,0.77,5.08c0,2.32-0.41,4.38-1.24,6.19s-1.97,3.34-3.44,4.59c-1.47,1.25-3.21,2.2-5.24,2.86
				c-2.02,0.66-4.23,0.99-6.63,0.99c-0.52,0-1.05,0-1.6,0c-0.55,0-1.06,0-1.53,0c-0.47,0-0.88-0.02-1.23-0.04
				c-0.34-0.03-0.58-0.06-0.71-0.1v12.23l7.52,0.64v3.04H65.19V273.23z M76.39,257.03c0.52,0.13,1.17,0.19,1.95,0.19s1.83,0,3.15,0
				c1.22,0,2.41-0.18,3.56-0.54c1.15-0.36,2.17-0.98,3.05-1.86c0.88-0.88,1.59-2.05,2.12-3.52c0.53-1.47,0.8-3.32,0.8-5.55
				c0-1.62-0.2-3-0.6-4.14c-0.4-1.13-1-2.06-1.79-2.78c-0.8-0.72-1.8-1.25-3.01-1.58c-1.21-0.33-2.62-0.5-4.23-0.5
				c-0.65,0-1.21,0.02-1.69,0.05c-0.47,0.04-0.9,0.08-1.28,0.11c-0.38,0.04-0.73,0.08-1.04,0.13c-0.32,0.04-0.64,0.07-0.98,0.07
				V257.03z"/>
			<path class="st2" d="M122.14,276.3c-3.03,0-5.69-0.5-7.98-1.51c-2.29-1-4.22-2.43-5.77-4.28c-1.55-1.85-2.71-4.08-3.49-6.67
				c-0.78-2.59-1.17-5.45-1.17-8.58c0-3.27,0.49-6.23,1.46-8.86c0.98-2.63,2.33-4.88,4.05-6.74s3.77-3.3,6.11-4.3
				c2.35-1,4.9-1.51,7.64-1.51c3.03,0,5.68,0.49,7.97,1.48c2.28,0.99,4.19,2.39,5.71,4.19c1.52,1.81,2.66,3.99,3.43,6.55
				s1.14,5.4,1.14,8.52c0,3.28-0.48,6.26-1.45,8.92s-2.3,4.93-4,6.82c-1.7,1.89-3.71,3.35-6.04,4.4S124.89,276.3,122.14,276.3z
				 M122.51,273.01c1.74,0,3.33-0.38,4.75-1.15c1.42-0.77,2.63-1.91,3.64-3.44c1-1.52,1.78-3.44,2.33-5.75
				c0.55-2.31,0.82-5.01,0.82-8.09c0-2.7-0.26-5.14-0.77-7.3c-0.51-2.16-1.26-4-2.24-5.51c-0.99-1.51-2.19-2.66-3.62-3.46
				c-1.43-0.8-3.05-1.2-4.87-1.2c-1.75,0-3.33,0.37-4.75,1.1c-1.42,0.73-2.64,1.84-3.65,3.34c-1.01,1.5-1.79,3.39-2.34,5.67
				c-0.55,2.28-0.82,4.96-0.82,8.05c0,2.71,0.26,5.16,0.77,7.35c0.51,2.19,1.26,4.06,2.24,5.6c0.98,1.54,2.19,2.73,3.62,3.56
				C119.03,272.6,120.67,273.01,122.51,273.01z"/>
			<path class="st2" d="M145.65,273.23l4.68-0.67v-34.9l-4.6-0.7v-3.09h16.57v3.09l-5.37,0.73v34.62H171l3.4-9.58l3.73,0.64
				l-1.89,12.89h-30.58V273.23z"/>
			<path class="st2" d="M186.04,273.23l5.1-0.67V237.7l-5.1-0.73v-3.09h16.77v3.09l-5.1,0.7v34.9l5.18,0.75v2.95h-16.85V273.23z"/>
			<path class="st2" d="M218.75,273.23l7.27-0.67v-35.23h-9.28l-2.09,11.78h-4.04l0.98-15.24h35.26l0.89,15.24h-3.98l-2.12-11.78
				h-8.91v35.23l7.88,0.67v3.04h-21.86V273.23z"/>
			<path class="st2" d="M255.9,273.23l5.1-0.67V237.7l-5.1-0.73v-3.09h16.77v3.09l-5.1,0.7v34.9l5.18,0.75v2.95H255.9V273.23z"/>
			<path class="st2" d="M281.42,254.95c0-3.28,0.53-6.23,1.6-8.84s2.53-4.82,4.39-6.63c1.86-1.81,4.04-3.2,6.56-4.17
				c2.51-0.97,5.22-1.46,8.12-1.46c1.26,0,2.51,0.07,3.76,0.21c1.24,0.14,2.41,0.31,3.5,0.5c1.09,0.19,2.06,0.39,2.94,0.58
				c0.87,0.2,1.58,0.34,2.12,0.43l-0.53,10.17h-4.15l-1.56-6.9c-0.37-0.47-1.13-0.86-2.28-1.18c-1.15-0.32-2.74-0.47-4.77-0.47
				c-1.76,0-3.39,0.37-4.87,1.11c-1.48,0.74-2.77,1.83-3.84,3.28c-1.08,1.44-1.92,3.23-2.52,5.36c-0.6,2.13-0.91,4.59-0.91,7.37
				c0,2.4,0.25,4.72,0.74,6.97c0.49,2.25,1.26,4.24,2.3,5.97c1.04,1.73,2.37,3.12,3.98,4.17c1.61,1.05,3.56,1.57,5.82,1.57
				c0.97,0,1.8-0.06,2.51-0.19c0.71-0.13,1.31-0.28,1.83-0.47c0.51-0.19,0.93-0.4,1.27-0.63c0.33-0.23,0.61-0.47,0.84-0.7l2.42-5.71
				l3.96,0.53l-1.23,8.34c-0.74,0.06-1.45,0.2-2.12,0.42c-0.67,0.23-1.42,0.47-2.24,0.72c-0.83,0.26-1.78,0.49-2.85,0.7
				c-1.08,0.21-2.39,0.31-3.93,0.31c-3.34,0-6.31-0.48-8.9-1.46c-2.59-0.97-4.77-2.37-6.54-4.2c-1.77-1.83-3.12-4.07-4.02-6.7
				C281.87,261.3,281.42,258.3,281.42,254.95z"/>
			<path class="st2" d="M323.65,273.23l5.1-0.67V237.7l-5.1-0.73v-3.09h16.77v3.09l-5.1,0.7v34.9l5.18,0.75v2.95h-16.85V273.23z"/>
			<path class="st2" d="M346.38,273.23l3.54-0.66l13.73-38.69h6.63l13.84,38.69l3.54,0.66v3.04h-15.29v-3.04l4.54-0.67l-2.65-8.13
				h-16.38l-2.54,8.13l4.76,0.67v3.04h-13.7L346.38,273.23z M373.12,260.89l-5.96-18.01l-1.22-4.61l-1.22,4.66l-5.71,17.96H373.12z"
				/>
			<path class="st2" d="M393.28,273.23l4.6-0.64v-34.9l-4.6-0.73v-3.09h11l18.74,27.38l2.95,5.52v-29.11l-4.99-0.7v-3.09h13.81v3.09
				l-4.62,0.73v38.57h-4.57l-19.19-27.93l-4.34-7.57v31.81l5.32,0.67v3.04h-14.12V273.23z"/>
		</g>
	</g>
	<polyline class="st3" points="181.76,73.29 35.35,73.29 35.35,257.22 65.01,257.22 	"/>
	<polyline class="st3" points="434.99,257.22 464.65,257.22 464.65,73.29 318.24,73.29 	"/>
	<g>
		<polygon class="st2" points="200.96,57.96 204.68,66.13 213,67.44 206.98,73.8 208.4,82.78 200.96,78.54 193.52,82.78 
			194.94,73.8 188.92,67.44 197.24,66.13 		"/>
		<polygon class="st2" points="233.66,57.96 237.37,66.13 245.69,67.44 239.67,73.8 241.09,82.78 233.66,78.54 226.22,82.78 
			227.64,73.8 221.62,67.44 229.94,66.13 		"/>
		<polygon class="st2" points="266.35,57.96 270.07,66.13 278.39,67.44 272.37,73.8 273.79,82.78 266.35,78.54 258.91,82.78 
			260.33,73.8 254.31,67.44 262.63,66.13 		"/>
		<polygon class="st2" points="299.05,57.96 302.77,66.13 311.08,67.44 305.06,73.8 306.48,82.78 299.05,78.54 291.61,82.78 
			293.03,73.8 287.01,67.44 295.33,66.13 		"/>
	</g>
</g>
</svg>
