<?xml version="1.0" encoding="utf-8"?>
<!-- Generator: Adobe Illustrator 27.3.1, SVG Export Plug-In . SVG Version: 6.00 Build 0)  -->
<svg version="1.1" id="Layer_1" xmlns="http://www.w3.org/2000/svg" xmlns:xlink="http://www.w3.org/1999/xlink" x="0px" y="0px"
	 viewBox="0 0 500 500" style="enable-background:new 0 0 500 500;" xml:space="preserve">
<style type="text/css">
	.st0{fill:none;}
	.st1{fill:#1B365D;}
</style>
<rect y="0" class="st0" width="500" height="500"/>
<g>
	<path class="st1" d="M227.27,295.36c0.06-0.05,0.37-0.32,0.74-0.64c0.54,0.49,1.12,1.02,1.69,1.54c0.1-0.04,0.21-0.09,0.31-0.13
		c-0.13-0.46-0.15-1.02-0.42-1.36c-0.67-0.82-0.42-1.34,0.18-1.72c0.94,0.8,1.79,1.52,2.64,2.26c0.09,0.07,0.11,0.22,0.16,0.34
		c0.28,0.62,0.19,1.66,1.35,1.33c0.66-0.19,1.29-0.52,1.83-0.74c0.99,1.49,2.12,3.09,3.12,4.76c0.29,0.49,0.26,1.19,0.34,1.8
		c0.19,1.43,1.33,2.69,0.72,4.3c-0.11,0.29,0.36,0.79,0.59,1.23c-1.32,1.21-0.65,2.75-0.44,4.2c0.12,0.84,0.55,1.46-0.47,2.23
		c-1.11,0.84-0.86,3.91-0.05,5.18c0.33,0.52,0.59,1.61,0.31,1.92c-1.35,1.51-0.1,2.58,0.55,3.61c0.74,1.18,0.87,2.1,0.12,3.17
		c-0.39,0.55-0.53,1.28-0.78,1.92c0.12,0.14,0.24,0.28,0.36,0.42c-0.62,0-1.25,0.06-1.86-0.02c-0.66-0.09-1.28-0.32-1.68,0.51
		c-0.2,0.42-0.56,0.77-0.94,1.26c0.07,0.24,0.19,0.62,0.32,1.04c0.38-0.16,0.71-0.29,0.95-0.39c1.41,1.06,0.17,2.24,0.19,3.38
		c0.03,1.38,0,2.73,0.99,3.88c0.8-0.21,1.56-0.42,2.32-0.62c-0.02-0.09-0.03-0.18-0.05-0.27c-0.19,0.01-0.37,0.02-0.9,0.04
		c0.88-0.59,1.62-0.93,2.12-1.48c0.45-0.49,0.63-1.22,0.92-1.85c-0.1-0.05-0.19-0.1-0.29-0.15c0.03-0.03,0.07-0.1,0.07-0.1
		c0.87,0.48,1.58,0.51,1.92-0.63c0.06-0.21,0.17-0.45,0.33-0.57c1.14-0.84,1.47-2.01,0.97-3.59c0.76-0.28,0.92-0.6,0.61-1.24
		c-0.21-0.43-0.32-0.62,0.36-0.72c0.31-0.05,0.44-0.9,0.76-1.31c0.33-0.42,0.78-0.75,1.3-0.91c0.26-0.61,0.52-1.22,0.75-1.78
		c0.82,0.34,1.53,0.69,2.27,0.93c0.24,0.08,0.57-0.09,0.85-0.17c0.23-0.07,0.62-0.31,0.65-0.27c0.8,1.11,1.33-0.41,2.05-0.25
		c0.06,0.01,0.49-1.14,0.45-1.16c-1-0.51-0.48-1.49-0.69-2.21c-0.09-0.31,0.04-0.93,0.25-1.02c1.02-0.46,0.61-1.32,0.74-2.05
		c0.17-0.93,0.21-1.98,1.25-2.69c0.22,1.19,0.28,2.09,1.6,2.29c0.78,0.12,1.86,0.11,2.02,1.45c0.05,0.43,0.81,0.78,1.42,1.31
		c0.64-1.83,1.28-3.68,1.94-5.59c0.69,0.37,1.22,0.65,1.71,0.91c0.07-1.1,0.14-2.22,0.22-3.33c0.16-0.04,0.32-0.09,0.49-0.13
		c-0.44,1.53,1.41,1.71,1.33,2.81c0.48,0.12,0.92,0.38,1.22,0.27c0.46-0.17,0.97-0.51,1.2-0.93c0.31-0.56,0.31-1.27,0.56-1.88
		c0.11-0.28,0.48-0.46,0.74-0.68c0.09-0.08,0.23-0.13,0.29-0.23c0.35-0.64,0.69-1.29,1.03-1.93c1.14,0.59,1.86,0.23,2.04-0.9
		c0.04-0.24,0.4-0.45,0.63-0.65c0.62-0.52,1.25-1.03,1.89-1.56c0.26,0.37,0.62,1.06,1.16,1.58c0.54,0.52,1.24,0.87,1.84,1.27
		c0,0.77,0,1.65,0,2.53c0.16,0,0.32-0.01,0.47-0.01c-0.52-1.03,0.71-2.06-0.35-3.2c-0.26-0.28,0.21-1.29,0.4-1.95
		c0.21-0.73,0.48-1.44,0.75-2.22c0.23,0.06,0.66,0.18,1.08,0.29c0.73-1.19,1.37-1.55,2.79-1.57c-0.32-0.43-0.67-0.89-1.01-1.34
		c1.96,0.11,2.31,1.11,1.88,3.46c-0.21,1.11-0.19,2.35,0.68,3.15c0.94-0.99,1.83-1.86,2.61-2.83c0.17-0.21-0.09-0.77-0.15-1.16
		c-0.15-0.96-0.31-1.91-0.5-3.1c-0.53,0.49-0.85,0.78-1.29,1.19c0.15-0.8,0.28-1.45,0.4-2.1c0.13,0.02,0.27,0.03,0.4,0.05
		c-0.12-0.48-0.24-0.96-0.37-1.5c0.4-0.02,0.81-0.04,1.41-0.07c-0.42-2.43-1.51-4.74-1.09-7.17c1.3-0.03,1.65,0.83,1.69,1.71
		c0.03,0.67,0.18,1.05,0.8,1.29c0.18,0.07,0.42,0.27,0.44,0.43c0.17,1.09,0.76,1.11,1.61,0.76c0.27-0.11,0.65,0.04,1.06,0.07
		c0-0.56-0.04-1.15,0.02-1.73c0.03-0.3,0.2-0.78,0.38-0.83c1.34-0.31,0.88-1.17,0.66-1.96c-0.21-0.73-0.43-1.46-0.56-2.21
		c1.41,2.03,1.41,2.03,3.36,0.13c0.3,0.11,0.62,0.22,1.17,0.41c0-0.75,0-1.34,0-2.18c-0.37,0.54-0.59,0.88-0.82,1.21
		c-0.11-0.05-0.22-0.1-0.33-0.15c0.39-0.86,0.77-1.73,1.17-2.59c0.42-0.93,0.85-1.85,1.28-2.77c0.42-0.88,0.93-1.73,1.26-2.64
		c0.32-0.87,0.47-1.81,0.7-2.72c0.24,0.02,0.48,0.04,0.72,0.06c0,0.71-0.04,1.42,0.01,2.13c0.07,0.88,0.07,1.8,0.36,2.61
		c0.21,0.59,0.89,0.72,1.24,0c0.29-0.62,0.36-1.35,0.64-1.98c0.22-0.5,0.61-0.93,0.93-1.38c0.14-0.19,0.42-0.33,0.46-0.53
		c0.21-1.14,0.42-2.28,0.52-3.43c0.06-0.69,0.16-1.09,0.98-1.11c1.37-0.03,1.01-1.6,1.8-2.2c0.32-0.24,0.44-0.74,0.65-1.12
		c0.12,0.02,0.24,0.03,0.36,0.05c0.11,1.46,0.22,2.92,0.33,4.38c1.12,0.03,1.48-0.51,1.07-1.62c0.11-0.04,0.23-0.09,0.34-0.13
		c0.44,0.53,0.87,1.05,1.52,1.84c0.1-0.55,0.29-0.96,0.23-1.34c-0.18-1.31-0.5-2.59-0.64-3.9c-0.05-0.48,0.25-0.99,0.43-1.61
		c0.49,0.29,0.79,0.47,1.31,0.78c0-0.93-0.05-1.64,0.01-2.34c0.06-0.67,0.23-1.33,0.65-2c0.25,0.51,0.49,1.03,0.86,1.81
		c0.23-1.09,0.71-1.87-0.53-2.38c-0.32-0.13-0.54-0.64-0.68-1.03c-0.25-0.67,0.16-0.77,0.73-0.94c0.26-0.08,0.36-0.85,0.46-1.32
		c0.13-0.61,0.34-1.26,0.23-1.84c-0.23-1.22,0.78-1.31,1.4-1.72c0.41-0.27,0.96-0.32,1.49-0.49c-0.53-1.53-0.97-2.8-1.41-4.07
		c-0.91,0.68-0.91,0.68-0.47,2.71c-0.58,0.29-1.15,0.58-1.93,0.98c-0.41-1.54-1.07-3.04-0.73-4.77c0.25-1.23,0.58-2.47,0.62-3.71
		c0.03-0.95-0.35-1.91-0.55-2.86c-0.14-0.64-0.36-1.28-0.4-1.92c-0.13-1.89-0.18-3.79-0.27-5.69c-0.08-1.55-0.28-3.11-0.22-4.65
		c0.08-2.08,0.37-4.14,0.55-6.21c0.03-0.34-0.06-0.69-0.05-1.04c0.03-1.22,0.13-2.43,0.12-3.65c-0.02-1.24-0.04-2.49-0.25-3.71
		c-0.5-2.92-1.1-5.83-1.66-8.74c-0.01-0.04,0.01-0.09-0.01-0.13c-1.52-2.41-1.24-5.29-2.1-7.87c-0.04-0.12-0.1-0.23-0.18-0.32
		c-1.03-1.32-2.02-2.68-3.1-3.96c-1.36-1.61-2.74-3.21-4.22-4.71c-1.33-1.35-2.81-2.54-4.23-3.8c-0.8-0.71-1.62-1.38-2.4-2.11
		c-1.81-1.7-3.6-3.42-5.41-5.11c-0.19-0.18-0.5-0.26-0.76-0.35c-1.9-0.66-2.8-2.03-3.25-3.96c-0.27-1.16-0.94-2.27-1.61-3.29
		c-1.05-1.62-2.21-3.17-2.4-5.19c-0.02-0.21,0.03-0.49-0.09-0.61c-1.15-1.16-1.42-2.37-0.51-3.84c0.15-0.25-0.25-0.93-0.53-1.32
		c-0.19-0.27-0.6-0.39-0.95-0.61c0.25-0.46,0.46-0.84,0.68-1.25c0.37,0.02,0.77,0.06,1.18,0.06c0.97-0.01,1.05-0.54,0.82-1.33
		c-0.18-0.59-0.35-1.21-0.39-1.82c-0.07-1.01,0.4-1.4,1.45-0.82c0.13-0.87,0.36-1.54-0.48-2.17c-0.36-0.26-0.35-1.02-0.52-1.61
		c1.64-0.38,1.21,1.37,2.09,1.63c1.4-1.23,1.39-2.2,0.07-3.63c-0.35-0.38-0.5-0.95-0.74-1.43c0.17-0.12,0.34-0.23,0.51-0.35
		c0.39,0.44,0.77,0.89,1.3,1.49c0.31-0.7,0.31-1.22-0.17-1.82c-1-1.24-1.35-2.73-1.08-4.25c0.19-1.03,1.15-1.14,2.09-1.07
		c0.33,0.03,0.85,0.02,0.96-0.17c0.14-0.23,0.05-0.71-0.11-1c-0.33-0.6-0.76-1.15-1.19-1.79c-0.25,0.65-0.45,1.16-0.64,1.67
		c-0.15,0.02-0.3,0.04-0.45,0.06c-0.24-0.65-0.57-1.27-0.71-1.94c-0.19-0.93-0.17-1.9-0.37-2.83c-0.15-0.71-0.43-1.41-0.77-2.05
		c-0.48-0.91-0.4-1.46,0.7-1.71c0.17-0.04,0.42-0.52,0.36-0.7c-0.25-0.77-0.56-1.53-0.96-2.23c-0.13-0.22-0.61-0.23-1.23-0.44
		c-0.17-0.35-0.5-1-0.74-1.48c0.66-0.2,1.29-0.39,1.92-0.57c-0.35-0.68-0.57-1.47-1.08-1.99c-0.35-0.37-1.09-0.37-1.66-0.51
		c-0.14-0.03-0.33,0.11-0.44,0.05c-1.19-0.62-2.38-1.26-3.56-1.9c-1.04-0.57-3.22,0.27-4.02,1.56c-0.1-0.13-0.25-0.25-0.29-0.4
		c-0.35-1.15-1.02-1.68-2.29-1.48c-0.4,0.07-0.87-0.27-1.31-0.42c0.26-0.33,0.53-0.65,0.79-0.98c0.16-0.2,0.45-0.49,0.4-0.62
		c-0.09-0.21-0.39-0.39-0.63-0.48c-1.2-0.43-2.13,0.74-3.3,0.64c-0.04,0-0.15,0.9-0.27,1.61c-0.72,0-1.62-0.03-2.52,0.01
		c-0.83,0.03-1.67,0.1-2.49,0.22c-1.55,0.23-3.08,0.56-4.64,0.73c-0.76,0.08-1.57-0.27-2.32-0.15c-1.39,0.22-2.75,0.65-4.11,1
		c-0.35,0.09-0.69,0.19-1.13,0.32c-0.05-0.58-0.1-1.03-0.14-1.48c-0.73-0.23-1.23-0.21-2.01,0.29c-0.97,0.63-2.39,0.87-3.57,0.76
		c-1.42-0.12-2.42,0.26-3.34,1.21c-0.46-0.37-0.95-0.77-1.37-1.11c-0.59,0-1.2-0.04-1.8,0.01c-0.65,0.05-1.21,0.42-1.7-0.57
		c-0.2-0.4-1.61-0.2-2.46-0.27c-0.33-0.03-0.66-0.12-0.98-0.07c-0.87,0.11-1.82,0.09-2.56,0.48c-0.97,0.5-1.77,1.3-2.98,1.35
		c-0.58,0.02-1.14,0.45-1.73,0.55c-0.41,0.07-0.86-0.14-1.3-0.16c-0.61-0.04-1.24-0.13-1.82,0c-1.04,0.24-2.03,0.82-3.08,0.92
		c-1.67,0.16-3.36,0.02-5.04,0.06c-0.5,0.01-1.08,0.04-1.47,0.29c-1.46,0.96-2.9,0.37-4.34,0.1c0.17-0.13,0.35-0.28,0.53-0.42
		c-0.03-0.06-0.06-0.13-0.09-0.19c-1.13,0.24-2.25,0.55-3.39,0.71c-0.74,0.1-1.52,0-2.28-0.08c-0.86-0.09-1.7-0.3-2.56-0.41
		c-0.98-0.13-1.9-0.01-2.64,0.76c-1.13,1.16-2.65,0.74-3.7,0.3c-1.46-0.61-2.87-0.38-4.3-0.53c-0.71-0.07-1.14-0.27-1.67-0.81
		c-0.56-0.57-1.56-0.81-2.4-0.94c-0.8-0.12-1.65,0.15-2.48,0.15c-0.91,0-1.82-0.17-2.73-0.18c-0.75,0-1.51,0.12-2.37,0.2
		c-0.06,0.12-0.19,0.41-0.28,0.62c-0.12,0.09-0.15,0.14-0.18,0.14c-1.06,0.01-2.14,0.13-3.18-0.02c-0.74-0.11-1.89,0.5-2.14-0.88
		c-0.21,0.06-0.53,0.04-0.61,0.18c-0.57,1.01-1.29,1.11-2.23,0.52c-0.22-0.13-0.54-0.19-0.8-0.15c-1.94,0.37-3.89,0.72-5.81,1.2
		c-0.45,0.11-0.84,0.61-1.16,1c-0.78,0.94-1.59,1.86-2.22,2.9c-1.36,2.2-2.69,4.43-3.88,6.72c-1.4,2.68-2.67,5.43-3.93,8.18
		c-0.75,1.64-1.42,3.32-2.05,5.01c-1.09,2.94-2.07,5.91-3.17,8.84c-2.07,5.57-4.23,11.1-6.28,16.68c-0.95,2.59-1.72,5.24-2.56,7.87
		c-0.17,0.54-0.31,1.12-0.33,1.68c-0.01,0.15,0.65,0.5,0.73,0.43c0.38-0.34,0.72-0.75,1-1.19c1.12-1.79,2.52-2.97,4.84-2.7
		c0.92,0.11,1.89-0.18,2.89-0.3c0.13,1.22,0.89,1.41,1.81,1.36c1.81-0.09,3.62-0.29,5.42-0.22c2.32,0.09,4.72-0.28,6.92,0.89
		c0.15,0.08,0.46-0.13,0.68-0.24c0.26-0.12,0.58-0.44,0.74-0.37c0.75,0.31,1.56,1.16,2.16,1.02c0.85-0.21,1.42-0.34,2.28,0.09
		c0.95,0.46,2.19,0.32,2.91,1.35c0.03,0.04,0.18,0.04,0.24,0c1.55-1.07,2.7-0.41,3.76,0.83c0.19,0.23,0.57,0.41,0.87,0.42
		c2.22,0.04,2.9,0.61,3.25,2.79c0.08,0.52,0.24,1.02,0.39,1.66c0.27-0.25,0.45-0.42,0.73-0.69c0.71,0.79,1.38,1.54,2.05,2.29
		c-1.35,1.11-1.45,2.27-0.6,3.68c0.18,0.3,0.09,0.87-0.07,1.24c-0.39,0.91-1,1.64-0.09,2.74c0.48,0.59,0.3,1.74,0.37,2.64
		c0.11,1.42,0.13,2.84,0.29,4.25c0.05,0.41,0.72,0.81,0.68,1.17c-0.18,1.78-0.42,3.56-0.84,5.29c-0.09,0.36-0.85,1.33-1.71,0.33
		c-0.23-0.27-0.87-0.15-1.31-0.27c-0.68-0.19-1.5-0.27-2-0.7c-1.29-1.11-2.43-2.4-3.67-3.57c-0.27-0.26-0.73-0.33-1.09-0.48
		c-0.1,0.18-0.2,0.37-0.3,0.55c0.69,0.5,1.44,0.93,2.05,1.52c0.83,0.79,1.55,1.7,2.33,2.55c0.31,0.34,0.81,0.6,0.95,1
		c0.19,0.52,0.16,1.13,0.14,1.7c-0.01,0.23-0.33,0.47-0.32,0.69c0.08,1.58-0.26,2.29-1.73,2.57c-2.79,0.54-5.6,0.99-8.43,1.3
		c-1.27,0.14-2.58-0.16-3.87-0.21c-1.02-0.04-2.06-0.12-3.06,0.03c-1.89,0.28-3.17-0.3-4.47-1.79c-1.84-2.13-2.93-4.45-3.37-7.17
		c-0.06-0.38-0.4-0.92-0.7-0.99c-0.32-0.07-0.94,0.23-1.09,0.54c-0.52,1.06-0.89,2.19-1.31,3.29c-0.59,1.56-0.13,3.11,1.23,4.09
		c0.88,0.63,1.82,1.16,2.64,1.85c1.71,1.44,3.84,1.99,5.89,1.97c2.09-0.02,4.28,0.4,6.36-0.65c1.2-0.61,2.5,0.01,3.32,1.19
		c-0.46,0.35-0.87,0.82-1.39,1.02c-1.39,0.54-2.8,1.06-4.25,1.4c-2.29,0.53-4.58,0.58-6.84-0.34c-1.45-0.59-3.07-0.81-4.44-1.53
		c-1.22-0.65-2.21-1.75-3.26-2.69c-0.12-0.11-0.08-0.57,0.04-0.77c0.7-1.23,0.55-2.5-0.46-3.4c-0.15-0.14-0.33-0.32-0.51-0.34
		c-1.14-0.12-2.28-0.24-3.42-0.27c-0.76-0.02-1.4,0.02-1.89-0.83c-0.48-0.84,0.13-1.18,0.38-1.76c0.3-0.71,0.55-1.48,0.61-2.24
		c0.13-1.73,0-3.46,0.89-5.08c1.18-2.13,2.94-3.59,5.11-4.54c3.62-1.59,7.49-1.77,11.37-1.81c1.14-0.01,2.41,0.11,3.14-1.13
		c-1.5-2.87-4.06-4.1-7.09-4.73c-1.44-0.3-2.8-1.15-4.24-1.27c-2.63-0.21-5.29-0.07-7.93-0.06c-1.5,0-2.68,1.27-4.34,0.96
		c-0.55-0.1-1.3,0.88-2.17,1.53c-0.1-2.97-0.25-5.81,0.57-8.5c-0.36-0.62-0.74-1.16-0.99-1.76c-2.48-5.86-4.67-11.84-5.21-18.2
		c-0.43-4.95-0.43-9.95-0.37-14.93c0.02-1.43,0.76-2.93,1.44-4.26c0.74-1.46,1.9-2.7,2.68-4.14c0.78-1.43,1.29-2.99,1.97-4.47
		c0.3-0.65,0.8-1.22,1.06-1.89c0.19-0.47,0.18-1.04,0.18-1.56c0-0.39-0.28-0.82-0.17-1.15c1.01-3.2,0.87-6.41,0.29-9.65
		c-0.16-0.91-0.25-1.85-0.22-2.77c0.06-1.81-0.26-3.49-1.02-5.16c-0.92-2.03-0.72-4.1,0.2-6.14c0.47-1.03,0.85-2.12,1.13-3.21
		c0.67-2.6,2.01-4.77,4.16-6.33c1.45-1.05,1.98-2.38,2.16-4.07c0.44-4.18,2.27-7.69,5.6-10.29c3.12-2.44,6.72-3.91,10.58-4.77
		c1.23-0.27,2.45-0.57,3.71-0.86c0.12,0.5,0.25,1.01,0.41,1.68c-1.12,0-2.12,0-3.59,0c-0.73,1.3-1.68,2.97-2.7,4.79
		c-0.6-0.97-1.27-2.04-1.93-3.12c-0.18,0.1-0.36,0.19-0.54,0.29c0.39,0.74,0.78,1.47,1.16,2.22c0.17,0.33,0.32,0.68,0.46,1.02
		c0.25,0.59,0.48,1.19,0.72,1.79c0.27-0.49,0.54-0.98,0.85-1.56c1.55,0.13,3.56-1.02,4.89,1.2c-0.01-1.35-0.27-2.22-1.71-2.64
		c-1.11-0.32-1.38-1.5-1.07-2.9c1.22,1.15,2.04,0.63,2.57-0.89c0.11,0.11,0.23,0.22,0.34,0.34c0,0.43-0.08,0.87,0.02,1.27
		c0.12,0.5,0.29,1.27,0.62,1.39c1.19,0.41,1.78,1.21,1.95,2.41c1.98-1.24,2.82-3.09,1.72-4.37c-1.07-1.24-1.81-2.38-1.55-4.03
		c0.01-0.07-0.04-0.17-0.09-0.22c-1.39-1.33-0.64-2.78,0.06-3.93c1.82-2.99,3.65-6.01,5.87-8.69c1.74-2.1,4.05-3.73,6.13-5.54
		c4.56-3.96,10.05-5.57,15.92-6.09c1.19-0.1,2.54-0.59,3.52,0.68c1.16-1.07,2.34-1.88,3.67-1.15c0.59-0.64,1.1-1.18,1.81-1.94
		c-0.04,2.22-0.76,4.04,0.05,5.77c0.12,0,0.24,0,0.36,0c0.39-1.17,0.77-2.34,1.2-3.65c-1.61,0.05-1.28-1.07-1.1-1.64
		c0.13-0.4,1.02-0.56,1.55-0.86c1.5-0.74,2.99-1.48,4.4-2.19c0,1.3,0,2.48,0,3.82c0.3-0.23,0.63-0.35,0.65-0.5
		c0.16-1.64,1.6-2.36,2.51-3.42c0.58-0.67,1.5-1.25,2.37-1.44c3.25-0.73,6.55-1.29,9.83-1.9c0.16-0.03,0.32,0,0.86,0
		c-0.78,1.29-2.03,1.15-2.89,1.61c0.01,0.11,0.02,0.22,0.04,0.33c0.5-0.07,1.02-0.08,1.49-0.23c0.7-0.21,1.4-0.47,2.06-0.8
		c0.24-0.12,0.35-0.49,0.51-0.75c-0.11-0.17-0.21-0.35-0.32-0.52c3.17-0.2,6.35-0.6,9.52-0.55c3.85,0.07,7.62,0.8,11.28,2.14
		c1.3,0.48,2.82,0.48,4.25,0.49c5.38,0.04,10.62,0.71,15.49,3.21c3.91,2.01,7.78,4.1,11.76,5.95c1.36,0.63,3.01,0.73,4.54,0.91
		c1.84,0.21,3.73,0.11,5.55,0.4c1.52,0.24,3.09,0.66,4.45,1.36c1.76,0.9,3.55,1.41,5.48,1.26c5.64-0.43,11.27-0.98,16.91-1.43
		c11.18-0.89,19.92,3.38,26.15,12.66c1.36,2.02,2.31,4.32,3.32,6.55c0.78,1.73,1.88,2.9,3.72,3.52c2.54,0.86,4.87,2.14,6.81,4.05
		c2.05,2.02,3.09,4.47,3.31,7.33c0.1,1.33,0.27,2.73,0.77,3.94c1.69,4.14,3.54,8.21,5.34,12.31c0.27,0.61,0.55,1.21,0.87,1.91
		c-1.26,0.33-0.93,0.79-0.34,1.45c0.43,0.48,0.85,1.15,0.9,1.77c0.14,1.93,0.05,3.88,0.12,5.81c0.16,4.18,0.29,8.35,0.58,12.52
		c0.75,10.53,1.87,21.04,1.08,31.63c-0.83,11.04-1.25,22.11-2.33,33.12c-0.91,9.28-2.51,18.5-3.81,27.74
		c-0.03,0.2-0.11,0.39-0.18,0.61c-0.84-2.02-1.62-4-2.5-5.94c-0.37-0.81-0.82-1.65-1.44-2.28c-1.32-1.34-2.64-2.75-4.22-3.74
		c-1.11-0.7-2.64-1.03-3.98-1.02c-3.54,0.03-6.64,1.66-9.58,3.4c-1.78,1.05-3.25,2.6-4.89,3.9c-0.22,0.18-0.59,0.19-0.89,0.24
		c-1.23,0.19-2.46,0.35-3.68,0.55c-0.24,0.04-0.51,0.15-0.67,0.32c-1.24,1.39-3.06,2.37-4.04,3.75c-1.23,1.74-2.73,3.53-2.93,6
		c-0.22,2.83-1.02,5.6-1.42,8.42c-0.24,1.7-0.22,3.43-0.29,5.15c-0.1,2.34-0.03,4.69-1.03,6.89c-0.07,0.15-0.06,0.37,0,0.53
		c0.89,2.27,0.69,4.55,0.09,6.84c-0.08,0.32,0.11,0.97,0.35,1.07c1.35,0.58,1.22,1.73,1.08,2.78c-0.35,2.49-0.61,4.91,0.56,7.33
		c0.53,1.11,0.81,2.53,0.67,3.74c-0.32,2.78,0.19,5.46,0.61,8.14c0.34,2.12,1.01,4.17,3.09,5.4c0.29,0.17,0.26,0.91,0.37,1.38
		c-0.31,0.06-0.63,0.21-0.91,0.17c-2.09-0.33-1.99-0.18-2.91,1.95c-0.83,1.9-1.27,3.87-1.75,5.83c-0.23,0.92,0.1,2.01-0.24,2.86
		c-0.52,1.27-0.59,2.66-1.62,3.85c-0.75,0.86-0.49,2.54-0.9,3.78c-0.52,1.57-1.3,3.05-1.92,4.59c-0.36,0.9-0.63,1.83-0.97,2.73
		c-0.48,1.25-1.05,2.47-1.45,3.74c-0.28,0.87-0.16,1.9-0.54,2.71c-0.48,1.04-1.11,2.12-1.97,2.83c-0.97,0.8-0.94,1.83-1.22,2.82
		c-0.2,0.71-0.35,1.44-0.51,2.16c-0.17,0.75-0.62,0.93-1.37,0.96c-0.48,0.02-1.06,0.42-1.39,0.82c-0.54,0.67-0.8,1.57-1.37,2.2
		c-1.13,1.24-2.36,2.4-3.62,3.52c-0.54,0.48-1.27,0.74-1.87,1.16c-1.16,0.81-2.3,1.65-3.43,2.49c-0.1,0.08-0.1,0.3-0.15,0.46
		c-0.45,1.42-1.28,1.83-2.63,1.3c-0.93-0.37-1.9,0.04-2.32,0.97c-0.58,1.3-1.52,2.24-2.68,3.09c-0.81,0.6-1.37,1.55-2.04,2.34
		c-0.66,0.79-1.32,1.59-1.98,2.39c1.05,0.95,0.7,4.12-0.57,5.32c-0.21-0.34-0.42-0.68-0.64-1.01c0.47,1.44,0.05,2.4-0.88,2.59
		c-0.63,1.27-1.1,2.33-1.66,3.33c-0.32,0.57-0.76,1.03,0.1,1.5c0.11,0.06,0.14,0.35,0.15,0.53c0.02,0.28-0.12,0.65,0.01,0.84
		c1.12,1.67-0.02,2.77-0.82,4.09c-0.86,1.4-2.05,1.83-3.52,2.09c-0.46,0.08-0.83,0.71-1.23,1.11c-0.65,0.64-1.29,1.29-2,2
		c-1.65,0.5-3.88-0.63-5.41,1.58c-0.3,0.44-1.58,0.21-2.5,0.3c-0.14,0.58-0.11,1.55-1.32,0.94c-0.12-0.06-0.5,0.41-0.4,0.7
		c-0.04,0.37,0.06,0.85-0.14,1.1c-0.79,1.05,0.25,1.21,1,1.79c-1.26,0.34-2.3,0.61-3.35,0.89c-0.6,0.17-1.21,0.31-1.78,0.55
		c-0.3,0.13-0.52,0.44-0.78,0.67c-0.19-0.31-0.38-0.62-0.65-1.04c-0.56,0.41-1.48,0.72-1.59,1.22c-0.27,1.21-1.06,1.57-2.04,1.91
		c-1.01,0.35-1.98,0.85-3.02,1.12c-1.43,0.38-2.94,0.51-4.34,0.95c-0.57,0.18-1.37,0.89-1.38,1.38c-0.03,1.58-0.98,1.36-1.93,1.33
		c-0.63-1.17,0.07-1.88,0.8-2.67c-0.6,0-1.21,0-1.9,0c-0.06,0.26-0.13,0.56-0.2,0.84c-2.35,0.2-2.35,0.2-2.31,1.07
		c0.74,0,1.49,0,2.22,0c0.41,1.92,0.3,2.04-1.63,2.04c-0.86,0-1.73,0-2.59,0c-0.2-0.5-0.46-1.15-0.76-1.91
		c0.04-0.05,0.2-0.25,0.47-0.59c-0.43,0-0.81-0.1-0.89,0.01c-1.05,1.52-2.61,0.83-3.97,0.96c-0.87,0.08-1.73-0.2-2.43,0.82
		c-0.31,0.45-1.46,0.38-2.24,0.44c-0.85,0.07-1.73,0.16-2.54-0.02c-0.89-0.2-1.71-0.7-2.55-1.09c-0.54-0.25-1.07-0.77-1.51,0.14
		c-0.04,0.09-0.31,0.06-0.47,0.09c-0.62,0.13-1.25,0.26-1.96,0.41c-0.32-0.27-0.8-0.68-1.42-1.22c-0.86,2.29-0.67,4.48-0.66,7.08
		c1.05-0.78,1.86-1.38,2.73-2.03c0.49,1.38,1,2.51,1.28,3.69c0.2,0.85-0.21,1.82,1.12,2.18c0.63,0.17,1.06,0.61,1.59,0.72
		c0.22,0.04,0.49,0.29,0.56,0.5c0.21,0.58,0.32,1.19,0.54,2.04c-1.55,1.46-3.58,1.55-6.13,0.44c0.85,0,1.35,0,1.85,0
		c0.5,0,1.01,0,1.51,0c0-0.11,0.01-0.21,0.01-0.32c-1.49-0.06-3.01-0.34-4.45-0.11c-0.9,0.14-1.52,0.08-2.31-0.29
		c-0.72-0.34-1.57-0.39-2.37-0.54c-1.93-0.36-2.1-0.53-2.41-2.49c-0.6-0.03-1.21-0.07-1.98-0.11c0.24-0.31,0.4-0.51,0.76-0.98
		c-1.6,0-2.98,0-4.36,0c0.11-1.45,0.23-2.51,1.55-3.26c0.51-0.29,0.38-1.71,0.56-2.72c0.16-0.07,0.5-0.21,1.07-0.45
		c-0.57-0.11-0.91-0.17-1.37-0.26c1.2-0.62,1.64-0.43,2.43,0.34c0.31,0.3,1.06,0.15,1.62,0.21c-0.04-0.47-0.07-0.9-0.11-1.37
		c-1.46,0.1-2.81-1.87-4.39-0.47c-0.25-0.22-0.46-0.41-0.67-0.6c-0.14,0.19-0.25,0.43-0.44,0.57c-0.16,0.12-0.42,0.19-0.61,0.16
		c-0.52-0.08-1.03-0.22-1.8-0.4c0.65-0.06,1.05-0.1,1.45-0.14c0.02-0.07,0.03-0.13,0.05-0.2c-0.29-0.1-0.57-0.21-0.86-0.31
		c-1.96-0.64-3.82-1.41-5.09-3.19c-0.25-0.35-0.77-0.53-1.2-0.73c-1.27-0.62-1.57-1.66-1.78-3c-0.1-0.62-1.27-1.29-2.08-1.54
		c-0.91-0.27-1.44-0.54-1.39-1.55c0.01-0.22-0.12-0.59-0.29-0.66c-1.52-0.68-3.03-1.42-4.61-1.91c-0.83-0.26-1.82,0.09-2.28-1.09
		c-0.09-0.22-0.98-0.19-1.49-0.18c-0.52,0.02-1.03,0.17-1.5,0.25c-0.11-0.21-0.17-0.28-0.18-0.36c-0.09-2.1-0.68-2.76-2.89-3.14
		c-0.19-0.03-0.48,0.28-0.64,0.49c-0.19,0.24-0.29,0.55-0.43,0.83c-0.38-0.21-0.78-0.38-1.12-0.63c-0.43-0.31-0.83-0.99-1.23-0.98
		c-1.02,0.02-1.42-0.42-1.65-1.31c-0.52-1.92-1.75-3.12-3.57-3.98c-5.67-2.68-10.26-6.8-14.4-11.41c-1.04-1.16-1.72-2.64-2.56-3.98
		c-0.15-0.25-0.34-0.54-0.34-0.81c0.04-1.38-0.17-2.64-1.42-3.54c0.33,0.04,0.65,0.08,1.08,0.13c0-0.46,0.06-0.84-0.02-1.19
		c-0.1-0.45-0.32-0.88-0.49-1.32c-0.33,0.29-0.66,0.58-0.97,0.86c-0.9-1.88-1.89-3.94-2.9-6.04c0.22-0.23,0.49-0.52,0.84-0.88
		c-0.58,0-1.02,0-1.46,0c0.56-1.37,1.25-1.48,2.28-0.46c0.25,0.25,1.05,0.35,1.24,0.16c0.65-0.62,1.37-0.75,1.83-0.12
		c0.29,0.39,0.01,1.2-0.18,1.86c0.4,1.04,1.17,0.98,2.18,0.26c0.43,1.62,0.85,3.17,1.26,4.73c0.66,0.07,0.66,0.07,2.79-1.78
		c1.26,0.69,2.95,0.24,3.93-0.96c0.37-0.45,0.87-0.88,1.41-1.09c0.53-0.21,1.38-0.44,1.02,0.79c-0.06,0.22,0.25,0.76,0.47,0.8
		c0.28,0.06,0.84-0.16,0.92-0.38c0.44-1.27,1.19-1.97,2.57-2.27c0.83-0.18,1.51-1.01,2.3-1.46c0.41-0.23,0.93-0.24,1.38-0.4
		c0.45-0.15,1.16-0.28,1.25-0.57c0.17-0.54,0.15-1.29-0.11-1.78c-0.69-1.26-0.71-2.44,0.17-3.5c0.66-0.8,0.47-1.61-0.46-2.02
		c-0.23-0.1-0.53-0.18-0.64-0.37c-0.41-0.67-0.81-1.36-1.12-2.08c-0.28-0.66-0.45-1.37-0.71-2.2c-0.5-0.24-1.36,0.08-1.77-1.25
		c-0.26-0.85-1.08-1.68-1.13-2.79c-0.01-0.15-0.48-0.41-0.71-0.39c-1.5,0.14-1.98-1.1-2.69-1.98c-0.19-0.23-0.21-0.89-0.03-1.08
		c1.16-1.24,2.32-2.49,3.64-3.55c0.66-0.53,1.62-0.72,2.48-0.94c2.5-0.63,5.05-0.8,7.61-0.57c0.69,0.06,1.33,0.56,2.03,0.71
		c0.81,0.17,1.65,0.16,2.48,0.26c2.51,0.3,4.71,1.54,7.05,2.34c0.86,0.29,1.87,0.25,2.81,0.2c1.11-0.06,2.16-0.25,3.24,0.3
		c0.78,0.4,1.69,0.55,2.59,0.57c0.49,0.42,0.96,0.88,1.49,1.26c0.23,0.17,0.58,0.25,0.87,0.25c0.89-0.02,1.79-0.11,2.68-0.18
		c0.02,0.14,0.04,0.28,0.06,0.42c-0.48,0.14-0.95,0.33-1.43,0.42c-1.38,0.26-1.75,0.79-1.55,2.21c0.05,0.34-0.05,0.71-0.05,0.69
		c-0.7,0.11-1.13,0.2-1.57,0.23c-0.37,0.02-0.74,0-1.11-0.05c-0.89-0.13-1.64,0.04-1.37,1.14c0.39,1.55-0.4,2.09-1.71,2.37
		c-1.08,0.23-2.16,0.49-3.2,0.84c-0.23,0.08-0.29,0.62-0.46,0.94c-0.19,0.35-0.33,0.81-0.64,1c-0.95,0.61-2.18,0.68-2.87,1.82
		c-0.35,0.58-1.12,0.98-1.77,1.31c-1.2,0.6-1.05,1.76-1.3,2.77c-0.16,0.65-0.32,1.29-0.56,2.21c0.36,0.83-1.03,2.24,0.34,3.43
		c0.2-0.3,0.34-0.54,0.51-0.75c0.57-0.67,1.65-0.49,2.06,0.3c0.41,0.79,0.9,1.54,1.26,2.36c0.14,0.32,0.02,0.76,0.02,1.06
		c0.46,0.34,0.91,0.67,1.46,1.07c0.55-0.34,1.26-0.94,2.13-0.16c0.07,0.06,0.47-0.08,0.51-0.2c0.29-0.9,0.88-1.9,0.7-2.71
		c-0.2-0.87,0.04-1.25,0.53-1.8c1.24,1-0.71,2.7,0.54,3.3c-0.05,0.84-0.08,1.49-0.12,2.14c0.16,0.03,0.32,0.06,0.47,0.09
		c0.46-0.84,0.93-1.68,1.43-2.59c0.77,0.55,1.32,0.55,1.94-0.29c0.69-0.95,3.35-0.47,4.29,0.63c0.09,0.11,0.23,0.19,0.13,0.11
		c0.57-0.24,1.11-0.63,1.29-0.51c0.8,0.54,1.46,1.25,0.75,2.17c0.92-0.09,1.86-0.2,2.8-0.27c0.93-0.07,2.18-1.23,2.38-2.18
		c0.06-0.3,0.29-0.8,0.41-0.79c0.33,0.02,0.79,0.19,0.93,0.44c0.31,0.56,0.51,1.21,0.67,1.84c0.19,0.78,0.49,1.3,1.43,1.21
		c0.94-0.09,1.92,0.07,2.82-0.15c0.64-0.16,1.16-0.77,1.75-1.16c0.38-0.25,0.79-0.45,1.3-0.73c0.56,1.41,1.35,1.42,2.55,0.59
		c0.76-0.53,1.86-0.56,2.76-0.92c0.53-0.21,0.94-0.7,1.47-0.92c0.88-0.35,1.82-0.56,2.72-0.88c0.2-0.07,0.41-0.35,0.46-0.57
		c0.24-1.04,0.43-2.1,0.82-3.14c-0.38-0.62-0.57-1.2-0.14-2.13c0.37-0.82,0-1.82-1.1-2.19c-0.16-0.05-0.37-0.09-0.44-0.21
		c-0.3-0.48-0.56-0.98-0.84-1.47c0.49-0.03,0.99-0.16,1.46-0.07c0.66,0.13,1.28,0.42,2.1,0.7c-1.36-2.39-4.38-3.53-3.86-6.62
		c0.82,0.13,1.57,0.24,2.32,0.36c0.07-0.15,0.15-0.3,0.22-0.45c-0.6-0.62-1.14-1.32-1.81-1.85c-0.75-0.59-1.55-1.05-0.39-2.09
		c-0.05-0.1-0.1-0.19-0.16-0.29c-0.4,0.03-0.79,0.07-1.19,0.08c-0.49,0.02-1.01,0.12-1.46-0.01c-0.25-0.07-0.5-0.54-0.52-0.85
		c-0.01-0.21,0.38-0.62,0.6-0.62c1.2-0.01,1.37-0.92,1.57-1.75c0.16-0.69,0.29-1.42,0.22-2.11c-0.03-0.32-0.53-0.84-0.84-0.86
		c-1-0.06-1.14-0.72-1.1-1.42c0.05-0.8,0.24-1.6,0.44-2.39c0.2-0.76-0.18-1.13-0.8-1.31c-0.86-0.26-1.75-0.45-2.61-0.67
		c-0.08-0.56-0.15-1.07-0.23-1.59c-1.18,0.22-1.87,0.09-2.52-1.03c-0.35-0.6-1.81-0.87-2.72-0.78c-2.84,0.27-5.65,0.79-8.48,1.19
		c-0.96,0.14-1.94,0.19-3.1,0.3c-1.13,1.02-2.76,0.86-4.23,0.98c-0.34,0.23-0.74,0.71-1.01,0.65c-1.2-0.29-2.3-0.16-3.48,0.21
		c-0.82,0.26-1.78,0.05-2.77-0.12c1.6,0.01,2.37-0.89,2.77-2.36c0.39,0.2,0.74,0.38,0.82,0.42c0.79-0.3,1.39-0.52,2-0.75
		c0.17,0.52,0.28,0.85,0.48,1.47c0.35-0.59,0.47-1.05,0.77-1.27c0.72-0.51,1.25-1.43,2.48-0.86c0.72,0.34,1.85-0.76,1.86-1.62
		c0.01-1-0.78-0.99-1.48-1.12c-1.33-0.25-2.64-0.69-3.99-0.79c-2.04-0.15-4.1-0.09-6.15-0.1c-0.11,0-0.23,0.12-0.34,0.13
		c-2.43,0.1-4.86,0.15-7.29,0.28c-2.59,0.13-5.18,0.52-7.76,0.45c-2.52-0.07-5.02-0.65-7.54-0.86c-2.92-0.23-5.89-0.44-8.71,0.54
		c-0.91,0.32-1.57,1.38-2.35,2.09c-0.25,0.23-0.53,0.63-0.8,0.63c-2.5-0.01-3.47,0.63-4.27,3.08c-0.27,0.82-0.3,1.71-0.59,2.52
		c-0.42,1.2-0.87,2.41-1.5,3.5c-0.73,1.26-0.3,2.56-0.42,3.84c-0.05,0.49-0.01,1.05-0.23,1.46c-0.35,0.69-0.66,1.11,0.34,1.63
		c1.13,0.59,0.69,3.17-0.5,3.97c-0.41,0.28-0.61,0.85-0.92,1.27c-0.24,0.33-0.51,0.64-0.76,0.95c-0.25-0.36-0.52-0.72-0.74-1.1
		c-0.07-0.12,0.03-0.33,0.02-0.5c-0.02-0.34-0.05-0.67-0.08-1.01c-0.31,0.14-0.64,0.23-0.92,0.42c-0.71,0.49-1.69,0.67-1.76,1.88
		c-0.01,0.24-1.05,0.42-1.87,0.73c0.18-1.28,0.34-2.34,0.49-3.4c0.57,0.08,0.99,0.25,1.36,0.17c0.41-0.08,0.77-0.38,1.16-0.58
		c-0.23-0.34-0.38-0.81-0.7-1.01c-0.99-0.61-1.03-1.35-0.81-2.42c0.17-0.85,0.16-1.98-0.28-2.65c-0.72-1.09-1.16-2.13-1.23-3.43
		c-0.02-0.45-0.55-1.03-1-1.27c-0.82-0.44-1.28-0.88-1.26-1.91c0.03-1.76,0.06-3.56-0.29-5.26c-0.26-1.25-0.84-2.42-0.69-3.75
		c0.21-1.9,0.38-3.81,0.57-5.71c0.18-1.82,1.55-3.1,2.19-4.72c0.19-0.48,0.82-0.93,1.35-1.1c1.14-0.37,1.37-1.31,1.75-2.23
		c0.63-1.54,2.35-2.62,4.02-2.44c0.82,0.09,1.19-0.27,1.71-0.8c1.9-1.92,3.94-3.69,6.58-4.56c1.37-0.45,2.66-0.91,3.59-2.23
		c0.5-0.71,1.58-1.01,2.41-1.48c1.29-0.73,2.58-1.47,3.9-2.14c0.84-0.42,1.68-1.26,2.68-0.29c0.22,0.21,0.53,0.44,0.58,0.7
		c0.13,0.81,0.46,1.05,1.25,0.72c0.26-0.11,0.69,0.17,0.94,0.06c0.67-0.29,1.3-0.7,1.94-1.07c-0.33-0.45-0.57-1.07-1.02-1.33
		c-1.07-0.63-2.26-1.06-3.36-1.66c-0.3-0.16-0.43-0.62-0.63-0.95c0.31-0.07,0.62-0.2,0.93-0.2c0.77,0,1.5,0.07,1.9-0.85
		c0.1-0.24,0.66-0.43,0.98-0.4c1.34,0.13,2.56-0.22,3.68-0.88c0.38-0.22,0.63-0.68,0.91-1.05c1.06-1.4,2.35-2.47,3.94-3.3
		c2.29-1.18,4.67-1.82,7.19-1.62c2.51,0.2,5.01,0.66,7.22,2.02c1.37,0.84,2.73,1.68,4.05,2.58c0.89,0.61,1.62,1.57,2.58,1.97
		c1.99,0.83,4.99-0.43,6.04-2.3c0.62-1.09,1.26-2.16,2.26-3.3c0.05,0.6,0.29,1.28,0.11,1.79c-1.38,3.8-4.25,5.97-8.02,7.1
		c-1.62,0.48-3.23,0.99-4.87,1.36c-0.74,0.17-1.57,0.09-2.34-0.02c-0.86-0.12-1.48-0.18-1.51,1c-0.01,0.43-0.49,0.85-0.92,1.54
		c0.23,0.47,0.59,1.24,0.97,2c0.31,0.62,0.77,0.85,1.39,0.4c0.68-0.5,0.32-0.92-0.12-1.33c-0.11-0.11-0.19-0.25-0.32-0.44
		c1.73,0.39,2.77,1.6,3.14,3.12c0.22,0.91,0.83,1.72,1.19,2.41c1.04-0.93,1.93-1.72,2.95-2.64c0.05,1.03,0.04,1.83,0.15,2.61
		c0.04,0.31,0.41,0.85,0.51,0.82c0.89-0.25,1.37,0.25,1.99,0.77c0.9,0.75,1.75,0.33,2.11-0.86c0.21-0.68,1.41-0.81,2.18-0.3
		c0.78,0.51,1.38,1.55,2.58,0.98c0.05-0.02,0.17,0.03,0.23,0.08c1.42,1.25,2.84,2.51,4.26,3.76c0.19,0.17,0.42,0.28,0.64,0.42
		c0.19-0.32,0.38-0.64,0.57-0.96c-0.06-0.04-0.12-0.08-0.18-0.12c-0.14,0.1-0.29,0.21-0.52,0.38c0.05-0.55,0.09-1.01,0.13-1.46
		c0.13-0.03,0.27-0.07,0.27-0.06c0.4,1.17,1.67,1.27,2.44,1.99C225.12,293.36,226.11,294.29,227.27,295.36z"/>
	<path class="st1" d="M177.05,302.46c1.29,0.95,1.49,0.89,2.27-0.49c0.21-0.38,0.52-0.79,0.89-0.97c1.22-0.59,2.23-1.32,2.72-2.67
		c0.12-0.33,0.56-0.64,0.92-0.78c1.18-0.45,2.38-0.84,3.59-1.21c0.4-0.12,0.9-0.29,1.25-0.16c0.81,0.32,1.55,0.74,2.47,0.33
		c0.22-0.1,0.56,0.07,0.84,0.14c1.67,0.44,3.2,1.48,5.07,1.12c0.36-0.07,0.88,0.09,1.16,0.34c1.13,0.98,2.49,1.38,3.87,1.81
		c2.42,0.76,4.82,1.57,7.19,2.45c0.94,0.35,1.73,0.19,2.2-0.56c0.18-0.28-0.22-1.06-0.54-1.47c-0.39-0.51-0.99-1.27-1.47-1.24
		c-1.28,0.07-2.35-0.29-3.47-0.77c-0.64-0.28-1.38-0.34-2.09-0.49c-0.45-0.09-0.93-0.08-1.34-0.24c-0.78-0.32-1.5-0.84-2.3-1.07
		c-0.74-0.22-1.57-0.15-2.35-0.24c-0.57-0.07-1.14-0.33-1.7-0.29c-1.52,0.1-2.97,0.2-3.83-1.44c-0.09-0.18-0.4-0.31-0.63-0.35
		c-0.69-0.12-1.48-0.01-2.07-0.31c-2.17-1.1-4.19-0.06-6.12,0.53c-1.5,0.46-2.87,1.13-4.49,0.79c-1.65-0.34-3.31-0.66-4.97-0.93
		c-1.29-0.21-2.57-0.24-3.75,0.55c-0.42,0.28-0.92,0.49-1.41,0.62c-1.39,0.38-2.87,0.53-4.18,1.09c-1.31,0.56-2.41,1.61-3.7,2.24
		c-1.59,0.78-3.14,1.38-3.54,3.48c-0.2,1.04-1.07,1.95-1.65,2.95c0.76,0.54,1.35,0.44,2.12,0.03c1.81-0.97,3.56-2.21,5.73-2.17
		c0.68,0.01,1.39,0.43,2.04,0.36c1.04-0.12,2.05-0.55,3.09-0.73c0.58-0.1,1.33-0.13,1.78,0.15c1.19,0.74,2.07,0.35,3.06-0.48
		c-0.81-0.53-1.76-0.87-2.23-1.54c-0.84-1.21-1.57-1.05-2.54-0.3c-0.18,0.14-0.72,0.1-0.83-0.05c-0.19-0.25-0.34-0.85-0.21-0.97
		c0.81-0.72,1.61-1.7,2.58-1.93c1.32-0.32,2.82-0.88,4.16,0.14c0.4,0.31,0.82,0.61,1.15,1c0.46,0.54,0.84,1.16,1.25,1.74
		c0.11-0.06,0.21-0.11,0.32-0.17C177.26,301.02,177.16,301.74,177.05,302.46z"/>
	<path class="st1" d="M180.75,68.77c-1.16-0.39-1.5,0.1-1.45,0.81c0.11,1.7-1.02,3.09-1.11,4.73c0,0.03-0.14,0.05-0.44,0.13
		c-0.17-0.45-0.49-0.92-0.47-1.38c0.03-0.77,0.23-1.54,0.43-2.28c0.26-0.96-0.18-1.59-0.65-2.19c-1.22,2.62-2.19,5.19-0.63,7.99
		c-0.12,0.07-0.24,0.15-0.36,0.22c-1.43-0.48-2.86-0.95-4.61-1.53c0.99,2.61-1.02,3.73-2.25,4.47c-1.29,0.78-0.81,1.03-0.46,1.87
		c0.38-0.4,0.62-0.65,0.99-1.05c0.19,0.62,0.32,1.07,0.38,1.26c-0.52,0.39-1.04,0.59-1.19,0.95c-0.14,0.34,0.1,0.85,0.18,1.28
		c0.11-0.01,0.21-0.01,0.32-0.02c0.28-0.43,0.55-0.87,1.01-1.58c0.31,0.63,0.73,1.07,0.67,1.44c-0.19,1.3,0.52,2.07,1.51,2.95
		c0.43-0.5,1.16-0.96,1.23-1.51c0.16-1.22,0.45-2.5-0.19-3.74c-0.3-0.58-0.33-1.31-0.55-2.28c0.51,0.3,0.65,0.34,0.71,0.43
		c0.31,0.49,0.49,1.11,0.91,1.46c0.36,0.3,0.97,0.41,1.47,0.4c0.16,0,0.53-0.73,0.43-0.99c-0.7-1.78-0.62-2.28,0.71-3.67
		c0.22-0.23,0.29-0.59,0.46-0.87c0.2-0.33,0.43-0.64,0.63-0.95c0.39,0.51,0.68,0.89,0.97,1.26c0.18-0.07,0.37-0.15,0.55-0.22
		C180.21,73.68,180.48,71.2,180.75,68.77z"/>
	<path class="st1" d="M163.05,223.39c3.81-0.21,7.32-1.24,10.71-2.68c0.19-0.08,0.31-0.98,0.14-1.12c-1.78-1.53-3.59-3.02-5.47-4.42
		c-0.53-0.4-1.31-0.47-2.28-0.79C167.18,218.34,164.61,220.63,163.05,223.39z"/>
	<path class="st1" d="M145.84,210.97c0.12,0.15,0.24,0.3,0.36,0.45c0.56-0.18,1.13-0.33,1.67-0.56c1.02-0.42,1.98-1.06,3.04-1.29
		c1.81-0.39,3.68-0.6,5.53-0.77c1.08-0.1,2.21-0.1,3.26,0.11c1.72,0.35,3.4,0.93,5.11,1.34c0.28,0.07,0.65-0.23,0.98-0.35
		c-0.15-0.32-0.21-0.8-0.46-0.93c-0.53-0.28-1.31-0.21-1.72-0.58c-1.55-1.38-3.44-1.6-5.37-1.94c-4.14-0.74-7.83,0.09-11.03,2.84
		C146.67,209.75,146.29,210.4,145.84,210.97z"/>
	<path class="st1" d="M199.45,66.23c1.24-1.7,3.51-2.71,3.09-5.41c-0.34,0.18-0.61,0.43-0.91,0.45c-0.43,0.03-0.87-0.12-1.31-0.19
		c0.03,0.39,0.17,0.8,0.07,1.15c-0.23,0.78-0.53,1.54-0.89,2.27c-0.12,0.26-0.48,0.4-0.88,0.72c-0.1-1.26-0.28-2.33-1.58-2.19
		c-1.28,0.14-1.24,1.21-1.33,2.23c-0.12,1.31-0.67,2.6,0.27,3.84c0.1,0.13,0.04,0.42,0.01,0.62c-0.16,1.08,0.37,1.64,1.6,1.93
		c0.62-1.41,1.17-2.99,2.74-3.71C199.98,67.25,199.69,66.69,199.45,66.23z"/>
	<path class="st1" d="M188.68,70.97c-0.14,0.06-0.28,0.12-0.43,0.18c0.76,2.66,0.86,5.47,1.94,8.06c0.22,0.54,0.82,0.92,1.24,1.37
		c0.06-2.51-0.15-4.82-0.24-7.15c-0.08-2.02-0.08-2.09-2.09-2.35C188.96,71.06,188.82,71,188.68,70.97z"/>
	<path class="st1" d="M184.95,343.27c0.33-1.32,0.7-2.82,1.07-4.32c0.09,0.03,0.18,0.06,0.27,0.09c-0.41-0.65-0.82-1.3-1.25-1.98
		c-1.96,1.26-2.33,3.27-2.73,5.23c-0.16,0.77,0.43,0.86,1.05,0.86C183.92,343.15,184.46,343.23,184.95,343.27z"/>
	<path class="st1" d="M192.42,275.15c0.51,0.2,1.04,0.59,1.58,0.61c1.24,0.03,2.49-0.08,3.72-0.21c0.81-0.09,1.92-0.42,1.72-1.3
		c-0.21-0.91-1.36-0.63-2.16-0.46c-1.31,0.27-2.58,1.19-3.96,0.16c-0.17-0.13-0.55,0.02-0.81,0.04
		C192.48,274.43,192.45,274.81,192.42,275.15z"/>
	<path class="st1" d="M212.22,71.07c0-0.35,0.02-0.59,0-0.84c-0.16-1.65-0.94-3.38,0.66-4.81c0.11-0.1-0.05-0.67-0.24-0.89
		c-0.12-0.13-0.69-0.1-0.79,0.04c-0.61,0.86-1.17,1.76-1.7,2.68C209.24,68.81,210.35,70.97,212.22,71.07z"/>
	<path class="st1" d="M201.46,68.87c0.12,0.11,0.24,0.23,0.36,0.34c0.47-0.21,1.03-0.33,1.38-0.66c1.62-1.5,2.85-3.27,3.51-5.46
		c-0.36-0.1-0.72-0.28-0.79-0.2c-1.25,1.36-2.5,2.71-3.65,4.15C201.87,67.54,201.72,68.25,201.46,68.87z"/>
	<path class="st1" d="M217.63,61.9c-0.09-0.07-0.17-0.15-0.26-0.22c-0.68,0.35-1.39,0.66-2.02,1.09c-0.29,0.19-0.46,0.61-0.61,0.95
		c-0.13,0.29-0.05,0.7-0.23,0.92c-0.55,0.69-0.63,1.4-0.26,2.17c0.16,0.34,0.35,0.66,0.53,0.98c0.33-0.31,0.82-0.56,0.96-0.94
		c0.41-1.14,0.65-2.35,1.04-3.5C216.97,62.84,217.35,62.38,217.63,61.9z"/>
	<path class="st1" d="M264.28,330.1c0.47,0.22,1.1,0.81,1.62,0.72c1.31-0.22,2.13-2.99,1.25-4.29c-0.67,0.29-1.59,0.43-2.02,0.96
		C264.64,328.09,264.59,329.04,264.28,330.1z"/>
	<path class="st1" d="M249.1,76.1c0.08-0.1,0.16-0.2,0.23-0.29c0.08-0.52-0.04-1.24,0.26-1.53c1.05-0.99,0.96-2.14,0.7-3.42
		c-0.52,0.53-0.95,1.12-1.29,1.75c-0.36,0.66-0.51,1.46-0.95,2.05c-0.88,1.17-1.31,3.29-0.68,4.43c0.36-1.27,0.71-2.5,1.06-3.72
		c0.15-0.05,0.31-0.1,0.46-0.15C248.96,75.52,249.03,75.81,249.1,76.1z"/>
	<path class="st1" d="M187.87,74.38c-0.48,1.3-0.94,2.31-1.23,3.36c-0.17,0.64-0.11,1.36-0.07,2.04c0.01,0.11,0.65,0.34,0.75,0.25
		C188.51,78.92,188.87,76.21,187.87,74.38z"/>
	<path class="st1" d="M315.85,284.54c1.22-0.51,1.5-1.43,0.78-3.42c-0.14-0.38-0.97-0.52-1.49-0.77
		C315.17,281.97,314.23,283.53,315.85,284.54z"/>
	<path class="st1" d="M179.93,79.81c-0.1-0.01-0.2-0.01-0.3-0.02c-0.53,1.11-1.18,2.19-1.51,3.36c-0.12,0.44,0.43,1.44,0.87,1.57
		c0.86,0.26,0.74-0.6,0.78-1.17c0.02-0.37,0.14-0.73,0.15-1.1C179.95,81.57,179.93,80.69,179.93,79.81z"/>
	<path class="st1" d="M217.65,399.14c0.83-0.24,1.87-0.22,1.52-1.51c-0.16-0.59-2.04-1.32-2.61-0.96c-0.52,0.33-1.23,0.8-0.53,1.58
		c0.5-0.04,0.93-0.08,1.41-0.12C217.52,398.52,217.59,398.82,217.65,399.14z"/>
	<path class="st1" d="M185.74,69.04c0.57,0.4,1.06,0.8,1.61,1.11c0.25,0.14,0.75,0.23,0.9,0.09c0.3-0.29,0.46-0.74,0.62-1.14
		c0.02-0.05-0.28-0.35-0.42-0.33c-1.1,0.13-1.38-0.73-1.84-1.42c-0.14-0.21-0.44-0.32-0.66-0.47c-0.11,0.22-0.31,0.44-0.31,0.66
		C185.62,68.1,185.7,68.66,185.74,69.04z"/>
	<path class="st1" d="M229.84,71.53c-0.51-0.89-0.82-1.54-1.24-2.11c-0.14-0.19-0.57-0.16-0.87-0.22c-0.02,0.29-0.05,0.57-0.06,0.86
		c0,0.46,0.01,0.92,0.02,1.38c0.01,0.53-0.1,1.27,0.71,1.14C228.87,72.51,229.26,71.98,229.84,71.53z"/>
	<path class="st1" d="M182.88,74.33c0.31,0.28,0.67,0.81,0.86,0.75c0.4-0.12,0.89-0.49,1.02-0.86c0.23-0.68,0.27-1.45,0.3-2.18
		c0.01-0.21-0.25-0.52-0.46-0.63c-0.15-0.07-0.56,0.07-0.63,0.23C183.6,72.45,183.29,73.29,182.88,74.33z"/>
	<path class="st1" d="M223.57,73.84c0.43-1.52,0.8-2.83,1.23-4.35C222.83,70.17,222.24,72.36,223.57,73.84z"/>
	<path class="st1" d="M252.69,79.63c2.45-4.02,2.45-4.02,2.15-5.3C253.91,76.15,252.57,77.6,252.69,79.63z"/>
	<path class="st1" d="M209.36,57.43c-0.13-0.05-0.25-0.09-0.38-0.14c-0.73,1.82-2.98,3-2.53,5.32c0.12,0.05,0.25,0.11,0.37,0.16
		C207.67,60.99,208.51,59.21,209.36,57.43z"/>
	<path class="st1" d="M224.49,64.95c1.14-0.03,1.14-0.03,2.57-4.65C225.41,61.53,225.09,63.21,224.49,64.95z"/>
	<path class="st1" d="M155.09,94.81c0.21-0.11,0.43-0.21,0.64-0.32c-0.12-0.73-0.11-1.52-0.41-2.17c-0.12-0.26-0.91-0.22-1.4-0.31
		c0,0.44-0.13,0.94,0.04,1.3C154.24,93.87,154.71,94.32,155.09,94.81z"/>
	<path class="st1" d="M320.97,261.95c-0.22-0.03-0.44-0.06-0.66-0.09c0,1.63,0,3.26,0,4.89c0.16,0.01,0.33,0.01,0.49,0.02
		c0.05-0.37,0.1-0.73,0.14-1.1c0.03-0.33-0.07-0.75,0.09-0.99c0.47-0.72,0.22-1.09-0.41-1.3
		C320.74,262.89,320.85,262.42,320.97,261.95z"/>
	<path class="st1" d="M319.06,72.45c-0.76-0.09-1.3-0.32-1.6-0.15c-0.74,0.43-1.62,0.88-1.43,2.48
		C317.09,73.98,317.91,73.34,319.06,72.45z"/>
	<path class="st1" d="M203.4,346.79c-0.26-0.03-0.51-0.05-0.77-0.08c-0.23,0.86-0.47,1.72-0.7,2.59c0.14,0.1,0.28,0.21,0.42,0.31
		c0.36-0.27,0.93-0.48,1.02-0.82C203.53,348.15,203.41,347.45,203.4,346.79z"/>
	<path class="st1" d="M210.98,401.72c-0.01-0.19-0.02-0.37-0.02-0.56c-0.81-0.2-1.61-0.39-2.58-0.63c0.19,0.74,0.31,1.19,0.48,1.84
		C209.62,402.15,210.3,401.94,210.98,401.72z"/>
	<path class="st1" d="M214.17,302.8c-0.21-0.7-0.24-1.59-1.3-1.25c-0.32,0.11-0.78,0.85-0.69,1.01
		C212.68,303.38,213.41,303.34,214.17,302.8z"/>
	<path class="st1" d="M190.99,66.37c-0.44,0.79-0.77,1.38-1.15,2.07c0.53,0.36,1.03,0.7,1.84,1.25
		C191.43,68.49,191.24,67.56,190.99,66.37z"/>
	<path class="st1" d="M235.7,343.44c0.2-0.06,0.39-0.13,0.59-0.19c-0.9-0.7,1.6-1.05-0.02-1.72c-0.35-0.14-0.93,0.28-1.41,0.44
		C235.14,342.46,235.42,342.95,235.7,343.44z"/>
	<path class="st1" d="M302.89,290.31c-0.2,0-0.39,0-0.59,0c-0.04,0.89-0.09,1.79-0.08,2.68c0,0.06,0.45,0.12,0.83,0.22
		C302.99,292.13,302.94,291.22,302.89,290.31z"/>
	<path class="st1" d="M180.94,87.73c1.49-1.42,1.61-2.28,0.61-2.99C181.33,85.78,181.14,86.76,180.94,87.73z"/>
	<path class="st1" d="M194.34,72.5c1.27-0.64,1.46-1.91,0.49-3.05C194.66,70.53,194.52,71.38,194.34,72.5z"/>
	<path class="st1" d="M193.03,64.88c0.11-0.11,0.22-0.23,0.34-0.34c-0.25-0.54-0.49-1.09-0.74-1.63c-0.17,0.02-0.34,0.04-0.51,0.06
		c-0.08,0.47-0.32,0.99-0.18,1.38C192.03,64.62,192.64,64.71,193.03,64.88z"/>
	<path class="st1" d="M169.82,96.13c0.09,0.01,0.19,0.02,0.28,0.03c0.1-1.05,0.19-2.1,0.29-3.15c-0.19-0.01-0.38-0.03-0.57-0.04
		C169.82,94.03,169.82,95.08,169.82,96.13z"/>
	<path class="st1" d="M214.54,399.26c-0.04-0.16-0.08-0.32-0.11-0.47c-1.7-0.29-1.91-0.22-2.4,1.01
		C212.93,399.61,213.74,399.44,214.54,399.26z"/>
	<path class="st1" d="M285.13,308.49c0-1.15,0-2.12,0-3.21C284.34,306.06,284.34,307.7,285.13,308.49z"/>
	<path class="st1" d="M292.26,303.06c0.1-0.1,0.21-0.19,0.31-0.29c-0.34-0.65-0.67-1.29-1.04-2c-0.3,0.46-0.51,0.79-0.75,1.16
		C291.31,302.34,291.78,302.7,292.26,303.06z"/>
	<path class="st1" d="M308.63,289.48c-0.14-0.02-0.28-0.03-0.42-0.05c-0.13,0.89-1.22,1.72,0.05,2.89
		C308.4,291.25,308.52,290.37,308.63,289.48z"/>
	<path class="st1" d="M317.3,276.43c-0.24,0.04-0.48,0.08-0.71,0.12c0.11,0.6,0.2,1.2,0.37,1.78c0.02,0.06,0.47,0,0.73-0.01
		C317.55,277.69,317.43,277.06,317.3,276.43z"/>
	<path class="st1" d="M303.45,66.51c0.08,0.23,0.16,0.46,0.24,0.69c0.87-0.37,1.73-0.74,2.6-1.11c-0.04-0.12-0.08-0.25-0.12-0.37
		C305.27,65.99,304.36,66.25,303.45,66.51z"/>
	<path class="st1" d="M234.72,63.29c-0.68,0.29-1.33,0.41-1.35,0.61c-0.06,0.43,0.2,0.9,0.34,1.36c0.12-0.01,0.23-0.02,0.35-0.03
		C234.23,64.72,234.41,64.2,234.72,63.29z"/>
	<path class="st1" d="M228.72,196.13c0.37,0.84,0.63,1.54,1,2.18c0.19,0.34,0.66,0.83,0.89,0.78c1.53-0.38,2.69,0.76,4.08,0.89
		c1.07,0.1,2.14,0.3,3.21,0.42c1.08,0.12,2.17,0.12,3.24,0.3c0.64,0.1,1.24,0.46,1.88,0.66c2.49,0.79,5,1.56,7.49,2.35
		c0.42,0.14,0.82,0.37,1.22,0.57c0.33,0.16,0.63,0.4,0.97,0.48c2.03,0.48,3.56,1.77,5.11,3.05c0.31,0.25,0.69,0.51,1.07,0.56
		c0.88,0.12,1.46,0.52,1.77,1.35c0.07,0.18,0.23,0.48,0.34,0.48c1.63-0.01,2.43,1.46,3.68,2.13c1.13,0.6,1.83,2.01,2.71,3.06
		c0.42,0.5,0.83,1,1.46,1.75c-0.53,0.17-1.05,0.41-1.61,0.5c-1.03,0.17-1.99,0.75-3.11,0.49c-0.14-0.03-0.42,0.56-0.75,1.03
		c-1.94,0.26-3.94-0.49-5.97-0.99c-0.71-0.17-1.45-0.25-2.07-0.35c-0.31,0.75-0.54,1.33-0.77,1.9c-0.07-0.11-0.14-0.22-0.22-0.33
		c-0.65,0.05-1.3,0.1-2.18,0.17c0.42,0.51,0.64,0.78,0.93,1.13c-0.21,0.15-0.49,0.24-0.56,0.42c-0.9,2.5-3.38,2.32-5.26,3.16
		c-0.76,0.34-1.66,0.27-2.21,1.34c-0.34,0.66-1.66,0.86-2.58,1.14c-0.78,0.24-1.61,0.3-2.42,0.47c-0.12,0.02-0.29,0.15-0.32,0.26
		c-0.45,1.51-1.37,2.2-2.85,1.5c-1.43-0.67-2.85-0.39-4.26-0.66c-3.33-0.63-6.69-1.14-10.01-1.86c-0.81-0.18-1.48-0.99-2.07-1.4
		c0.79-1.04,1.38-1.8,1.88-2.46c-1.41-0.23-2.62-0.58-3.84-0.59c-1.02-0.01-2.05,0.36-3.04,0.55c0.49,1.64,0.81,3.04,1.32,4.36
		c0.34,0.88-0.11,1.22-0.73,1.4c-0.63,0.18-1.45,0.42-1.94,0.16c-1.34-0.71-3.07-1.24-3.19-3.13c-0.1-1.42-1.34-1.9-2.03-2.8
		c-0.87-1.14-2.38-1.81-2.6-3.45c-0.07-0.5-0.06-1.01-0.09-1.53c-0.73,0.11-1.58,0.47-2.3,0.3c-1.39-0.34-2.72-0.95-4.03-1.54
		c-0.24-0.11-0.29-0.65-0.4-1c-0.32-1.1-0.69-2.19-0.92-3.31c-0.21-1.02-0.16-2.08-0.39-3.09c-0.22-0.95-0.69-1.85-0.97-2.79
		c-0.27-0.89-0.44-1.82-0.66-2.78c-0.24-0.13-0.56-0.35-0.91-0.47c-0.38-0.12-0.79-0.11-1.19-0.19c-0.59-0.12-1.59-0.14-1.68-0.44
		c-0.2-0.61-0.02-1.42,0.21-2.08c0.13-0.38,0.66-0.62,1.08-0.98c0.37,0.39,0.75,0.79,1.12,1.19c0.54-1.51-0.04-2.24-1.77-2.59
		c-0.26-0.05-0.63-1.11-0.47-1.51c0.64-1.55,0.7-3.32,1.94-4.69c0.46-0.51,0.29-1.58,0.4-2.3c1.14-0.22,2.3-0.43,3.45-0.67
		c0.29-0.06,0.65-0.14,0.81-0.34c0.56-0.71,1.26-0.9,2.11-0.8c0.9,0.1,1.32-0.42,1.66-1.2c0.18-0.42,0.63-0.95,1.02-1
		c0.47-0.06,1.28,0.2,1.46,0.55c0.51,1.04,1.44,0.55,2.14,0.78c0.92,0.29,1.43-0.09,1.75-1.08c0.2-0.61,0.91-1.02,1.47,0.1
		c0.39-0.52,0.68-0.91,0.98-1.29c0.29-0.35,0.59-0.69,1.13-1.32c0.04,0.62,0.05,0.82,0.06,1.07c0.9,0.14,1.44-0.05,2.1-1.05
		c0.49-0.74,2.04-1.03,3.13-1.07c1.57-0.07,3.15,0.37,4.73,0.4c2.49,0.04,4.98-0.11,7.48-0.12c1.41-0.01,2.83-0.5,4.26,0.12
		c0.34,0.15,0.92-0.24,1.35-0.38c0.89,0.05,1.82,0.1,2.75,0.16c0.76,0.05,1.52,0.18,2.28,0.17c2.01-0.04,4.04,0.16,5.99-0.72
		c0.67-0.3,1.62-0.35,2.33-0.13c1.09,0.33,1.86,0.26,2.43-1.03c2.03,1.07,4.39,1.73,5.83,3.26c1.42,1.5,3.22,2.18,4.7,3.42
		c1.6,1.34,3.37,2.46,4.98,3.78c2.18,1.79,4.1,3.84,5.98,5.96c0.93,1.05,1.45,1.64,0.96,2.98c-0.09,0.26,0.75,0.8,1.06,1.28
		c0.25,0.39,0.33,0.88,0.49,1.32c-0.46,0.16-1.04,0.57-1.35,0.42c-1-0.48-2.17-0.5-2.97-1.6c-0.43-0.6-1.7-0.64-2.6-0.85
		c-0.54-0.13-1.12-0.09-2.02-0.15c0.61-0.41,0.91-0.61,1.34-0.9c-1.02-1.03-2.17-1.8-3.52-2.18c-1.42-0.4-2.78-0.86-4.14-1.48
		c-2.26-1.02-4.64-2.01-7.24-1.89c-1.34,0.06-2.68,0.2-4.02,0.22c-0.5,0.01-1.02-0.38-1.51-0.35c-0.97,0.05-1.99,0.11-2.87,0.47
		c-0.92,0.37-1.67,0.31-2.62,0.15c-1.31-0.22-2.7,0.08-4.06,0.09c-0.76,0-1.52-0.12-2.29-0.2c-0.37-0.04-0.78-0.21-1.11-0.1
		c-1.09,0.36-2.13,0.87-3.22,1.22C230.96,195.65,229.85,195.86,228.72,196.13z M237.7,222.55c0.31,0.12,0.51,0.28,0.7,0.26
		c1-0.09,2.02-0.14,2.99-0.37c1.62-0.39,3.28-0.75,4.81-1.41c1.99-0.85,3.86-2,5.8-2.98c0.99-0.5,1.15-1.07,0.27-1.78
		c-0.5-0.4-1.14-0.62-1.73-0.91c-0.37-0.18-0.81-0.24-1.11-0.49c-0.92-0.75-1.7-1.7-2.69-2.32c-0.86-0.54-1.93-0.75-3.24-1.23
		C244.58,216.76,241.13,219.52,237.7,222.55z M228.68,204.6c0.01,0.22,0.02,0.44,0.04,0.67c0.45,0.07,0.91,0.18,1.36,0.2
		c1.64,0.06,3.33-0.13,4.92,0.16c2.5,0.45,4.91,1.36,7.41,1.83c3.89,0.72,7.28,2.6,10.75,4.33c0.82,0.41,1.64,0.34,2.51-0.17
		c-5.47-5.43-12.29-7.46-19.57-8.04C233.67,203.38,231.1,203.97,228.68,204.6z M237.48,223.22c-0.59-0.23-0.98-0.54-1.31-0.48
		c-1.95,0.36-3.35-0.62-4.76-1.72c-2.39-1.86-4.03-4.12-4.24-7.25c-0.05-0.72-0.27-1.42-0.49-2.5c-0.89,1.08-1.71,1.83-2.22,2.75
		c-0.8,1.45-1.38,3.02-2.15,4.73c0.21,0.13,0.67,0.48,1.18,0.69c3.17,1.25,6.36,2.46,9.54,3.69c0.3,0.12,0.7,0.18,0.87,0.41
		c0.7,0.93,1.45,0.7,2.26,0.22C236.49,223.56,236.85,223.47,237.48,223.22z M212.11,221.66c1.86-2.62,1.86-2.62,1.18-4.41
		c-0.53-0.12-1.07-0.43-1.48-0.3c-0.96,0.3-2.09,0.58-2.71,1.27c-0.66,0.74,0.26,1.48,0.83,2.08c0.36,0.37,0.7,0.75,1.12,1.21
		c-0.1,0.03,0.03-0.05,0.14-0.04C211.51,221.51,211.82,221.59,212.11,221.66z M238.98,212.03c-1.19-1.57-1.62-1.57-2.88,0.15
		C237.16,212.12,237.97,212.08,238.98,212.03z M233.11,212.3c0.44-0.33,0.8-0.6,1.16-0.87c-0.27-0.2-0.6-0.62-0.81-0.57
		c-0.51,0.12-0.96,0.47-1.43,0.72C232.35,211.8,232.66,212,233.11,212.3z"/>
	<path class="st1" d="M325.57,332.85c-0.13,5.19-0.26,10.34-0.39,15.49c-0.17,6.84,0.58,13.57,2.22,20.21
		c0.4,1.64,0.55,3.33,0.86,4.99c0.33,1.78-0.2,3.17-1.76,4.11c-3.5,2.11-7.06,4.13-10.51,6.33c-3.3,2.11-6.61,4.26-9.69,6.68
		c-2.17,1.71-4.09,3.78-5.88,5.9c-1.87,2.23-3.86,4.25-6.43,5.63c-2.97,1.6-5.52,3.73-7.82,6.18c-1.96,2.1-4.02,4.1-5.98,6.21
		c-0.8,0.86-1.51,1.83-2.14,2.82c-1.26,1.96-2.37,2.42-4.73,1.85c-0.27-0.07-0.6-0.01-0.88,0.07c-1.42,0.39-2.83,0.85-4.27,1.19
		c-2.58,0.61-5.15,1.27-7.76,1.68c-2.56,0.4-3.81,1.3-4.6,4c-0.9,3.08-1.61,6.22-2.65,9.25c-0.79,2.3-1.92,4.5-3,6.69
		c-1.02,2.07-2.17,4.09-3.26,6.13c-0.94,1.75-1.82,1.89-3.22,0.48c-4.13-4.18-8.03-8.57-11.26-13.51c-1.2-1.83-2.41-3.66-3.7-5.43
		c-1.26-1.74-2.25-2.02-4.28-1.34c-2.68,0.9-5.34,1.87-8.03,2.75c-3.45,1.13-6.39,0.26-8.74-2.49c-0.38-0.44-0.81-0.85-1.25-1.22
		c-3.16-2.68-6.54-5.13-9.43-8.06c-4.23-4.29-8.13-8.9-12.12-13.41c-1.38-1.56-1.76-3.56-2.25-5.66c0.99,1.14,1.78,2.22,2.74,3.11
		c1.3,1.23,2.71,2.34,4.1,3.46c0.81,0.64,1.61,1.37,2.54,1.76c1.41,0.59,2.62,1.46,3.82,2.35c0.57,0.42,1.07,0.92,1.6,1.38
		c0.46,0.4,0.89,0.87,1.4,1.19c0.76,0.47,1.7,0.71,2.36,1.28c0.71,0.61,1.18,1.5,1.97,2.55c3.95,0.51,8.02,2.04,11.67,4.62
		c0.24,0.17,0.46,0.36,0.68,0.56c1.31,1.13,2.47,1.98,4.56,1.74c4.82-0.55,9.43,0.65,13.72,2.95c0.95,0.51,1.83,1.14,2.53,1.58
		c2.69-1.46,5.3-2.87,7.89-4.3c0.43-0.24,0.83-0.57,1.17-0.92c3.71-3.88,8.17-6.34,13.46-7.3c0.59-0.11,1.18-0.44,1.66-0.81
		c3.15-2.39,6.77-3.63,10.56-4.45c0.61-0.13,1.26-0.27,1.86-0.2c2.07,0.25,3.64-1.04,5.38-1.74c0.75-0.31,1.49-1.06,1.88-1.79
		c3.47-6.52,7.41-12.69,12.5-18.12c4.01-4.29,8.81-7.45,13.7-10.54c2.97-1.88,6.01-3.68,9.03-5.48c0.57-0.34,1.18-0.68,1.82-0.8
		c1.05-0.21,1.27-0.92,1.51-1.8c0.61-2.27,0.31-4.53-0.04-6.77c-0.54-3.43,0.04-6.7,0.98-9.98c0.33-1.14,0.57-2.37,0.53-3.54
		c-0.14-4.5,0.57-8.79,2.68-12.8C323.73,335.93,324.69,334.38,325.57,332.85z"/>
	<path class="st1" d="M354.45,275.22c1,4.69,0.77,9.15-0.89,13.48c-0.86,2.25-1.81,4.46-2.75,6.68c-0.82,1.92-2.08,3.46-3.91,4.52
		c-2.07,1.19-3.55,2.9-4.71,5c-2.39,4.32-4.75,8.68-7.45,12.81c-2.15,3.29-4.78,6.26-7.2,9.37c-0.17-0.08-0.33-0.16-0.5-0.24
		c0.07-1.28,0.15-2.55,0.23-3.83c0.02-0.25,0.07-0.5,0.08-0.75c0.09-3.15,0-6.32,0.3-9.45c0.35-3.75,0.96-7.48,1.6-11.19
		c0.29-1.68,0.94-3.3,1.42-4.95c0.07-0.24,0.17-0.46,0.23-0.7c0.17-0.66-0.45-1.63,0.61-1.92c0.68-0.18,1.44-0.02,2.15-0.14
		c1.01-0.17,2.01-0.42,3-0.71c2.25-0.67,4.54-1.26,6.72-2.11c2-0.78,3.55-2.2,4.59-4.15c1.04-1.97,2.2-3.87,3.26-5.82
		c0.86-1.58,1.65-3.21,2.49-4.8C353.88,275.98,354.14,275.67,354.45,275.22z"/>
	<path class="st1" d="M344.43,278.37c-0.23-1.44-0.75-2.71-0.49-3.8c0.2-0.86,1.24-1.82,2.13-2.17c1.82-0.72,3.17-1.91,4.51-3.26
		c1.34-1.36,1.8-3.01,2.12-4.77c0.28-1.58,0.44-3.19,0.81-4.75c0.16-0.68,0.64-1.35,1.12-1.89c0.82-0.94,0.27-1.89,0.21-2.85
		c-0.1-1.5-0.4-3.01-0.29-4.49c0.14-1.87,0.41-3.68-0.22-5.55c-0.35-1.04-0.22-2.23-0.35-3.35c-0.24-2.14-0.5-4.28-0.77-6.42
		c-0.2-1.6-1.36-2.49-2.69-2.88c-1.21-0.35-2.48-0.55-3.71,0.62c-0.92,0.88-1.22,1.93-1.83,2.89c-1.15,1.81-2.91,2.96-5.21,3
		c-0.83,0.01-1.65,0.2-2.47,0.19c-0.27,0-0.69-0.31-0.76-0.57c-0.09-0.31,0.04-0.74,0.2-1.06c1.84-3.65,4.12-6.95,7.56-9.32
		c1.63-1.12,3.12-2.55,4.89-3.38c2.43-1.14,5-0.64,7.51,0.22c1.57,0.54,2.45,1.5,2.9,3.06c0.38,1.32,1.1,2.55,1.4,3.88
		c0.42,1.85,0.75,3.75,0.81,5.64c0.08,2.56-0.16,5.13-0.18,7.69c0,0.43,0.31,0.98,0.65,1.28c0.93,0.82,0.85,2.84-0.19,3.53
		c-0.21,0.14-0.46,0.43-0.46,0.65c-0.02,1.11-0.66,1.72-1.53,2.25c-0.41,0.25-0.79,0.66-1,1.09c-0.73,1.56-1.36,3.16-2.08,4.72
		c-0.64,1.37-1.36,2.71-2.03,4.07c-0.89,1.81-1.77,3.63-2.65,5.45c-0.07,0.14-0.13,0.32-0.11,0.48c0.32,3.11-1.56,4.98-3.74,6.7
		c-0.32,0.25-0.63,0.58-0.82,0.94c-0.58,1.08-1.09,2.2-2.67,1.68C344.88,277.87,344.7,278.13,344.43,278.37z"/>
	<path class="st1" d="M333.29,255.78c-0.36-0.3-0.76-0.47-0.85-0.73c-0.61-1.83-1.2-3.67-1.7-5.54c-0.3-1.14-0.57-2.33-0.53-3.48
		c0.02-0.56,0.72-1.15,1.22-1.62c0.77-0.73,1.68-1.31,2.44-2.06c0.78-0.77,1.45-1.65,2.07-2.37c1.13,1.06,2.09,2.08,3.16,2.96
		c0.95,0.78,2.06,1.37,3.03,2.13c0.39,0.31,0.53,0.91,0.89,1.29c1.05,1.12,2.17,2.18,3.23,3.3c0.88,0.92,1.79,1.83,2.54,2.85
		c0.27,0.37,0.09,1.06,0.19,1.59c0.33,1.8,0.16,3.55,0.02,5.37c-0.2,2.68-1.6,4.66-3.1,6.52c-0.84,1.04-2.44,1.55-3.8,2.06
		c-0.75,0.28-1.68,0.08-2.53,0.03c-0.22-0.01-0.49-0.23-0.6-0.43c-0.07-0.12,0.05-0.48,0.2-0.58c2.32-1.76,2.2-4.28,2.1-6.78
		c-0.02-0.35-0.13-0.79-0.36-1.03c-1.8-1.83-2.74-4.22-4.22-6.26c-0.26-0.36-0.65-0.66-1.05-0.88c-1.06-0.59-1.57-0.25-1.72,0.96
		C333.82,253.88,333.56,254.66,333.29,255.78z"/>
	<path class="st1" d="M148.39,340.34c-1.38-1.32-2.54-2.37-3.62-3.5c-0.3-0.32-0.44-0.87-0.49-1.34c-0.16-1.49-1.25-2.69-2.72-2.81
		c0.06-1.79-1.23-2.5-2.54-3.35c-0.62-0.4-0.97-1.31-1.3-2.05c-0.9-1.98-1.7-4-2.6-5.99c-0.57-1.26-1.24-2.46-1.85-3.7
		c-0.15-0.3-0.43-0.75-0.33-0.92c0.85-1.35-0.28-2.07-0.84-3c-1.58-2.61-1.91-5.6-2.44-8.51c-0.2-1.12-0.25-2.26-0.1-3.46
		c0.25,0.94,0.68,1.86,0.73,2.81c0.13,2.62,1.09,4.92,2.3,7.18c0.68,1.28,1.16,2.6,1.21,4.17c0.04,1.25,0.77,2.61,1.55,3.66
		c0.61,0.82,0.89,1.55,0.81,2.49c-0.08,0.9,0.28,1.23,1.2,1.05c0.24-0.05,0.63,0.23,0.81,0.47c0.55,0.71,1.02,1.48,1.52,2.23
		c0.17,0.25,0.36,0.47,0.52,0.72c0.06,0.1,0.02,0.31,0.1,0.35c1.74,1.01,1.09,3.33,2.64,4.6c1.28,1.05,1.86,2.91,3.07,4.08
		c0.99,0.96,1.73,1.94,2.11,3.22C148.26,339.17,148.28,339.66,148.39,340.34z"/>
	<path class="st1" d="M171.4,273.96c-2.89,0.22-5.43-1.05-8.18-0.39c-1.39,0.33-2.42-1.86-1.59-3.17c0.33-0.52,0.77-0.99,1.18-1.45
		c0.87-0.99,1.98-1.27,3-0.44c1.8,1.46,3.47,3.08,5.17,4.65C171.17,273.32,171.23,273.62,171.4,273.96z"/>
	<path class="st1" d="M148.99,335.75c1.31-1.23,2.32-1.68,3.66-1.07c-0.13,1.04-1.06,1.3-1.79,1.54
		C150.43,336.37,149.82,335.98,148.99,335.75z"/>
	<path class="st1" d="M167.06,86.83c0.22,0.97,0.44,1.94,0.66,2.91c-0.15,0.09-0.31,0.18-0.46,0.28c-0.39-0.43-1.03-0.82-1.12-1.31
		c-0.11-0.6,0.23-1.28,0.38-1.92C166.71,86.8,166.88,86.81,167.06,86.83z"/>
	<path class="st1" d="M159.93,343.12c0.64,1.31,0.01,1.88-1.08,2.2C158.35,344.59,158.35,344.59,159.93,343.12z"/>
	<path class="st1" d="M270.34,306.34c0.52-0.09,0.78-0.14,1.23-0.21c0.08,0.52,0.17,1.03,0.21,1.54c0,0.06-0.45,0.23-0.48,0.19
		C270.98,307.42,270.71,306.94,270.34,306.34z"/>
</g>
</svg>
